<svg xmlns="http://www.w3.org/2000/svg" xmlns:xlink="http://www.w3.org/1999/xlink" width="500" zoomAndPan="magnify" viewBox="0 0 375 112.499997" height="150" preserveAspectRatio="xMidYMid meet" version="1.0"><defs><g/><clipPath id="28fd11514a"><path d="M 0.828125 0 L 113 0 L 113 112.003906 L 0.828125 112.003906 Z M 0.828125 0 " clip-rule="nonzero"/></clipPath><clipPath id="fbef71f4a7"><path d="M 0.828125 11 L 97 11 L 97 85 L 0.828125 85 Z M 0.828125 11 " clip-rule="nonzero"/></clipPath><clipPath id="f742ebcae5"><path d="M 59 2.828125 L 110.328125 2.828125 L 110.328125 53 L 59 53 Z M 59 2.828125 " clip-rule="nonzero"/></clipPath><clipPath id="f62be439ef"><path d="M 57.628906 0.832031 L 112 0.832031 L 112 55.203125 L 57.628906 55.203125 Z M 57.628906 0.832031 " clip-rule="nonzero"/></clipPath><clipPath id="30bb4ec18a"><path d="M 84.8125 0.832031 C 69.800781 0.832031 57.628906 13.003906 57.628906 28.019531 C 57.628906 43.03125 69.800781 55.203125 84.8125 55.203125 C 99.828125 55.203125 112 43.03125 112 28.019531 C 112 13.003906 99.828125 0.832031 84.8125 0.832031 Z M 84.8125 0.832031 " clip-rule="nonzero"/></clipPath><clipPath id="98d01d6ed1"><path d="M 0.628906 0.832031 L 55 0.832031 L 55 55.203125 L 0.628906 55.203125 Z M 0.628906 0.832031 " clip-rule="nonzero"/></clipPath><clipPath id="ff7294e845"><path d="M 27.8125 0.832031 C 12.800781 0.832031 0.628906 13.003906 0.628906 28.019531 C 0.628906 43.03125 12.800781 55.203125 27.8125 55.203125 C 42.828125 55.203125 55 43.03125 55 28.019531 C 55 13.003906 42.828125 0.832031 27.8125 0.832031 Z M 27.8125 0.832031 " clip-rule="nonzero"/></clipPath><clipPath id="158f95cf4f"><rect x="0" width="55" y="0" height="56"/></clipPath><clipPath id="4e7d4986cd"><path d="M 59.621094 2.828125 L 110.003906 2.828125 L 110.003906 53.210938 L 59.621094 53.210938 Z M 59.621094 2.828125 " clip-rule="nonzero"/></clipPath><clipPath id="6c3d89ede0"><path d="M 84.8125 2.828125 C 70.902344 2.828125 59.621094 14.105469 59.621094 28.019531 C 59.621094 41.929688 70.902344 53.210938 84.8125 53.210938 C 98.726562 53.210938 110.003906 41.929688 110.003906 28.019531 C 110.003906 14.105469 98.726562 2.828125 84.8125 2.828125 Z M 84.8125 2.828125 " clip-rule="nonzero"/></clipPath><clipPath id="f6d16a0912"><path d="M 0.621094 0.828125 L 51.003906 0.828125 L 51.003906 51.210938 L 0.621094 51.210938 Z M 0.621094 0.828125 " clip-rule="nonzero"/></clipPath><clipPath id="e6cabde640"><path d="M 25.8125 0.828125 C 11.902344 0.828125 0.621094 12.105469 0.621094 26.019531 C 0.621094 39.929688 11.902344 51.210938 25.8125 51.210938 C 39.726562 51.210938 51.003906 39.929688 51.003906 26.019531 C 51.003906 12.105469 39.726562 0.828125 25.8125 0.828125 Z M 25.8125 0.828125 " clip-rule="nonzero"/></clipPath><clipPath id="67a5557e81"><rect x="0" width="52" y="0" height="52"/></clipPath><clipPath id="affc313daf"><path d="M 70 16.683594 L 100 16.683594 L 100 39.339844 L 70 39.339844 Z M 70 16.683594 " clip-rule="nonzero"/></clipPath><clipPath id="99ef3d9534"><rect x="0" width="113" y="0" height="113"/></clipPath><clipPath id="78bb32dc57"><path d="M 223 69.667969 L 233 69.667969 L 233 78.628906 L 223 78.628906 Z M 223 69.667969 " clip-rule="nonzero"/></clipPath></defs><g clip-path="url(#28fd11514a)"><g transform="matrix(1, 0, 0, 1, 0.000000000000000111, 0)"><g clip-path="url(#99ef3d9534)"><path fill="#12123f" d="M 96.355469 100.628906 C 96.355469 101.375 96.285156 102.113281 96.136719 102.847656 C 95.992188 103.578125 95.777344 104.289062 95.492188 104.980469 C 95.203125 105.667969 94.855469 106.324219 94.441406 106.945312 C 94.023438 107.566406 93.554688 108.140625 93.023438 108.667969 C 92.496094 109.195312 91.921875 109.667969 91.300781 110.082031 C 90.679688 110.496094 90.027344 110.847656 89.335938 111.132812 C 88.644531 111.417969 87.933594 111.636719 87.203125 111.78125 C 86.46875 111.925781 85.730469 112 84.984375 112 C 84.238281 112 83.496094 111.925781 82.765625 111.78125 C 82.03125 111.636719 81.320312 111.417969 80.632812 111.132812 C 79.941406 110.847656 79.285156 110.496094 78.664062 110.082031 C 78.046875 109.667969 77.46875 109.195312 76.941406 108.667969 C 76.414062 108.140625 75.941406 107.566406 75.527344 106.945312 C 75.113281 106.324219 74.761719 105.667969 74.476562 104.980469 C 74.191406 104.289062 73.976562 103.578125 73.832031 102.847656 C 73.683594 102.113281 73.613281 101.375 73.613281 100.628906 C 73.613281 99.878906 73.683594 99.140625 73.832031 98.410156 C 73.976562 97.675781 74.191406 96.964844 74.476562 96.273438 C 74.761719 95.585938 75.113281 94.929688 75.527344 94.308594 C 75.941406 93.6875 76.414062 93.113281 76.941406 92.585938 C 77.46875 92.058594 78.046875 91.585938 78.664062 91.171875 C 79.285156 90.757812 79.941406 90.40625 80.632812 90.121094 C 81.320312 89.835938 82.03125 89.621094 82.765625 89.472656 C 83.496094 89.328125 84.238281 89.253906 84.984375 89.253906 C 85.730469 89.253906 86.46875 89.328125 87.203125 89.472656 C 87.933594 89.621094 88.644531 89.835938 89.335938 90.121094 C 90.027344 90.40625 90.679688 90.757812 91.300781 91.171875 C 91.921875 91.585938 92.496094 92.058594 93.023438 92.585938 C 93.554688 93.113281 94.023438 93.6875 94.441406 94.308594 C 94.855469 94.929688 95.203125 95.585938 95.492188 96.273438 C 95.777344 96.964844 95.992188 97.675781 96.136719 98.410156 C 96.285156 99.140625 96.355469 99.878906 96.355469 100.628906 Z M 96.355469 100.628906 " fill-opacity="1" fill-rule="nonzero"/><path fill="#12123f" d="M 50.867188 100.628906 C 50.867188 101.375 50.792969 102.113281 50.648438 102.847656 C 50.503906 103.578125 50.289062 104.289062 50 104.980469 C 49.714844 105.667969 49.367188 106.324219 48.949219 106.945312 C 48.535156 107.566406 48.066406 108.140625 47.535156 108.667969 C 47.007812 109.195312 46.433594 109.667969 45.8125 110.082031 C 45.191406 110.496094 44.535156 110.847656 43.847656 111.132812 C 43.15625 111.417969 42.445312 111.636719 41.714844 111.78125 C 40.980469 111.925781 40.242188 112 39.496094 112 C 38.75 112 38.007812 111.925781 37.277344 111.78125 C 36.542969 111.636719 35.832031 111.417969 35.144531 111.132812 C 34.453125 110.847656 33.796875 110.496094 33.175781 110.082031 C 32.554688 109.667969 31.980469 109.195312 31.453125 108.667969 C 30.925781 108.140625 30.453125 107.566406 30.039062 106.945312 C 29.625 106.324219 29.273438 105.667969 28.988281 104.980469 C 28.703125 104.289062 28.488281 103.578125 28.339844 102.847656 C 28.195312 102.113281 28.121094 101.375 28.121094 100.628906 C 28.121094 99.878906 28.195312 99.140625 28.339844 98.410156 C 28.488281 97.675781 28.703125 96.964844 28.988281 96.273438 C 29.273438 95.585938 29.625 94.929688 30.039062 94.308594 C 30.453125 93.6875 30.925781 93.113281 31.453125 92.585938 C 31.980469 92.058594 32.554688 91.585938 33.175781 91.171875 C 33.796875 90.757812 34.453125 90.40625 35.144531 90.121094 C 35.832031 89.835938 36.542969 89.621094 37.277344 89.472656 C 38.007812 89.328125 38.75 89.253906 39.496094 89.253906 C 40.242188 89.253906 40.980469 89.328125 41.714844 89.472656 C 42.445312 89.621094 43.15625 89.835938 43.847656 90.121094 C 44.535156 90.40625 45.191406 90.757812 45.8125 91.171875 C 46.433594 91.585938 47.007812 92.058594 47.535156 92.585938 C 48.066406 93.113281 48.535156 93.6875 48.949219 94.308594 C 49.367188 94.929688 49.714844 95.585938 50 96.273438 C 50.289062 96.964844 50.503906 97.675781 50.648438 98.410156 C 50.792969 99.140625 50.867188 99.878906 50.867188 100.628906 Z M 50.867188 100.628906 " fill-opacity="1" fill-rule="nonzero"/><g clip-path="url(#fbef71f4a7)"><path fill="#12123f" d="M 94.082031 84.707031 L 41.582031 84.707031 C 34.019531 84.707031 27.453125 79.324219 25.972656 71.910156 L 14.886719 16.472656 L 3.105469 16.472656 C 1.847656 16.472656 0.828125 15.453125 0.828125 14.199219 C 0.828125 12.941406 1.847656 11.925781 3.105469 11.925781 L 16.75 11.925781 C 17.832031 11.925781 18.765625 12.6875 18.980469 13.753906 L 30.433594 71.015625 C 31.492188 76.3125 36.179688 80.15625 41.582031 80.15625 L 94.082031 80.15625 C 95.335938 80.15625 96.355469 81.175781 96.355469 82.433594 C 96.355469 83.6875 95.335938 84.707031 94.082031 84.707031 Z M 94.082031 84.707031 " fill-opacity="1" fill-rule="nonzero"/></g><path fill="#12123f" d="M 100.777344 54.132812 C 100.101562 53.734375 99.265625 53.707031 98.570312 54.074219 C 94.316406 56.289062 89.746094 57.414062 84.984375 57.414062 C 68.679688 57.414062 55.433594 45.085938 55.457031 28.410156 C 55.457031 28.378906 55.480469 27.941406 55.484375 27.914062 C 55.503906 27.285156 55.261719 26.679688 54.820312 26.238281 C 54.375 25.792969 53.761719 25.558594 53.140625 25.570312 L 21.230469 25.570312 C 20.566406 25.589844 19.945312 25.902344 19.53125 26.421875 C 19.113281 26.933594 18.9375 27.609375 19.066406 28.265625 L 25.890625 64.65625 C 26.089844 65.734375 27.027344 66.511719 28.121094 66.511719 L 90.597656 66.511719 C 96.320312 66.511719 101.171875 62.230469 101.878906 56.546875 C 101.890625 56.433594 101.890625 56.148438 101.890625 56.035156 C 101.875 55.253906 101.449219 54.535156 100.777344 54.132812 Z M 100.777344 54.132812 " fill-opacity="1" fill-rule="nonzero"/><g clip-path="url(#f742ebcae5)"><path fill="#12123f" d="M 84.984375 2.828125 C 71.1875 2.828125 59.964844 14.046875 59.964844 27.84375 C 59.964844 41.640625 71.1875 52.863281 84.984375 52.863281 C 98.78125 52.863281 110.003906 41.640625 110.003906 27.84375 C 110.003906 14.046875 98.78125 2.828125 84.984375 2.828125 Z M 100.242188 20.359375 L 82.046875 38.554688 C 81.597656 38.996094 81.015625 39.21875 80.433594 39.21875 C 79.851562 39.21875 79.269531 38.996094 78.824219 38.554688 L 69.726562 29.457031 C 68.839844 28.570312 68.839844 27.125 69.726562 26.238281 C 70.613281 25.351562 72.054688 25.351562 72.941406 26.238281 L 80.433594 33.726562 L 97.019531 17.140625 C 97.90625 16.253906 99.347656 16.253906 100.238281 17.140625 C 101.125 18.027344 101.128906 19.464844 100.242188 20.359375 Z M 100.242188 20.359375 " fill-opacity="1" fill-rule="nonzero"/></g><g clip-path="url(#f62be439ef)"><g clip-path="url(#30bb4ec18a)"><g transform="matrix(1, 0, 0, 1, 57, 0)"><g clip-path="url(#158f95cf4f)"><g clip-path="url(#98d01d6ed1)"><g clip-path="url(#ff7294e845)"><path fill="#ffffff" d="M 0.628906 0.832031 L 55 0.832031 L 55 55.203125 L 0.628906 55.203125 Z M 0.628906 0.832031 " fill-opacity="1" fill-rule="nonzero"/></g></g></g></g></g></g><g clip-path="url(#4e7d4986cd)"><g clip-path="url(#6c3d89ede0)"><g transform="matrix(1, 0, 0, 1, 59, 2)"><g clip-path="url(#67a5557e81)"><g clip-path="url(#f6d16a0912)"><g clip-path="url(#e6cabde640)"><path fill="#ffde59" d="M 0.621094 0.828125 L 51.003906 0.828125 L 51.003906 51.210938 L 0.621094 51.210938 Z M 0.621094 0.828125 " fill-opacity="1" fill-rule="nonzero"/></g></g></g></g></g></g><g clip-path="url(#affc313daf)"><path fill="#12123f" d="M 97.71875 16.695312 C 97.253906 16.707031 96.859375 16.882812 96.53125 17.21875 L 78.773438 34.976562 L 73.09375 29.292969 C 72.933594 29.128906 72.746094 28.996094 72.53125 28.90625 C 72.320312 28.8125 72.097656 28.765625 71.867188 28.765625 C 71.632812 28.761719 71.410156 28.804688 71.195312 28.890625 C 70.980469 28.980469 70.792969 29.105469 70.628906 29.269531 C 70.464844 29.433594 70.339844 29.621094 70.25 29.835938 C 70.164062 30.050781 70.121094 30.273438 70.125 30.507812 C 70.125 30.738281 70.171875 30.960938 70.265625 31.175781 C 70.355469 31.386719 70.484375 31.574219 70.652344 31.734375 L 77.554688 38.636719 C 77.714844 38.796875 77.902344 38.921875 78.113281 39.007812 C 78.324219 39.097656 78.546875 39.140625 78.773438 39.140625 C 79.003906 39.140625 79.222656 39.097656 79.433594 39.007812 C 79.644531 38.921875 79.832031 38.796875 79.996094 38.636719 L 98.972656 19.65625 C 99.226562 19.410156 99.390625 19.109375 99.460938 18.761719 C 99.53125 18.414062 99.496094 18.074219 99.359375 17.746094 C 99.21875 17.417969 99 17.160156 98.703125 16.96875 C 98.402344 16.773438 98.074219 16.683594 97.71875 16.695312 Z M 97.71875 16.695312 " fill-opacity="1" fill-rule="nonzero"/></g></g></g></g><g fill="#12123f" fill-opacity="1"><g transform="translate(121.038787, 29.431732)"><g><path d="M 12.46875 0.28125 L 11.796875 0.25 L 11.140625 0.109375 L 10.4375 -0.140625 L 9.78125 -0.28125 L 8.171875 -0.96875 L 6.625 -1.796875 L 5.015625 -3.1875 L 3.546875 -4.765625 L 2 -7.890625 L 1.5 -9.921875 L 1.296875 -12.546875 L 1.65625 -15.625 L 2 -17.09375 L 2.90625 -19.109375 L 3.578125 -20.140625 L 4.546875 -21.359375 L 6.09375 -22.765625 L 7.140625 -23.546875 L 9.78125 -24.796875 L 13.265625 -25.484375 L 15.484375 -25.453125 L 16.203125 -25.34375 L 16.875 -25.3125 L 20.328125 -24.15625 L 22.765625 -22.625 L 23.765625 -21.578125 L 24.15625 -20.890625 L 24.65625 -20.28125 L 24.984375 -19.71875 L 25.375 -19.140625 L 25.59375 -18.390625 L 25.84375 -17.75 L 26.0625 -16.953125 L 25.8125 -16.234375 L 25.203125 -15.953125 L 24.125 -15.84375 L 23.125 -15.953125 L 22.40625 -15.921875 L 21.65625 -15.953125 L 21 -15.875 L 20.1875 -16.265625 L 19.5 -16.953125 L 19.109375 -17.484375 L 18.0625 -18.53125 L 17.5625 -18.921875 L 16.921875 -19.171875 L 15.8125 -19.5 L 14.265625 -19.578125 L 11.859375 -19.25 L 10.890625 -18.703125 L 10.03125 -18.03125 L 9.171875 -17.03125 L 8.8125 -16.34375 L 8.28125 -15.046875 L 8.03125 -13.625 L 8.03125 -11.4375 L 8.140625 -10.640625 L 8.3125 -10 L 8.5625 -9.5 L 8.8125 -8.78125 L 9.609375 -7.53125 L 10.640625 -6.59375 L 11.90625 -5.953125 L 13.1875 -5.484375 L 14.234375 -5.375 L 16.125 -5.484375 L 17.390625 -6.171875 L 17.921875 -6.375 L 18.5 -6.875 L 19.3125 -7.8125 L 19.671875 -8.5 L 20.25 -9.0625 L 21.078125 -9.5 L 21.796875 -9.46875 L 22.515625 -9.5 L 23.234375 -9.390625 L 25.234375 -9.53125 L 25.953125 -9.0625 L 26.171875 -8.421875 L 25.234375 -5.703125 L 24.484375 -4.40625 L 23.65625 -3.328125 L 22.65625 -2.328125 L 20.890625 -1.078125 L 20.28125 -0.78125 L 19.53125 -0.53125 L 18.890625 -0.171875 L 16.78125 0.25 L 14.265625 0.4375 Z M 12.46875 0.28125 "/></g></g></g><g fill="#12123f" fill-opacity="1"><g transform="translate(150.069808, 29.431732)"><g><path d="M 12 0.140625 L 11.296875 -0.03125 L 9.53125 -0.03125 L 8.453125 0.109375 L 7.03125 -0.03125 L 6.3125 0.03125 L 5.203125 0.078125 L 4.15625 -0.078125 L 3.484375 0 L 2.796875 0 L 2.078125 -0.328125 L 1.71875 -1.296875 L 1.828125 -4.59375 L 2.21875 -5.234375 L 4.59375 -5.953125 L 4.984375 -7.03125 L 4.875 -18.03125 L 4.546875 -19 L 3.875 -19.421875 L 3.15625 -19.421875 L 2.359375 -19.828125 L 1.96875 -20.53125 L 2.046875 -21.21875 L 1.9375 -23.875 L 2.296875 -24.734375 L 3.015625 -25.09375 L 3.828125 -25.09375 L 4.515625 -24.984375 L 7.453125 -24.984375 L 8.171875 -25.125 L 8.8125 -25.0625 L 13.15625 -25.0625 L 13.796875 -24.65625 L 14.234375 -23.984375 L 14.1875 -20.4375 L 13.828125 -19.859375 L 13.078125 -19.578125 L 12.359375 -19.46875 L 11.578125 -19.140625 L 11.328125 -18.3125 L 11.1875 -14.703125 L 11.328125 -12.109375 L 11.25 -11.328125 L 11.296875 -7.390625 L 11.1875 -6.703125 L 11.609375 -5.875 L 12.46875 -5.59375 L 13.21875 -5.59375 L 14.015625 -5.203125 L 14.4375 -4.515625 L 14.4375 -0.96875 L 14.09375 -0.28125 L 13.4375 0.078125 Z M 12 0.140625 "/></g></g></g><g fill="#12123f" fill-opacity="1"><g transform="translate(168.026028, 29.431732)"><g><path d="M 2.6875 -1.46875 L 2.6875 -6.78125 L 2.609375 -7.484375 L 2.65625 -10.390625 L 2.71875 -11.078125 L 2.65625 -11.75 L 2.65625 -12.46875 L 2.609375 -13.265625 L 2.71875 -14.703125 L 2.65625 -15.40625 L 2.609375 -23.625 L 3.046875 -24.625 L 3.6875 -24.984375 L 5.8125 -25.15625 L 6.59375 -25.125 L 7.3125 -24.984375 L 8.03125 -24.984375 L 8.671875 -25.15625 L 9.390625 -25.15625 L 10.109375 -25.015625 L 12.265625 -25.015625 L 13.296875 -25.09375 L 14.4375 -25.0625 L 16.484375 -24.59375 L 17.84375 -24.125 L 19.109375 -23.4375 L 21.140625 -21.296875 L 21.546875 -20.71875 L 21.828125 -20.109375 L 22.46875 -18.0625 L 22.578125 -17.34375 L 22.65625 -15.09375 L 22.1875 -13.015625 L 20.796875 -10.5 L 20.28125 -10.078125 L 19.78125 -9.53125 L 19.46875 -8.75 L 19.5 -7.890625 L 19.921875 -7.34375 L 21.078125 -5.484375 L 21.40625 -4.84375 L 22.625 -3.015625 L 22.90625 -2.328125 L 23.328125 -1.828125 L 23.734375 -1.046875 L 23.515625 -0.25 L 22.828125 0.078125 L 21.65625 0.109375 L 20.96875 0.03125 L 18.140625 0.078125 L 16.921875 -0.25 L 16.125 -0.890625 L 15.734375 -1.5 L 15.453125 -2.21875 L 15.046875 -2.765625 L 14.375 -4.046875 L 13.625 -5.125 L 13.328125 -5.765625 L 12.90625 -6.484375 L 12.1875 -7.09375 L 10.109375 -7.390625 L 9.421875 -6.984375 L 9.109375 -6.265625 L 9.03125 -3.984375 L 9.140625 -3.21875 L 9.0625 -2.578125 L 9.0625 -1.359375 L 8.75 -0.328125 L 7.59375 0.03125 L 6.53125 0.03125 L 5.953125 0.109375 L 4.796875 0 L 4.09375 0.109375 L 3.046875 -0.359375 Z M 10.109375 -13.125 L 10.890625 -13.1875 L 12.609375 -13.125 L 13.296875 -13.15625 L 14.34375 -13.40625 L 14.984375 -13.6875 L 15.375 -14.015625 L 15.765625 -14.546875 L 16.09375 -15.265625 L 16.203125 -16.34375 L 16.0625 -17.28125 L 15.84375 -17.84375 L 14.953125 -18.96875 L 14.265625 -19.140625 L 13.328125 -19.21875 L 12.328125 -19.421875 L 10.890625 -19.28125 L 10.171875 -19.3125 L 9.421875 -19.03125 L 9.109375 -18.359375 L 9.03125 -16.84375 L 9.109375 -16.234375 L 9.109375 -14.09375 L 9.390625 -13.515625 Z M 10.109375 -13.125 "/></g></g></g><g fill="#12123f" fill-opacity="1"><g transform="translate(194.584042, 29.431732)"><g><path d="M 2.6875 -1.46875 L 2.6875 -6.78125 L 2.609375 -7.484375 L 2.65625 -10.390625 L 2.71875 -11.078125 L 2.65625 -11.75 L 2.65625 -12.46875 L 2.609375 -13.265625 L 2.71875 -14.703125 L 2.65625 -15.40625 L 2.609375 -23.625 L 3.046875 -24.625 L 3.6875 -24.984375 L 5.8125 -25.15625 L 6.59375 -25.125 L 7.3125 -24.984375 L 8.03125 -24.984375 L 8.671875 -25.15625 L 9.390625 -25.15625 L 10.109375 -25.015625 L 12.265625 -25.015625 L 13.296875 -25.09375 L 14.4375 -25.0625 L 16.484375 -24.59375 L 17.84375 -24.125 L 19.109375 -23.4375 L 21.140625 -21.296875 L 21.546875 -20.71875 L 21.828125 -20.109375 L 22.46875 -18.0625 L 22.578125 -17.34375 L 22.65625 -15.09375 L 22.1875 -13.015625 L 20.796875 -10.5 L 20.28125 -10.078125 L 19.78125 -9.53125 L 19.46875 -8.75 L 19.5 -7.890625 L 19.921875 -7.34375 L 21.078125 -5.484375 L 21.40625 -4.84375 L 22.625 -3.015625 L 22.90625 -2.328125 L 23.328125 -1.828125 L 23.734375 -1.046875 L 23.515625 -0.25 L 22.828125 0.078125 L 21.65625 0.109375 L 20.96875 0.03125 L 18.140625 0.078125 L 16.921875 -0.25 L 16.125 -0.890625 L 15.734375 -1.5 L 15.453125 -2.21875 L 15.046875 -2.765625 L 14.375 -4.046875 L 13.625 -5.125 L 13.328125 -5.765625 L 12.90625 -6.484375 L 12.1875 -7.09375 L 10.109375 -7.390625 L 9.421875 -6.984375 L 9.109375 -6.265625 L 9.03125 -3.984375 L 9.140625 -3.21875 L 9.0625 -2.578125 L 9.0625 -1.359375 L 8.75 -0.328125 L 7.59375 0.03125 L 6.53125 0.03125 L 5.953125 0.109375 L 4.796875 0 L 4.09375 0.109375 L 3.046875 -0.359375 Z M 10.109375 -13.125 L 10.890625 -13.1875 L 12.609375 -13.125 L 13.296875 -13.15625 L 14.34375 -13.40625 L 14.984375 -13.6875 L 15.375 -14.015625 L 15.765625 -14.546875 L 16.09375 -15.265625 L 16.203125 -16.34375 L 16.0625 -17.28125 L 15.84375 -17.84375 L 14.953125 -18.96875 L 14.265625 -19.140625 L 13.328125 -19.21875 L 12.328125 -19.421875 L 10.890625 -19.28125 L 10.171875 -19.3125 L 9.421875 -19.03125 L 9.109375 -18.359375 L 9.03125 -16.84375 L 9.109375 -16.234375 L 9.109375 -14.09375 L 9.390625 -13.515625 Z M 10.109375 -13.125 "/></g></g></g><g fill="#12123f" fill-opacity="1"><g transform="translate(221.142056, 29.431732)"><g><path d="M 12.328125 0.46875 L 11.1875 0.390625 L 10.46875 0.390625 L 9.0625 0.109375 L 7.703125 -0.5 L 7.171875 -0.828125 L 6.453125 -1.140625 L 5.3125 -1.90625 L 4.765625 -2.359375 L 4.34375 -2.875 L 3.515625 -4.15625 L 2.9375 -5.375 L 2.578125 -6.84375 L 2.359375 -9.71875 L 2.46875 -15.484375 L 2.40625 -16.171875 L 2.515625 -16.875 L 2.40625 -21.90625 L 2.46875 -22.46875 L 2.46875 -23.328125 L 2.40625 -24.046875 L 2.875 -24.734375 L 3.625 -25.015625 L 4.375 -25.125 L 5.921875 -24.984375 L 6.625 -25.09375 L 7.3125 -25.09375 L 8.0625 -24.765625 L 8.5 -23.984375 L 8.5625 -22.9375 L 8.5 -21.796875 L 8.5625 -21.25 L 8.453125 -9.71875 L 8.671875 -7.640625 L 8.890625 -6.953125 L 9.3125 -6.375 L 9.890625 -5.953125 L 10.5 -5.59375 L 11.328125 -5.40625 L 13.484375 -5.40625 L 14.734375 -5.875 L 15.34375 -6.3125 L 15.734375 -7.03125 L 15.953125 -7.5625 L 16.203125 -9.78125 L 16.125 -23.90625 L 16.53125 -24.703125 L 17.28125 -25.0625 L 18.78125 -24.953125 L 21.046875 -25.015625 L 21.828125 -24.765625 L 22.296875 -24.015625 L 22.1875 -23.296875 L 22.1875 -20.328125 L 22.265625 -19.75 L 22.1875 -18.96875 L 22.265625 -18.28125 L 22.265625 -8.609375 L 22.078125 -6.875 L 21.75 -5.375 L 21.40625 -4.765625 L 21.1875 -4.046875 L 20.359375 -2.796875 L 19.359375 -1.796875 L 18.171875 -1 L 16.875 -0.328125 L 14.09375 0.390625 L 13.40625 0.359375 Z M 12.328125 0.46875 "/></g></g></g><g fill="#12123f" fill-opacity="1"><g transform="translate(247.556707, 29.431732)"><g><path d="M 9.640625 0.328125 L 8.171875 0.078125 L 6.78125 -0.4375 L 6.0625 -0.640625 L 5.375 -0.96875 L 4.875 -1.5 L 3.625 -2.296875 L 3.15625 -2.828125 L 2.65625 -3.296875 L 1.96875 -4.625 L 1.75 -5.265625 L 1.609375 -5.984375 L 1.5 -6.703125 L 1.796875 -7.453125 L 2.4375 -7.75 L 5.203125 -7.890625 L 5.875 -7.78125 L 6.53125 -7.84375 L 7.234375 -7.5625 L 8.421875 -6.265625 L 9.03125 -5.875 L 9.640625 -5.5625 L 11.46875 -5.375 L 12.109375 -5.484375 L 13.21875 -5.5625 L 14.4375 -6.09375 L 14.90625 -6.625 L 15.203125 -7.53125 L 14.984375 -8.421875 L 14.515625 -8.859375 L 13.21875 -9.46875 L 7.59375 -10.109375 L 6.3125 -10.53125 L 3.875 -11.859375 L 2.546875 -13.515625 L 1.96875 -14.765625 L 1.71875 -16.203125 L 1.6875 -17.3125 L 1.796875 -19.0625 L 2.4375 -21.046875 L 3.6875 -22.71875 L 5.40625 -23.90625 L 6.625 -24.625 L 8 -25.0625 L 8.640625 -25.15625 L 9.359375 -25.203125 L 10.140625 -25.40625 L 12.90625 -25.34375 L 14.296875 -25.0625 L 16.3125 -24.375 L 18.671875 -22.71875 L 19.46875 -21.65625 L 20.46875 -19.78125 L 20.53125 -19.109375 L 20.6875 -18.421875 L 20.390625 -17.8125 L 19.71875 -17.3125 L 19.0625 -17.390625 L 18.359375 -17.390625 L 17.390625 -17.453125 L 15.703125 -17.3125 L 14.90625 -17.78125 L 14.375 -18.5 L 13.765625 -19 L 13.125 -19.421875 L 12.46875 -19.609375 L 11.328125 -19.75 L 10.171875 -19.71875 L 9.53125 -19.578125 L 8.96875 -19.25 L 8.421875 -18.859375 L 8 -18.390625 L 7.8125 -17.421875 L 7.953125 -16.34375 L 8.5 -15.84375 L 9.828125 -15.203125 L 11.71875 -14.796875 L 12.765625 -14.796875 L 13.515625 -14.65625 L 14.234375 -14.625 L 14.953125 -14.515625 L 17.75 -13.65625 L 18.390625 -13.265625 L 18.96875 -12.96875 L 19.609375 -12.40625 L 20.53125 -11.328125 L 20.9375 -10.75 L 21.46875 -8.671875 L 21.546875 -7.53125 L 21.328125 -5.734375 L 21.109375 -5.125 L 20.890625 -4.484375 L 20.5 -3.6875 L 20.140625 -3.1875 L 19.109375 -2.109375 L 16.671875 -0.640625 L 15.984375 -0.328125 L 15.34375 -0.25 L 14.625 0.03125 L 13.90625 0.140625 L 13.1875 0.328125 L 12.46875 0.390625 Z M 9.640625 0.328125 "/></g></g></g><g fill="#12123f" fill-opacity="1"><g transform="translate(272.107639, 29.431732)"><g><path d="M 2.71875 -1.296875 L 2.6875 -14.734375 L 2.609375 -15.40625 L 2.578125 -16.203125 L 2.6875 -17.53125 L 2.609375 -18.25 L 2.6875 -18.921875 L 2.6875 -23.9375 L 3.015625 -24.734375 L 3.765625 -25.015625 L 4.4375 -25.125 L 5.875 -24.984375 L 6.59375 -25.125 L 8 -25.125 L 8.703125 -24.703125 L 9.0625 -23.90625 L 9.03125 -23.234375 L 9.140625 -21.1875 L 9.0625 -19.75 L 9.140625 -18.890625 L 9.109375 -6.734375 L 9.390625 -6.015625 L 10.109375 -5.734375 L 10.859375 -5.8125 L 12.265625 -5.734375 L 12.90625 -5.84375 L 13.625 -5.703125 L 15.09375 -5.734375 L 15.84375 -5.625 L 16.53125 -5.765625 L 17.28125 -5.84375 L 17.921875 -5.40625 L 18.25 -4.34375 L 18.28125 -1.4375 L 17.890625 -0.328125 L 17.203125 0.03125 L 10.109375 0 L 9.3125 0.078125 L 8.640625 -0.03125 L 7.28125 0.03125 L 5.875 -0.03125 L 4.375 0.078125 L 3.65625 0 L 2.96875 -0.359375 Z M 2.71875 -1.296875 "/></g></g></g><g fill="#12123f" fill-opacity="1"><g transform="translate(293.074488, 29.431732)"><g><path d="M 8.203125 -1.078125 L 8.25 -2.4375 L 8.171875 -3.125 L 8.25 -5.875 L 8.171875 -6.59375 L 8.203125 -9.421875 L 8.03125 -10.390625 L 7.671875 -11.390625 L 4.90625 -15.765625 L 4.625 -16.421875 L 3.765625 -17.5625 L 2.296875 -20.109375 L 1.90625 -20.609375 L 0.359375 -23.15625 L 0 -23.984375 L 0.109375 -24.765625 L 0.828125 -25.125 L 2.46875 -25.015625 L 4.296875 -25.15625 L 4.90625 -25.015625 L 5.65625 -25.0625 L 6.484375 -24.734375 L 7.234375 -24.046875 L 8.921875 -20.890625 L 9.3125 -20.28125 L 10.390625 -18.28125 L 10.78125 -17.703125 L 11.1875 -17.03125 L 11.578125 -17.03125 L 12.046875 -17.640625 L 12.65625 -19 L 13.015625 -19.609375 L 13.375 -20.359375 L 14.15625 -21.5 L 14.59375 -22.578125 L 15.515625 -24.125 L 16.171875 -24.734375 L 17.140625 -25.09375 L 17.75 -25.0625 L 19.140625 -25.09375 L 19.859375 -24.984375 L 20.609375 -25.0625 L 22.015625 -25.015625 L 22.65625 -24.875 L 22.796875 -24.09375 L 22.40625 -23.1875 L 20.109375 -19.390625 L 19.671875 -18.890625 L 15.125 -11.390625 L 14.765625 -10.46875 L 14.546875 -9.421875 L 14.59375 -7.34375 L 14.484375 -6.703125 L 14.484375 -5.984375 L 14.546875 -5.265625 L 14.4375 -1.109375 L 14.15625 -0.359375 L 13.4375 0.03125 L 12.71875 -0.03125 L 11.71875 0.03125 L 10.609375 -0.03125 L 9.96875 0.03125 L 9.25 0 L 8.5 -0.28125 Z M 8.203125 -1.078125 "/></g></g></g><g fill="#12123f" fill-opacity="1"><g transform="translate(121.038787, 65.272438)"><g><path d="M 12.46875 0.28125 L 11.796875 0.25 L 11.140625 0.109375 L 10.4375 -0.140625 L 9.78125 -0.28125 L 8.171875 -0.96875 L 6.625 -1.796875 L 5.015625 -3.1875 L 3.546875 -4.765625 L 2 -7.890625 L 1.5 -9.921875 L 1.296875 -12.546875 L 1.65625 -15.625 L 2 -17.09375 L 2.90625 -19.109375 L 3.578125 -20.140625 L 4.546875 -21.359375 L 6.09375 -22.765625 L 7.140625 -23.546875 L 9.78125 -24.796875 L 13.265625 -25.484375 L 15.484375 -25.453125 L 16.203125 -25.34375 L 16.875 -25.3125 L 20.328125 -24.15625 L 22.765625 -22.625 L 23.765625 -21.578125 L 24.15625 -20.890625 L 24.65625 -20.28125 L 24.984375 -19.71875 L 25.375 -19.140625 L 25.59375 -18.390625 L 25.84375 -17.75 L 26.0625 -16.953125 L 25.8125 -16.234375 L 25.203125 -15.953125 L 24.125 -15.84375 L 23.125 -15.953125 L 22.40625 -15.921875 L 21.65625 -15.953125 L 21 -15.875 L 20.1875 -16.265625 L 19.5 -16.953125 L 19.109375 -17.484375 L 18.0625 -18.53125 L 17.5625 -18.921875 L 16.921875 -19.171875 L 15.8125 -19.5 L 14.265625 -19.578125 L 11.859375 -19.25 L 10.890625 -18.703125 L 10.03125 -18.03125 L 9.171875 -17.03125 L 8.8125 -16.34375 L 8.28125 -15.046875 L 8.03125 -13.625 L 8.03125 -11.4375 L 8.140625 -10.640625 L 8.3125 -10 L 8.5625 -9.5 L 8.8125 -8.78125 L 9.609375 -7.53125 L 10.640625 -6.59375 L 11.90625 -5.953125 L 13.1875 -5.484375 L 14.234375 -5.375 L 16.125 -5.484375 L 17.390625 -6.171875 L 17.921875 -6.375 L 18.5 -6.875 L 19.3125 -7.8125 L 19.671875 -8.5 L 20.25 -9.0625 L 21.078125 -9.5 L 21.796875 -9.46875 L 22.515625 -9.5 L 23.234375 -9.390625 L 25.234375 -9.53125 L 25.953125 -9.0625 L 26.171875 -8.421875 L 25.234375 -5.703125 L 24.484375 -4.40625 L 23.65625 -3.328125 L 22.65625 -2.328125 L 20.890625 -1.078125 L 20.28125 -0.78125 L 19.53125 -0.53125 L 18.890625 -0.171875 L 16.78125 0.25 L 14.265625 0.4375 Z M 12.46875 0.28125 "/></g></g></g><g fill="#12123f" fill-opacity="1"><g transform="translate(150.069808, 65.272438)"><g><path d="M 14.375 0.46875 L 12.21875 0.359375 L 9.171875 -0.53125 L 8.5 -0.828125 L 6.0625 -2.109375 L 5.59375 -2.65625 L 4.59375 -3.625 L 2.90625 -5.921875 L 2.546875 -6.5625 L 2.328125 -7.3125 L 1.796875 -8.53125 L 1.390625 -10.78125 L 1.546875 -14.953125 L 1.828125 -16.484375 L 2.515625 -18.453125 L 2.828125 -19.0625 L 4.046875 -20.859375 L 5.015625 -21.9375 L 6.171875 -22.71875 L 6.671875 -23.15625 L 8.5 -24.296875 L 9.859375 -24.65625 L 10.5 -24.953125 L 11.21875 -25.15625 L 11.9375 -25.3125 L 14.4375 -25.453125 L 16.125 -25.40625 L 20.828125 -23.9375 L 22.65625 -22.796875 L 24.1875 -21.40625 L 24.65625 -20.75 L 25.09375 -20.328125 L 25.5625 -19.71875 L 25.8125 -19.0625 L 26.453125 -17.890625 L 26.625 -17.0625 L 26.921875 -16.3125 L 27.203125 -14.984375 L 27.390625 -12.515625 L 27.203125 -10 L 27.0625 -9.21875 L 26.84375 -8.640625 L 26.734375 -7.921875 L 26.484375 -7.234375 L 25.09375 -4.765625 L 24.625 -4.125 L 22.109375 -1.71875 L 18.921875 -0.28125 L 17.5625 0.140625 Z M 13.375 -5.84375 L 15.453125 -5.921875 L 16.125 -6.09375 L 16.78125 -6.171875 L 17.34375 -6.484375 L 18 -6.78125 L 19.109375 -7.640625 L 19.53125 -8.28125 L 19.859375 -8.8125 L 20.25 -9.359375 L 20.578125 -10.828125 L 20.796875 -12.609375 L 20.640625 -14.15625 L 20.390625 -14.796875 L 20.1875 -15.515625 L 19.890625 -16.171875 L 19.0625 -17.390625 L 17.953125 -18.203125 L 16.0625 -19.03125 L 14.34375 -19.140625 L 12.6875 -19 L 11.9375 -18.8125 L 11.296875 -18.5 L 10.25 -17.78125 L 9.71875 -17.3125 L 9.25 -16.734375 L 8.921875 -16.125 L 8.5 -15.625 L 8.28125 -14.984375 L 8.03125 -13.65625 L 8 -12.578125 L 8.171875 -10.78125 L 8.859375 -8.78125 L 9.3125 -8.28125 L 9.671875 -7.78125 L 10.78125 -6.8125 L 12 -6.171875 L 12.65625 -6.09375 Z M 13.375 -5.84375 "/></g></g></g><g fill="#12123f" fill-opacity="1"><g transform="translate(180.498623, 65.272438)"><g><path d="M 3.734375 0.109375 L 3.015625 -0.359375 L 2.609375 -1.109375 L 2.65625 -9.03125 L 2.578125 -9.71875 L 2.6875 -13.328125 L 2.609375 -14.046875 L 2.65625 -19.78125 L 2.578125 -20.4375 L 2.6875 -21.828125 L 2.578125 -24.015625 L 2.96875 -24.765625 L 3.765625 -25.125 L 4.765625 -24.84375 L 5.59375 -24.234375 L 6.53125 -23.265625 L 7.09375 -22.765625 L 8.03125 -21.65625 L 8.53125 -21.21875 L 11.796875 -17.59375 L 12.578125 -16.875 L 13.21875 -16.0625 L 13.734375 -15.5625 L 14.15625 -14.953125 L 14.90625 -14.65625 L 15.5625 -15.09375 L 17.75 -17.3125 L 18.203125 -17.921875 L 21.359375 -21.140625 L 21.859375 -21.796875 L 22.296875 -22.1875 L 22.765625 -22.765625 L 24.265625 -24.34375 L 25.015625 -24.796875 L 26.0625 -25.125 L 26.8125 -24.734375 L 27.234375 -23.984375 L 27.171875 -23.296875 L 27.203125 -21.828125 L 27.171875 -21.21875 L 27.234375 -19.671875 L 27.203125 -19 L 27.234375 -15.453125 L 27.171875 -14.65625 L 27.234375 -3.90625 L 27.171875 -3.1875 L 27.28125 -1.328125 L 26.84375 -0.28125 L 26.09375 0.109375 L 21.75 -0.03125 L 21 -0.25 L 20.71875 -1.078125 L 20.71875 -1.609375 L 20.640625 -3.21875 L 20.71875 -3.875 L 20.640625 -5.203125 L 20.71875 -6.59375 L 20.609375 -8.03125 L 20.6875 -10 L 20.390625 -10.53125 L 19.921875 -10.328125 L 18.453125 -8.8125 L 17.953125 -8.453125 L 16.953125 -7.28125 L 16.53125 -6.84375 L 16.015625 -6.3125 L 15.3125 -5.765625 L 14.515625 -5.8125 L 13.765625 -6.34375 L 12.796875 -7.28125 L 12.328125 -7.84375 L 10.859375 -9.3125 L 10.4375 -9.859375 L 9.859375 -10.328125 L 9.5 -10.46875 L 9.171875 -10.140625 L 9.171875 -8.75 L 9.25 -7.953125 L 9.171875 -6.671875 L 9.21875 -5.921875 L 9.109375 -4.796875 L 9.21875 -1.046875 L 8.78125 -0.390625 L 7.78125 0.03125 L 6.625 -0.03125 L 5.84375 0.078125 L 4.4375 0 Z M 3.734375 0.109375 "/></g></g></g><g fill="#12123f" fill-opacity="1"><g transform="translate(212.146025, 65.272438)"><g><path d="M 3.734375 0.109375 L 3.015625 -0.359375 L 2.609375 -1.109375 L 2.65625 -9.03125 L 2.578125 -9.71875 L 2.6875 -13.328125 L 2.609375 -14.046875 L 2.65625 -19.78125 L 2.578125 -20.4375 L 2.6875 -21.828125 L 2.578125 -24.015625 L 2.96875 -24.765625 L 3.765625 -25.125 L 4.765625 -24.84375 L 5.59375 -24.234375 L 6.53125 -23.265625 L 7.09375 -22.765625 L 8.03125 -21.65625 L 8.53125 -21.21875 L 11.796875 -17.59375 L 12.578125 -16.875 L 13.21875 -16.0625 L 13.734375 -15.5625 L 14.15625 -14.953125 L 14.90625 -14.65625 L 15.5625 -15.09375 L 17.75 -17.3125 L 18.203125 -17.921875 L 21.359375 -21.140625 L 21.859375 -21.796875 L 22.296875 -22.1875 L 22.765625 -22.765625 L 24.265625 -24.34375 L 25.015625 -24.796875 L 26.0625 -25.125 L 26.8125 -24.734375 L 27.234375 -23.984375 L 27.171875 -23.296875 L 27.203125 -21.828125 L 27.171875 -21.21875 L 27.234375 -19.671875 L 27.203125 -19 L 27.234375 -15.453125 L 27.171875 -14.65625 L 27.234375 -3.90625 L 27.171875 -3.1875 L 27.28125 -1.328125 L 26.84375 -0.28125 L 26.09375 0.109375 L 21.75 -0.03125 L 21 -0.25 L 20.71875 -1.078125 L 20.71875 -1.609375 L 20.640625 -3.21875 L 20.71875 -3.875 L 20.640625 -5.203125 L 20.71875 -6.59375 L 20.609375 -8.03125 L 20.6875 -10 L 20.390625 -10.53125 L 19.921875 -10.328125 L 18.453125 -8.8125 L 17.953125 -8.453125 L 16.953125 -7.28125 L 16.53125 -6.84375 L 16.015625 -6.3125 L 15.3125 -5.765625 L 14.515625 -5.8125 L 13.765625 -6.34375 L 12.796875 -7.28125 L 12.328125 -7.84375 L 10.859375 -9.3125 L 10.4375 -9.859375 L 9.859375 -10.328125 L 9.5 -10.46875 L 9.171875 -10.140625 L 9.171875 -8.75 L 9.25 -7.953125 L 9.171875 -6.671875 L 9.21875 -5.921875 L 9.109375 -4.796875 L 9.21875 -1.046875 L 8.78125 -0.390625 L 7.78125 0.03125 L 6.625 -0.03125 L 5.84375 0.078125 L 4.4375 0 Z M 3.734375 0.109375 "/></g></g></g><g fill="#12123f" fill-opacity="1"><g transform="translate(243.793427, 65.272438)"><g><path d="M 12.46875 0.109375 L 11.75 0.03125 L 11.046875 0.109375 L 10.21875 0.078125 L 9.53125 -0.078125 L 8.0625 0.03125 L 7.421875 0 L 6.625 0.078125 L 4.046875 0.03125 L 2.96875 -0.4375 L 2.6875 -1.390625 L 2.609375 -2.1875 L 2.71875 -4.65625 L 2.609375 -5.375 L 2.6875 -6.0625 L 2.71875 -11.859375 L 2.609375 -12.515625 L 2.65625 -15.453125 L 2.71875 -16.125 L 2.609375 -16.875 L 2.6875 -20.390625 L 2.578125 -21.1875 L 2.6875 -22.65625 L 2.609375 -24.015625 L 3.015625 -24.765625 L 3.765625 -25.0625 L 4.484375 -25.015625 L 5.203125 -25.09375 L 5.84375 -25.015625 L 6.53125 -25.15625 L 7.234375 -25.0625 L 10.171875 -25.125 L 10.890625 -25.0625 L 11.5 -25.09375 L 12.21875 -25.015625 L 13.015625 -25.09375 L 15.921875 -25.125 L 16.5625 -24.984375 L 17.3125 -24.984375 L 18.03125 -24.703125 L 18.359375 -24.015625 L 18.421875 -21.859375 L 18.390625 -21.140625 L 18.421875 -20.4375 L 18.0625 -19.78125 L 17.3125 -19.359375 L 16.625 -19.3125 L 11.5 -19.390625 L 10.828125 -19.25 L 10.140625 -19.28125 L 9.359375 -19 L 9.03125 -18.3125 L 9.03125 -17.203125 L 9.3125 -16.09375 L 10.078125 -15.765625 L 12.15625 -15.84375 L 13.65625 -15.734375 L 14.40625 -15.8125 L 16.53125 -15.8125 L 17.34375 -15.34375 L 17.703125 -14.34375 L 17.59375 -11.109375 L 17.34375 -10.390625 L 16.625 -10.109375 L 15.8125 -10.140625 L 15.09375 -10.078125 L 13.625 -10.109375 L 12.265625 -10.03125 L 11.109375 -10.140625 L 10.03125 -10.109375 L 9.390625 -9.71875 L 9.0625 -8.96875 L 9.0625 -6.703125 L 9.359375 -6.0625 L 10.109375 -5.703125 L 10.890625 -5.765625 L 11.578125 -5.65625 L 12.359375 -5.703125 L 13.078125 -5.625 L 14.265625 -5.765625 L 16.09375 -5.734375 L 16.78125 -5.625 L 17.59375 -5.703125 L 18.359375 -5.375 L 18.75 -4.65625 L 18.75 -1.046875 L 18.359375 -0.28125 L 17.59375 0.03125 Z M 12.46875 0.109375 "/></g></g></g><g fill="#12123f" fill-opacity="1"><g transform="translate(266.014706, 65.272438)"><g><path d="M 2.6875 -1.46875 L 2.6875 -6.78125 L 2.609375 -7.484375 L 2.65625 -10.390625 L 2.71875 -11.078125 L 2.65625 -11.75 L 2.65625 -12.46875 L 2.609375 -13.265625 L 2.71875 -14.703125 L 2.65625 -15.40625 L 2.609375 -23.625 L 3.046875 -24.625 L 3.6875 -24.984375 L 5.8125 -25.15625 L 6.59375 -25.125 L 7.3125 -24.984375 L 8.03125 -24.984375 L 8.671875 -25.15625 L 9.390625 -25.15625 L 10.109375 -25.015625 L 12.265625 -25.015625 L 13.296875 -25.09375 L 14.4375 -25.0625 L 16.484375 -24.59375 L 17.84375 -24.125 L 19.109375 -23.4375 L 21.140625 -21.296875 L 21.546875 -20.71875 L 21.828125 -20.109375 L 22.46875 -18.0625 L 22.578125 -17.34375 L 22.65625 -15.09375 L 22.1875 -13.015625 L 20.796875 -10.5 L 20.28125 -10.078125 L 19.78125 -9.53125 L 19.46875 -8.75 L 19.5 -7.890625 L 19.921875 -7.34375 L 21.078125 -5.484375 L 21.40625 -4.84375 L 22.625 -3.015625 L 22.90625 -2.328125 L 23.328125 -1.828125 L 23.734375 -1.046875 L 23.515625 -0.25 L 22.828125 0.078125 L 21.65625 0.109375 L 20.96875 0.03125 L 18.140625 0.078125 L 16.921875 -0.25 L 16.125 -0.890625 L 15.734375 -1.5 L 15.453125 -2.21875 L 15.046875 -2.765625 L 14.375 -4.046875 L 13.625 -5.125 L 13.328125 -5.765625 L 12.90625 -6.484375 L 12.1875 -7.09375 L 10.109375 -7.390625 L 9.421875 -6.984375 L 9.109375 -6.265625 L 9.03125 -3.984375 L 9.140625 -3.21875 L 9.0625 -2.578125 L 9.0625 -1.359375 L 8.75 -0.328125 L 7.59375 0.03125 L 6.53125 0.03125 L 5.953125 0.109375 L 4.796875 0 L 4.09375 0.109375 L 3.046875 -0.359375 Z M 10.109375 -13.125 L 10.890625 -13.1875 L 12.609375 -13.125 L 13.296875 -13.15625 L 14.34375 -13.40625 L 14.984375 -13.6875 L 15.375 -14.015625 L 15.765625 -14.546875 L 16.09375 -15.265625 L 16.203125 -16.34375 L 16.0625 -17.28125 L 15.84375 -17.84375 L 14.953125 -18.96875 L 14.265625 -19.140625 L 13.328125 -19.21875 L 12.328125 -19.421875 L 10.890625 -19.28125 L 10.171875 -19.3125 L 9.421875 -19.03125 L 9.109375 -18.359375 L 9.03125 -16.84375 L 9.109375 -16.234375 L 9.109375 -14.09375 L 9.390625 -13.515625 Z M 10.109375 -13.125 "/></g></g></g><g fill="#12123f" fill-opacity="1"><g transform="translate(292.57272, 65.272438)"><g><path d="M 12.46875 0.28125 L 11.796875 0.25 L 11.140625 0.109375 L 10.4375 -0.140625 L 9.78125 -0.28125 L 8.171875 -0.96875 L 6.625 -1.796875 L 5.015625 -3.1875 L 3.546875 -4.765625 L 2 -7.890625 L 1.5 -9.921875 L 1.296875 -12.546875 L 1.65625 -15.625 L 2 -17.09375 L 2.90625 -19.109375 L 3.578125 -20.140625 L 4.546875 -21.359375 L 6.09375 -22.765625 L 7.140625 -23.546875 L 9.78125 -24.796875 L 13.265625 -25.484375 L 15.484375 -25.453125 L 16.203125 -25.34375 L 16.875 -25.3125 L 20.328125 -24.15625 L 22.765625 -22.625 L 23.765625 -21.578125 L 24.15625 -20.890625 L 24.65625 -20.28125 L 24.984375 -19.71875 L 25.375 -19.140625 L 25.59375 -18.390625 L 25.84375 -17.75 L 26.0625 -16.953125 L 25.8125 -16.234375 L 25.203125 -15.953125 L 24.125 -15.84375 L 23.125 -15.953125 L 22.40625 -15.921875 L 21.65625 -15.953125 L 21 -15.875 L 20.1875 -16.265625 L 19.5 -16.953125 L 19.109375 -17.484375 L 18.0625 -18.53125 L 17.5625 -18.921875 L 16.921875 -19.171875 L 15.8125 -19.5 L 14.265625 -19.578125 L 11.859375 -19.25 L 10.890625 -18.703125 L 10.03125 -18.03125 L 9.171875 -17.03125 L 8.8125 -16.34375 L 8.28125 -15.046875 L 8.03125 -13.625 L 8.03125 -11.4375 L 8.140625 -10.640625 L 8.3125 -10 L 8.5625 -9.5 L 8.8125 -8.78125 L 9.609375 -7.53125 L 10.640625 -6.59375 L 11.90625 -5.953125 L 13.1875 -5.484375 L 14.234375 -5.375 L 16.125 -5.484375 L 17.390625 -6.171875 L 17.921875 -6.375 L 18.5 -6.875 L 19.3125 -7.8125 L 19.671875 -8.5 L 20.25 -9.0625 L 21.078125 -9.5 L 21.796875 -9.46875 L 22.515625 -9.5 L 23.234375 -9.390625 L 25.234375 -9.53125 L 25.953125 -9.0625 L 26.171875 -8.421875 L 25.234375 -5.703125 L 24.484375 -4.40625 L 23.65625 -3.328125 L 22.65625 -2.328125 L 20.890625 -1.078125 L 20.28125 -0.78125 L 19.53125 -0.53125 L 18.890625 -0.171875 L 16.78125 0.25 L 14.265625 0.4375 Z M 12.46875 0.28125 "/></g></g></g><g fill="#12123f" fill-opacity="1"><g transform="translate(321.603741, 65.272438)"><g><path d="M 12.46875 0.109375 L 11.75 0.03125 L 11.046875 0.109375 L 10.21875 0.078125 L 9.53125 -0.078125 L 8.0625 0.03125 L 7.421875 0 L 6.625 0.078125 L 4.046875 0.03125 L 2.96875 -0.4375 L 2.6875 -1.390625 L 2.609375 -2.1875 L 2.71875 -4.65625 L 2.609375 -5.375 L 2.6875 -6.0625 L 2.71875 -11.859375 L 2.609375 -12.515625 L 2.65625 -15.453125 L 2.71875 -16.125 L 2.609375 -16.875 L 2.6875 -20.390625 L 2.578125 -21.1875 L 2.6875 -22.65625 L 2.609375 -24.015625 L 3.015625 -24.765625 L 3.765625 -25.0625 L 4.484375 -25.015625 L 5.203125 -25.09375 L 5.84375 -25.015625 L 6.53125 -25.15625 L 7.234375 -25.0625 L 10.171875 -25.125 L 10.890625 -25.0625 L 11.5 -25.09375 L 12.21875 -25.015625 L 13.015625 -25.09375 L 15.921875 -25.125 L 16.5625 -24.984375 L 17.3125 -24.984375 L 18.03125 -24.703125 L 18.359375 -24.015625 L 18.421875 -21.859375 L 18.390625 -21.140625 L 18.421875 -20.4375 L 18.0625 -19.78125 L 17.3125 -19.359375 L 16.625 -19.3125 L 11.5 -19.390625 L 10.828125 -19.25 L 10.140625 -19.28125 L 9.359375 -19 L 9.03125 -18.3125 L 9.03125 -17.203125 L 9.3125 -16.09375 L 10.078125 -15.765625 L 12.15625 -15.84375 L 13.65625 -15.734375 L 14.40625 -15.8125 L 16.53125 -15.8125 L 17.34375 -15.34375 L 17.703125 -14.34375 L 17.59375 -11.109375 L 17.34375 -10.390625 L 16.625 -10.109375 L 15.8125 -10.140625 L 15.09375 -10.078125 L 13.625 -10.109375 L 12.265625 -10.03125 L 11.109375 -10.140625 L 10.03125 -10.109375 L 9.390625 -9.71875 L 9.0625 -8.96875 L 9.0625 -6.703125 L 9.359375 -6.0625 L 10.109375 -5.703125 L 10.890625 -5.765625 L 11.578125 -5.65625 L 12.359375 -5.703125 L 13.078125 -5.625 L 14.265625 -5.765625 L 16.09375 -5.734375 L 16.78125 -5.625 L 17.59375 -5.703125 L 18.359375 -5.375 L 18.75 -4.65625 L 18.75 -1.046875 L 18.359375 -0.28125 L 17.59375 0.03125 Z M 12.46875 0.109375 "/></g></g></g><g clip-path="url(#78bb32dc57)"><path fill="#231f20" d="M 229.855469 72.550781 L 228.277344 69.667969 L 226.707031 72.550781 L 223.863281 74.152344 L 226.707031 75.746094 L 228.277344 78.628906 L 229.855469 75.746094 L 232.695312 74.152344 Z M 229.855469 72.550781 " fill-opacity="1" fill-rule="nonzero"/></g><path fill="#231f20" d="M 217.535156 72.476562 L 122.394531 74.304688 L 217.550781 75.824219 C 219.132812 75.847656 220.433594 75.09375 220.433594 74.152344 C 220.433594 73.203125 219.121094 72.449219 217.535156 72.476562 Z M 217.535156 72.476562 " fill-opacity="1" fill-rule="nonzero"/><path fill="#231f20" d="M 238.824219 72.476562 C 237.242188 72.453125 235.941406 73.207031 235.941406 74.148438 C 235.941406 75.09375 237.253906 75.851562 238.839844 75.820312 L 333.980469 73.988281 Z M 238.824219 72.476562 " fill-opacity="1" fill-rule="nonzero"/><g fill="#12123f" fill-opacity="1"><g transform="translate(121.038787, 91.841808)"><g><path d="M 12.609375 0 C 12.648438 -0.382812 12.679688 -0.867188 12.703125 -1.453125 C 12.722656 -2.046875 12.738281 -2.691406 12.75 -3.390625 C 12.757812 -4.097656 12.765625 -4.816406 12.765625 -5.546875 C 12.765625 -6.285156 12.757812 -6.988281 12.75 -7.65625 C 11.625 -5.113281 10.59375 -2.546875 9.65625 0.046875 L 7.0625 0.046875 C 6.613281 -1.253906 6.128906 -2.546875 5.609375 -3.828125 C 5.097656 -5.109375 4.554688 -6.375 3.984375 -7.625 C 3.972656 -6.96875 3.96875 -6.269531 3.96875 -5.53125 C 3.976562 -4.800781 3.988281 -4.082031 4 -3.375 C 4.019531 -2.664062 4.039062 -2.015625 4.0625 -1.421875 C 4.09375 -0.835938 4.128906 -0.363281 4.171875 0 L 1.109375 0 C 1.148438 -0.476562 1.179688 -1.066406 1.203125 -1.765625 C 1.234375 -2.460938 1.253906 -3.210938 1.265625 -4.015625 C 1.273438 -4.816406 1.273438 -5.617188 1.265625 -6.421875 C 1.253906 -7.234375 1.238281 -7.988281 1.21875 -8.6875 C 1.195312 -9.382812 1.160156 -9.972656 1.109375 -10.453125 C 1.378906 -10.410156 1.707031 -10.378906 2.09375 -10.359375 C 2.488281 -10.335938 2.894531 -10.328125 3.3125 -10.328125 C 3.738281 -10.328125 4.140625 -10.335938 4.515625 -10.359375 C 4.898438 -10.378906 5.21875 -10.410156 5.46875 -10.453125 C 6.320312 -7.804688 7.289062 -5.226562 8.375 -2.71875 C 8.945312 -3.976562 9.484375 -5.25 9.984375 -6.53125 C 10.492188 -7.820312 10.972656 -9.128906 11.421875 -10.453125 C 11.679688 -10.410156 12 -10.378906 12.375 -10.359375 C 12.757812 -10.335938 13.15625 -10.328125 13.5625 -10.328125 C 13.976562 -10.328125 14.375 -10.335938 14.75 -10.359375 C 15.125 -10.378906 15.441406 -10.410156 15.703125 -10.453125 C 15.671875 -9.972656 15.640625 -9.378906 15.609375 -8.671875 C 15.585938 -7.972656 15.570312 -7.222656 15.5625 -6.421875 C 15.550781 -5.617188 15.550781 -4.8125 15.5625 -4 C 15.582031 -3.195312 15.601562 -2.445312 15.625 -1.75 C 15.65625 -1.050781 15.695312 -0.46875 15.75 0 Z M 12.609375 0 "/></g></g></g><g fill="#12123f" fill-opacity="1"><g transform="translate(144.724079, 91.841808)"><g><path d="M 7.6875 0.234375 C 6.195312 0.234375 4.921875 0.0195312 3.859375 -0.40625 C 2.796875 -0.84375 1.976562 -1.472656 1.40625 -2.296875 C 0.84375 -3.117188 0.5625 -4.101562 0.5625 -5.25 C 0.5625 -6.414062 0.84375 -7.40625 1.40625 -8.21875 C 1.976562 -9.039062 2.796875 -9.664062 3.859375 -10.09375 C 4.921875 -10.53125 6.195312 -10.75 7.6875 -10.75 C 9.1875 -10.75 10.46875 -10.53125 11.53125 -10.09375 C 12.59375 -9.664062 13.40625 -9.039062 13.96875 -8.21875 C 14.53125 -7.40625 14.8125 -6.414062 14.8125 -5.25 C 14.8125 -4.101562 14.53125 -3.117188 13.96875 -2.296875 C 13.40625 -1.472656 12.59375 -0.84375 11.53125 -0.40625 C 10.46875 0.0195312 9.1875 0.234375 7.6875 0.234375 Z M 7.6875 -1.609375 C 9.019531 -1.609375 10.054688 -1.921875 10.796875 -2.546875 C 11.546875 -3.179688 11.921875 -4.0625 11.921875 -5.1875 C 11.921875 -6.34375 11.546875 -7.242188 10.796875 -7.890625 C 10.054688 -8.546875 9.019531 -8.875 7.6875 -8.875 C 6.34375 -8.875 5.304688 -8.546875 4.578125 -7.890625 C 3.847656 -7.242188 3.484375 -6.34375 3.484375 -5.1875 C 3.484375 -4.0625 3.847656 -3.179688 4.578125 -2.546875 C 5.304688 -1.921875 6.34375 -1.609375 7.6875 -1.609375 Z M 7.6875 -1.609375 "/></g></g></g><g fill="#12123f" fill-opacity="1"><g transform="translate(166.918834, 91.841808)"><g><path d="M 1.109375 0 C 1.148438 -0.476562 1.179688 -1.066406 1.203125 -1.765625 C 1.234375 -2.460938 1.253906 -3.210938 1.265625 -4.015625 C 1.273438 -4.816406 1.273438 -5.617188 1.265625 -6.421875 C 1.253906 -7.234375 1.238281 -7.988281 1.21875 -8.6875 C 1.195312 -9.382812 1.160156 -9.972656 1.109375 -10.453125 C 1.742188 -10.441406 2.3125 -10.4375 2.8125 -10.4375 C 3.320312 -10.4375 3.804688 -10.441406 4.265625 -10.453125 C 4.734375 -10.472656 5.207031 -10.488281 5.6875 -10.5 C 6.175781 -10.507812 6.710938 -10.515625 7.296875 -10.515625 C 9.347656 -10.515625 10.851562 -10.257812 11.8125 -9.75 C 12.78125 -9.238281 13.265625 -8.460938 13.265625 -7.421875 C 13.265625 -6.910156 13.15625 -6.472656 12.9375 -6.109375 C 12.726562 -5.753906 12.445312 -5.457031 12.09375 -5.21875 C 11.75 -4.976562 11.378906 -4.789062 10.984375 -4.65625 C 10.585938 -4.519531 10.207031 -4.425781 9.84375 -4.375 C 9.476562 -4.332031 9.164062 -4.3125 8.90625 -4.3125 L 8.90625 -4.078125 C 9.632812 -3.941406 10.269531 -3.707031 10.8125 -3.375 C 11.351562 -3.050781 11.816406 -2.675781 12.203125 -2.25 C 12.585938 -1.832031 12.898438 -1.421875 13.140625 -1.015625 C 13.390625 -0.617188 13.582031 -0.28125 13.71875 0 L 9.71875 0 C 9.632812 -0.84375 9.441406 -1.523438 9.140625 -2.046875 C 8.847656 -2.578125 8.421875 -2.976562 7.859375 -3.25 C 7.296875 -3.53125 6.566406 -3.710938 5.671875 -3.796875 C 5.441406 -3.816406 5.191406 -3.832031 4.921875 -3.84375 C 4.660156 -3.851562 4.382812 -3.859375 4.09375 -3.859375 C 4.113281 -3.191406 4.128906 -2.628906 4.140625 -2.171875 C 4.160156 -1.722656 4.179688 -1.332031 4.203125 -1 C 4.222656 -0.664062 4.25 -0.332031 4.28125 0 Z M 4.078125 -5.59375 C 4.492188 -5.570312 4.953125 -5.546875 5.453125 -5.515625 C 5.953125 -5.484375 6.488281 -5.46875 7.0625 -5.46875 C 8.082031 -5.46875 8.859375 -5.597656 9.390625 -5.859375 C 9.929688 -6.128906 10.203125 -6.550781 10.203125 -7.125 C 10.203125 -7.675781 9.925781 -8.066406 9.375 -8.296875 C 8.832031 -8.523438 8.101562 -8.640625 7.1875 -8.640625 C 6.582031 -8.640625 5.992188 -8.628906 5.421875 -8.609375 C 4.859375 -8.585938 4.429688 -8.578125 4.140625 -8.578125 C 4.117188 -8.128906 4.101562 -7.65625 4.09375 -7.15625 C 4.082031 -6.664062 4.078125 -6.144531 4.078125 -5.59375 Z M 4.078125 -5.59375 "/></g></g></g><g fill="#12123f" fill-opacity="1"><g transform="translate(187.873787, 91.841808)"><g><path d="M 1.109375 0 C 1.148438 -0.476562 1.179688 -1.066406 1.203125 -1.765625 C 1.234375 -2.460938 1.253906 -3.210938 1.265625 -4.015625 C 1.273438 -4.816406 1.273438 -5.617188 1.265625 -6.421875 C 1.253906 -7.234375 1.238281 -7.988281 1.21875 -8.6875 C 1.195312 -9.382812 1.160156 -9.972656 1.109375 -10.453125 C 1.296875 -10.421875 1.601562 -10.394531 2.03125 -10.375 C 2.46875 -10.351562 2.976562 -10.332031 3.5625 -10.3125 C 4.15625 -10.300781 4.789062 -10.289062 5.46875 -10.28125 C 6.15625 -10.269531 6.847656 -10.265625 7.546875 -10.265625 C 8.253906 -10.265625 8.9375 -10.265625 9.59375 -10.265625 C 10.25 -10.273438 10.84375 -10.289062 11.375 -10.3125 C 11.914062 -10.34375 12.359375 -10.375 12.703125 -10.40625 C 12.617188 -9.570312 12.617188 -8.734375 12.703125 -7.890625 C 12.359375 -7.984375 11.925781 -8.066406 11.40625 -8.140625 C 10.894531 -8.210938 10.328125 -8.28125 9.703125 -8.34375 C 9.078125 -8.40625 8.429688 -8.453125 7.765625 -8.484375 C 7.109375 -8.523438 6.472656 -8.550781 5.859375 -8.5625 C 5.242188 -8.582031 4.679688 -8.585938 4.171875 -8.578125 C 4.117188 -7.722656 4.101562 -6.867188 4.125 -6.015625 C 4.769531 -6.003906 5.445312 -6 6.15625 -6 C 6.863281 -6.007812 7.5625 -6.023438 8.25 -6.046875 C 8.945312 -6.078125 9.59375 -6.109375 10.1875 -6.140625 C 10.789062 -6.179688 11.300781 -6.222656 11.71875 -6.265625 C 11.644531 -5.566406 11.644531 -4.867188 11.71875 -4.171875 C 11.300781 -4.203125 10.789062 -4.234375 10.1875 -4.265625 C 9.59375 -4.296875 8.945312 -4.320312 8.25 -4.34375 C 7.5625 -4.363281 6.863281 -4.375 6.15625 -4.375 C 5.445312 -4.382812 4.769531 -4.378906 4.125 -4.359375 C 4.125 -3.941406 4.128906 -3.523438 4.140625 -3.109375 C 4.148438 -2.703125 4.164062 -2.289062 4.1875 -1.875 C 4.707031 -1.863281 5.273438 -1.863281 5.890625 -1.875 C 6.515625 -1.894531 7.15625 -1.921875 7.8125 -1.953125 C 8.46875 -1.992188 9.101562 -2.046875 9.71875 -2.109375 C 10.34375 -2.171875 10.910156 -2.238281 11.421875 -2.3125 C 11.929688 -2.382812 12.359375 -2.46875 12.703125 -2.5625 C 12.617188 -1.707031 12.617188 -0.851562 12.703125 0 Z M 1.109375 0 "/></g></g></g><g fill="#12123f" fill-opacity="1"><g transform="translate(208.160093, 91.841808)"><g/></g></g><g fill="#12123f" fill-opacity="1"><g transform="translate(219.168835, 91.841808)"><g><path d="M 7.140625 -10.515625 C 8.515625 -10.515625 9.632812 -10.398438 10.5 -10.171875 C 11.375 -9.953125 12.019531 -9.582031 12.4375 -9.0625 C 12.863281 -8.550781 13.078125 -7.84375 13.078125 -6.9375 C 13.078125 -6.382812 12.984375 -5.875 12.796875 -5.40625 C 12.617188 -4.945312 12.3125 -4.550781 11.875 -4.21875 C 11.445312 -3.894531 10.867188 -3.640625 10.140625 -3.453125 C 9.421875 -3.273438 8.515625 -3.1875 7.421875 -3.1875 L 4.0625 -3.1875 C 4.09375 -2.5625 4.125 -1.96875 4.15625 -1.40625 C 4.195312 -0.851562 4.253906 -0.382812 4.328125 0 L 1.109375 0 C 1.148438 -0.476562 1.179688 -1.066406 1.203125 -1.765625 C 1.234375 -2.460938 1.253906 -3.210938 1.265625 -4.015625 C 1.273438 -4.816406 1.273438 -5.617188 1.265625 -6.421875 C 1.253906 -7.234375 1.238281 -7.988281 1.21875 -8.6875 C 1.195312 -9.382812 1.160156 -9.972656 1.109375 -10.453125 C 1.765625 -10.441406 2.335938 -10.4375 2.828125 -10.4375 C 3.328125 -10.4375 3.796875 -10.441406 4.234375 -10.453125 C 4.679688 -10.472656 5.132812 -10.488281 5.59375 -10.5 C 6.050781 -10.507812 6.566406 -10.515625 7.140625 -10.515625 Z M 6.640625 -4.84375 C 7.878906 -4.84375 8.769531 -5.007812 9.3125 -5.34375 C 9.863281 -5.675781 10.140625 -6.15625 10.140625 -6.78125 C 10.140625 -7.488281 9.847656 -7.972656 9.265625 -8.234375 C 8.691406 -8.503906 7.785156 -8.640625 6.546875 -8.640625 C 6.203125 -8.640625 5.789062 -8.628906 5.3125 -8.609375 C 4.84375 -8.585938 4.425781 -8.578125 4.0625 -8.578125 C 4.0625 -8.035156 4.054688 -7.445312 4.046875 -6.8125 C 4.035156 -6.1875 4.035156 -5.554688 4.046875 -4.921875 C 4.484375 -4.910156 4.914062 -4.894531 5.34375 -4.875 C 5.78125 -4.851562 6.210938 -4.84375 6.640625 -4.84375 Z M 6.640625 -4.84375 "/></g></g></g><g fill="#12123f" fill-opacity="1"><g transform="translate(239.552658, 91.841808)"><g><path d="M 1.109375 0 C 1.148438 -0.476562 1.179688 -1.066406 1.203125 -1.765625 C 1.234375 -2.460938 1.253906 -3.210938 1.265625 -4.015625 C 1.273438 -4.816406 1.273438 -5.617188 1.265625 -6.421875 C 1.253906 -7.234375 1.238281 -7.988281 1.21875 -8.6875 C 1.195312 -9.382812 1.160156 -9.972656 1.109375 -10.453125 C 1.742188 -10.441406 2.3125 -10.4375 2.8125 -10.4375 C 3.320312 -10.4375 3.804688 -10.441406 4.265625 -10.453125 C 4.734375 -10.472656 5.207031 -10.488281 5.6875 -10.5 C 6.175781 -10.507812 6.710938 -10.515625 7.296875 -10.515625 C 9.347656 -10.515625 10.851562 -10.257812 11.8125 -9.75 C 12.78125 -9.238281 13.265625 -8.460938 13.265625 -7.421875 C 13.265625 -6.910156 13.15625 -6.472656 12.9375 -6.109375 C 12.726562 -5.753906 12.445312 -5.457031 12.09375 -5.21875 C 11.75 -4.976562 11.378906 -4.789062 10.984375 -4.65625 C 10.585938 -4.519531 10.207031 -4.425781 9.84375 -4.375 C 9.476562 -4.332031 9.164062 -4.3125 8.90625 -4.3125 L 8.90625 -4.078125 C 9.632812 -3.941406 10.269531 -3.707031 10.8125 -3.375 C 11.351562 -3.050781 11.816406 -2.675781 12.203125 -2.25 C 12.585938 -1.832031 12.898438 -1.421875 13.140625 -1.015625 C 13.390625 -0.617188 13.582031 -0.28125 13.71875 0 L 9.71875 0 C 9.632812 -0.84375 9.441406 -1.523438 9.140625 -2.046875 C 8.847656 -2.578125 8.421875 -2.976562 7.859375 -3.25 C 7.296875 -3.53125 6.566406 -3.710938 5.671875 -3.796875 C 5.441406 -3.816406 5.191406 -3.832031 4.921875 -3.84375 C 4.660156 -3.851562 4.382812 -3.859375 4.09375 -3.859375 C 4.113281 -3.191406 4.128906 -2.628906 4.140625 -2.171875 C 4.160156 -1.722656 4.179688 -1.332031 4.203125 -1 C 4.222656 -0.664062 4.25 -0.332031 4.28125 0 Z M 4.078125 -5.59375 C 4.492188 -5.570312 4.953125 -5.546875 5.453125 -5.515625 C 5.953125 -5.484375 6.488281 -5.46875 7.0625 -5.46875 C 8.082031 -5.46875 8.859375 -5.597656 9.390625 -5.859375 C 9.929688 -6.128906 10.203125 -6.550781 10.203125 -7.125 C 10.203125 -7.675781 9.925781 -8.066406 9.375 -8.296875 C 8.832031 -8.523438 8.101562 -8.640625 7.1875 -8.640625 C 6.582031 -8.640625 5.992188 -8.628906 5.421875 -8.609375 C 4.859375 -8.585938 4.429688 -8.578125 4.140625 -8.578125 C 4.117188 -8.128906 4.101562 -7.65625 4.09375 -7.15625 C 4.082031 -6.664062 4.078125 -6.144531 4.078125 -5.59375 Z M 4.078125 -5.59375 "/></g></g></g><g fill="#12123f" fill-opacity="1"><g transform="translate(260.507611, 91.841808)"><g><path d="M 7.6875 0.234375 C 6.195312 0.234375 4.921875 0.0195312 3.859375 -0.40625 C 2.796875 -0.84375 1.976562 -1.472656 1.40625 -2.296875 C 0.84375 -3.117188 0.5625 -4.101562 0.5625 -5.25 C 0.5625 -6.414062 0.84375 -7.40625 1.40625 -8.21875 C 1.976562 -9.039062 2.796875 -9.664062 3.859375 -10.09375 C 4.921875 -10.53125 6.195312 -10.75 7.6875 -10.75 C 9.1875 -10.75 10.46875 -10.53125 11.53125 -10.09375 C 12.59375 -9.664062 13.40625 -9.039062 13.96875 -8.21875 C 14.53125 -7.40625 14.8125 -6.414062 14.8125 -5.25 C 14.8125 -4.101562 14.53125 -3.117188 13.96875 -2.296875 C 13.40625 -1.472656 12.59375 -0.84375 11.53125 -0.40625 C 10.46875 0.0195312 9.1875 0.234375 7.6875 0.234375 Z M 7.6875 -1.609375 C 9.019531 -1.609375 10.054688 -1.921875 10.796875 -2.546875 C 11.546875 -3.179688 11.921875 -4.0625 11.921875 -5.1875 C 11.921875 -6.34375 11.546875 -7.242188 10.796875 -7.890625 C 10.054688 -8.546875 9.019531 -8.875 7.6875 -8.875 C 6.34375 -8.875 5.304688 -8.546875 4.578125 -7.890625 C 3.847656 -7.242188 3.484375 -6.34375 3.484375 -5.1875 C 3.484375 -4.0625 3.847656 -3.179688 4.578125 -2.546875 C 5.304688 -1.921875 6.34375 -1.609375 7.6875 -1.609375 Z M 7.6875 -1.609375 "/></g></g></g><g fill="#12123f" fill-opacity="1"><g transform="translate(282.702366, 91.841808)"><g><path d="M 1.109375 0 C 1.148438 -0.476562 1.179688 -1.066406 1.203125 -1.765625 C 1.234375 -2.460938 1.253906 -3.210938 1.265625 -4.015625 C 1.273438 -4.816406 1.273438 -5.617188 1.265625 -6.421875 C 1.253906 -7.234375 1.238281 -7.988281 1.21875 -8.6875 C 1.195312 -9.382812 1.160156 -9.972656 1.109375 -10.453125 C 1.316406 -10.421875 1.671875 -10.390625 2.171875 -10.359375 C 2.671875 -10.335938 3.257812 -10.316406 3.9375 -10.296875 C 4.625 -10.285156 5.351562 -10.273438 6.125 -10.265625 C 6.894531 -10.265625 7.648438 -10.265625 8.390625 -10.265625 C 9.140625 -10.273438 9.828125 -10.289062 10.453125 -10.3125 C 11.085938 -10.34375 11.601562 -10.375 12 -10.40625 C 11.925781 -9.570312 11.925781 -8.734375 12 -7.890625 C 11.582031 -8.003906 11.050781 -8.101562 10.40625 -8.1875 C 9.757812 -8.28125 9.066406 -8.359375 8.328125 -8.421875 C 7.585938 -8.484375 6.851562 -8.523438 6.125 -8.546875 C 5.40625 -8.578125 4.753906 -8.585938 4.171875 -8.578125 C 4.140625 -8.085938 4.125 -7.59375 4.125 -7.09375 C 4.125 -6.59375 4.128906 -6.097656 4.140625 -5.609375 C 4.921875 -5.585938 5.734375 -5.582031 6.578125 -5.59375 C 7.429688 -5.613281 8.242188 -5.644531 9.015625 -5.6875 C 9.796875 -5.738281 10.46875 -5.789062 11.03125 -5.84375 C 10.945312 -5.144531 10.945312 -4.445312 11.03125 -3.75 C 10.46875 -3.789062 9.796875 -3.832031 9.015625 -3.875 C 8.234375 -3.914062 7.414062 -3.941406 6.5625 -3.953125 C 5.71875 -3.972656 4.910156 -3.96875 4.140625 -3.9375 C 4.140625 -3.289062 4.15625 -2.632812 4.1875 -1.96875 C 4.21875 -1.3125 4.289062 -0.65625 4.40625 0 Z M 1.109375 0 "/></g></g></g><g fill="#12123f" fill-opacity="1"><g transform="translate(301.874244, 91.841808)"><g><path d="M 1.109375 0 C 1.148438 -0.476562 1.179688 -1.066406 1.203125 -1.765625 C 1.234375 -2.460938 1.253906 -3.210938 1.265625 -4.015625 C 1.273438 -4.816406 1.273438 -5.617188 1.265625 -6.421875 C 1.253906 -7.234375 1.238281 -7.988281 1.21875 -8.6875 C 1.195312 -9.382812 1.160156 -9.972656 1.109375 -10.453125 C 1.660156 -10.367188 2.195312 -10.320312 2.71875 -10.3125 C 3.25 -10.3125 3.769531 -10.359375 4.28125 -10.453125 C 4.238281 -9.972656 4.207031 -9.378906 4.1875 -8.671875 C 4.164062 -7.972656 4.148438 -7.222656 4.140625 -6.421875 C 4.128906 -5.617188 4.128906 -4.8125 4.140625 -4 C 4.160156 -3.195312 4.179688 -2.445312 4.203125 -1.75 C 4.234375 -1.050781 4.273438 -0.46875 4.328125 0 Z M 1.109375 0 "/></g></g></g><g fill="#12123f" fill-opacity="1"><g transform="translate(314.136722, 91.841808)"><g><path d="M 4.765625 0 C 4.816406 -0.46875 4.851562 -1.046875 4.875 -1.734375 C 4.894531 -2.429688 4.90625 -3.175781 4.90625 -3.96875 C 4.914062 -4.757812 4.914062 -5.550781 4.90625 -6.34375 C 4.90625 -7.144531 4.890625 -7.890625 4.859375 -8.578125 C 3.816406 -8.566406 2.925781 -8.519531 2.1875 -8.4375 C 1.445312 -8.363281 0.738281 -8.253906 0.0625 -8.109375 C 0.207031 -8.890625 0.207031 -9.671875 0.0625 -10.453125 C 1.257812 -10.410156 2.367188 -10.382812 3.390625 -10.375 C 4.410156 -10.363281 5.398438 -10.359375 6.359375 -10.359375 C 7.328125 -10.359375 8.320312 -10.363281 9.34375 -10.375 C 10.375 -10.382812 11.484375 -10.410156 12.671875 -10.453125 C 12.523438 -9.671875 12.523438 -8.890625 12.671875 -8.109375 C 11.992188 -8.253906 11.28125 -8.363281 10.53125 -8.4375 C 9.78125 -8.519531 8.878906 -8.566406 7.828125 -8.578125 C 7.816406 -7.890625 7.804688 -7.144531 7.796875 -6.34375 C 7.796875 -5.550781 7.796875 -4.757812 7.796875 -3.96875 C 7.804688 -3.175781 7.828125 -2.429688 7.859375 -1.734375 C 7.890625 -1.046875 7.925781 -0.46875 7.96875 0 Z M 4.765625 0 "/></g></g></g><g fill="#12123f" fill-opacity="1"><g transform="translate(333.698643, 91.841808)"><g><path d="M 2 0.171875 C 0.988281 0.171875 0.484375 -0.203125 0.484375 -0.953125 C 0.484375 -1.691406 0.988281 -2.0625 2 -2.0625 C 3.019531 -2.0625 3.53125 -1.691406 3.53125 -0.953125 C 3.53125 -0.203125 3.019531 0.171875 2 0.171875 Z M 2 0.171875 "/></g></g></g><g fill="#12123f" fill-opacity="1"><g transform="translate(344.541523, 91.841808)"><g/></g></g><g fill="#12123f" fill-opacity="1"><g transform="translate(121.038787, 108.268798)"><g><path d="M 1.109375 0 C 1.253906 -3.476562 1.253906 -6.960938 1.109375 -10.453125 C 1.660156 -10.367188 2.207031 -10.320312 2.75 -10.3125 C 3.289062 -10.3125 3.800781 -10.359375 4.28125 -10.453125 C 4.25 -10.128906 4.222656 -9.695312 4.203125 -9.15625 C 4.179688 -8.625 4.160156 -8.035156 4.140625 -7.390625 C 4.128906 -6.742188 4.125 -6.082031 4.125 -5.40625 C 4.125 -4.726562 4.128906 -4.078125 4.140625 -3.453125 C 4.148438 -2.835938 4.164062 -2.300781 4.1875 -1.84375 C 4.539062 -1.84375 5 -1.851562 5.5625 -1.875 C 6.132812 -1.894531 6.75 -1.921875 7.40625 -1.953125 C 8.070312 -1.992188 8.734375 -2.039062 9.390625 -2.09375 C 10.046875 -2.15625 10.644531 -2.21875 11.1875 -2.28125 C 11.738281 -2.351562 12.171875 -2.429688 12.484375 -2.515625 C 12.453125 -1.992188 12.4375 -1.546875 12.4375 -1.171875 C 12.4375 -0.804688 12.453125 -0.414062 12.484375 0 Z M 1.109375 0 "/></g></g></g><g fill="#12123f" fill-opacity="1"><g transform="translate(140.976841, 108.268798)"><g><path d="M 1.109375 0 C 1.148438 -0.476562 1.179688 -1.066406 1.203125 -1.765625 C 1.234375 -2.460938 1.253906 -3.210938 1.265625 -4.015625 C 1.273438 -4.816406 1.273438 -5.617188 1.265625 -6.421875 C 1.253906 -7.234375 1.238281 -7.988281 1.21875 -8.6875 C 1.195312 -9.382812 1.160156 -9.972656 1.109375 -10.453125 C 1.296875 -10.421875 1.601562 -10.394531 2.03125 -10.375 C 2.46875 -10.351562 2.976562 -10.332031 3.5625 -10.3125 C 4.15625 -10.300781 4.789062 -10.289062 5.46875 -10.28125 C 6.15625 -10.269531 6.847656 -10.265625 7.546875 -10.265625 C 8.253906 -10.265625 8.9375 -10.265625 9.59375 -10.265625 C 10.25 -10.273438 10.84375 -10.289062 11.375 -10.3125 C 11.914062 -10.34375 12.359375 -10.375 12.703125 -10.40625 C 12.617188 -9.570312 12.617188 -8.734375 12.703125 -7.890625 C 12.359375 -7.984375 11.925781 -8.066406 11.40625 -8.140625 C 10.894531 -8.210938 10.328125 -8.28125 9.703125 -8.34375 C 9.078125 -8.40625 8.429688 -8.453125 7.765625 -8.484375 C 7.109375 -8.523438 6.472656 -8.550781 5.859375 -8.5625 C 5.242188 -8.582031 4.679688 -8.585938 4.171875 -8.578125 C 4.117188 -7.722656 4.101562 -6.867188 4.125 -6.015625 C 4.769531 -6.003906 5.445312 -6 6.15625 -6 C 6.863281 -6.007812 7.5625 -6.023438 8.25 -6.046875 C 8.945312 -6.078125 9.59375 -6.109375 10.1875 -6.140625 C 10.789062 -6.179688 11.300781 -6.222656 11.71875 -6.265625 C 11.644531 -5.566406 11.644531 -4.867188 11.71875 -4.171875 C 11.300781 -4.203125 10.789062 -4.234375 10.1875 -4.265625 C 9.59375 -4.296875 8.945312 -4.320312 8.25 -4.34375 C 7.5625 -4.363281 6.863281 -4.375 6.15625 -4.375 C 5.445312 -4.382812 4.769531 -4.378906 4.125 -4.359375 C 4.125 -3.941406 4.128906 -3.523438 4.140625 -3.109375 C 4.148438 -2.703125 4.164062 -2.289062 4.1875 -1.875 C 4.707031 -1.863281 5.273438 -1.863281 5.890625 -1.875 C 6.515625 -1.894531 7.15625 -1.921875 7.8125 -1.953125 C 8.46875 -1.992188 9.101562 -2.046875 9.71875 -2.109375 C 10.34375 -2.171875 10.910156 -2.238281 11.421875 -2.3125 C 11.929688 -2.382812 12.359375 -2.46875 12.703125 -2.5625 C 12.617188 -1.707031 12.617188 -0.851562 12.703125 0 Z M 1.109375 0 "/></g></g></g><g fill="#12123f" fill-opacity="1"><g transform="translate(161.263147, 108.268798)"><g><path d="M 7.5625 0.171875 C 6.300781 0.171875 5.09375 0.0507812 3.9375 -0.1875 C 2.78125 -0.425781 1.757812 -0.707031 0.875 -1.03125 C 1.019531 -1.945312 1.019531 -2.867188 0.875 -3.796875 C 1.207031 -3.453125 1.632812 -3.148438 2.15625 -2.890625 C 2.6875 -2.640625 3.265625 -2.4375 3.890625 -2.28125 C 4.523438 -2.125 5.179688 -2.003906 5.859375 -1.921875 C 6.546875 -1.847656 7.207031 -1.8125 7.84375 -1.8125 C 8.757812 -1.8125 9.410156 -1.910156 9.796875 -2.109375 C 10.191406 -2.304688 10.390625 -2.601562 10.390625 -3 C 10.390625 -3.34375 10.257812 -3.597656 10 -3.765625 C 9.738281 -3.941406 9.304688 -4.070312 8.703125 -4.15625 C 8.097656 -4.25 7.269531 -4.34375 6.21875 -4.4375 C 5.070312 -4.53125 4.09375 -4.679688 3.28125 -4.890625 C 2.46875 -5.097656 1.84375 -5.398438 1.40625 -5.796875 C 0.976562 -6.203125 0.765625 -6.753906 0.765625 -7.453125 C 0.765625 -9.578125 2.6875 -10.640625 6.53125 -10.640625 C 7.4375 -10.640625 8.238281 -10.601562 8.9375 -10.53125 C 9.644531 -10.46875 10.304688 -10.375 10.921875 -10.25 C 11.546875 -10.125 12.191406 -9.976562 12.859375 -9.8125 C 12.722656 -8.945312 12.722656 -8.078125 12.859375 -7.203125 C 12.046875 -7.578125 11.097656 -7.914062 10.015625 -8.21875 C 8.929688 -8.519531 7.738281 -8.671875 6.4375 -8.671875 C 5.5 -8.671875 4.828125 -8.578125 4.421875 -8.390625 C 4.015625 -8.203125 3.8125 -7.921875 3.8125 -7.546875 C 3.8125 -7.210938 3.925781 -6.953125 4.15625 -6.765625 C 4.394531 -6.578125 4.78125 -6.429688 5.3125 -6.328125 C 5.851562 -6.222656 6.566406 -6.132812 7.453125 -6.0625 C 8.722656 -5.96875 9.800781 -5.820312 10.6875 -5.625 C 11.582031 -5.425781 12.257812 -5.117188 12.71875 -4.703125 C 13.1875 -4.285156 13.421875 -3.710938 13.421875 -2.984375 C 13.421875 -0.878906 11.46875 0.171875 7.5625 0.171875 Z M 7.5625 0.171875 "/></g></g></g><g fill="#12123f" fill-opacity="1"><g transform="translate(182.273826, 108.268798)"><g><path d="M 7.5625 0.171875 C 6.300781 0.171875 5.09375 0.0507812 3.9375 -0.1875 C 2.78125 -0.425781 1.757812 -0.707031 0.875 -1.03125 C 1.019531 -1.945312 1.019531 -2.867188 0.875 -3.796875 C 1.207031 -3.453125 1.632812 -3.148438 2.15625 -2.890625 C 2.6875 -2.640625 3.265625 -2.4375 3.890625 -2.28125 C 4.523438 -2.125 5.179688 -2.003906 5.859375 -1.921875 C 6.546875 -1.847656 7.207031 -1.8125 7.84375 -1.8125 C 8.757812 -1.8125 9.410156 -1.910156 9.796875 -2.109375 C 10.191406 -2.304688 10.390625 -2.601562 10.390625 -3 C 10.390625 -3.34375 10.257812 -3.597656 10 -3.765625 C 9.738281 -3.941406 9.304688 -4.070312 8.703125 -4.15625 C 8.097656 -4.25 7.269531 -4.34375 6.21875 -4.4375 C 5.070312 -4.53125 4.09375 -4.679688 3.28125 -4.890625 C 2.46875 -5.097656 1.84375 -5.398438 1.40625 -5.796875 C 0.976562 -6.203125 0.765625 -6.753906 0.765625 -7.453125 C 0.765625 -9.578125 2.6875 -10.640625 6.53125 -10.640625 C 7.4375 -10.640625 8.238281 -10.601562 8.9375 -10.53125 C 9.644531 -10.46875 10.304688 -10.375 10.921875 -10.25 C 11.546875 -10.125 12.191406 -9.976562 12.859375 -9.8125 C 12.722656 -8.945312 12.722656 -8.078125 12.859375 -7.203125 C 12.046875 -7.578125 11.097656 -7.914062 10.015625 -8.21875 C 8.929688 -8.519531 7.738281 -8.671875 6.4375 -8.671875 C 5.5 -8.671875 4.828125 -8.578125 4.421875 -8.390625 C 4.015625 -8.203125 3.8125 -7.921875 3.8125 -7.546875 C 3.8125 -7.210938 3.925781 -6.953125 4.15625 -6.765625 C 4.394531 -6.578125 4.78125 -6.429688 5.3125 -6.328125 C 5.851562 -6.222656 6.566406 -6.132812 7.453125 -6.0625 C 8.722656 -5.96875 9.800781 -5.820312 10.6875 -5.625 C 11.582031 -5.425781 12.257812 -5.117188 12.71875 -4.703125 C 13.1875 -4.285156 13.421875 -3.710938 13.421875 -2.984375 C 13.421875 -0.878906 11.46875 0.171875 7.5625 0.171875 Z M 7.5625 0.171875 "/></g></g></g><g fill="#12123f" fill-opacity="1"><g transform="translate(203.284504, 108.268798)"><g/></g></g><g fill="#12123f" fill-opacity="1"><g transform="translate(214.293246, 108.268798)"><g><path d="M 7.5625 0.171875 C 6.300781 0.171875 5.09375 0.0507812 3.9375 -0.1875 C 2.78125 -0.425781 1.757812 -0.707031 0.875 -1.03125 C 1.019531 -1.945312 1.019531 -2.867188 0.875 -3.796875 C 1.207031 -3.453125 1.632812 -3.148438 2.15625 -2.890625 C 2.6875 -2.640625 3.265625 -2.4375 3.890625 -2.28125 C 4.523438 -2.125 5.179688 -2.003906 5.859375 -1.921875 C 6.546875 -1.847656 7.207031 -1.8125 7.84375 -1.8125 C 8.757812 -1.8125 9.410156 -1.910156 9.796875 -2.109375 C 10.191406 -2.304688 10.390625 -2.601562 10.390625 -3 C 10.390625 -3.34375 10.257812 -3.597656 10 -3.765625 C 9.738281 -3.941406 9.304688 -4.070312 8.703125 -4.15625 C 8.097656 -4.25 7.269531 -4.34375 6.21875 -4.4375 C 5.070312 -4.53125 4.09375 -4.679688 3.28125 -4.890625 C 2.46875 -5.097656 1.84375 -5.398438 1.40625 -5.796875 C 0.976562 -6.203125 0.765625 -6.753906 0.765625 -7.453125 C 0.765625 -9.578125 2.6875 -10.640625 6.53125 -10.640625 C 7.4375 -10.640625 8.238281 -10.601562 8.9375 -10.53125 C 9.644531 -10.46875 10.304688 -10.375 10.921875 -10.25 C 11.546875 -10.125 12.191406 -9.976562 12.859375 -9.8125 C 12.722656 -8.945312 12.722656 -8.078125 12.859375 -7.203125 C 12.046875 -7.578125 11.097656 -7.914062 10.015625 -8.21875 C 8.929688 -8.519531 7.738281 -8.671875 6.4375 -8.671875 C 5.5 -8.671875 4.828125 -8.578125 4.421875 -8.390625 C 4.015625 -8.203125 3.8125 -7.921875 3.8125 -7.546875 C 3.8125 -7.210938 3.925781 -6.953125 4.15625 -6.765625 C 4.394531 -6.578125 4.78125 -6.429688 5.3125 -6.328125 C 5.851562 -6.222656 6.566406 -6.132812 7.453125 -6.0625 C 8.722656 -5.96875 9.800781 -5.820312 10.6875 -5.625 C 11.582031 -5.425781 12.257812 -5.117188 12.71875 -4.703125 C 13.1875 -4.285156 13.421875 -3.710938 13.421875 -2.984375 C 13.421875 -0.878906 11.46875 0.171875 7.5625 0.171875 Z M 7.5625 0.171875 "/></g></g></g><g fill="#12123f" fill-opacity="1"><g transform="translate(235.303925, 108.268798)"><g><path d="M 4.765625 0 C 4.816406 -0.46875 4.851562 -1.046875 4.875 -1.734375 C 4.894531 -2.429688 4.90625 -3.175781 4.90625 -3.96875 C 4.914062 -4.757812 4.914062 -5.550781 4.90625 -6.34375 C 4.90625 -7.144531 4.890625 -7.890625 4.859375 -8.578125 C 3.816406 -8.566406 2.925781 -8.519531 2.1875 -8.4375 C 1.445312 -8.363281 0.738281 -8.253906 0.0625 -8.109375 C 0.207031 -8.890625 0.207031 -9.671875 0.0625 -10.453125 C 1.257812 -10.410156 2.367188 -10.382812 3.390625 -10.375 C 4.410156 -10.363281 5.398438 -10.359375 6.359375 -10.359375 C 7.328125 -10.359375 8.320312 -10.363281 9.34375 -10.375 C 10.375 -10.382812 11.484375 -10.410156 12.671875 -10.453125 C 12.523438 -9.671875 12.523438 -8.890625 12.671875 -8.109375 C 11.992188 -8.253906 11.28125 -8.363281 10.53125 -8.4375 C 9.78125 -8.519531 8.878906 -8.566406 7.828125 -8.578125 C 7.816406 -7.890625 7.804688 -7.144531 7.796875 -6.34375 C 7.796875 -5.550781 7.796875 -4.757812 7.796875 -3.96875 C 7.804688 -3.175781 7.828125 -2.429688 7.859375 -1.734375 C 7.890625 -1.046875 7.925781 -0.46875 7.96875 0 Z M 4.765625 0 "/></g></g></g><g fill="#12123f" fill-opacity="1"><g transform="translate(254.865858, 108.268798)"><g><path d="M 1.109375 0 C 1.148438 -0.476562 1.179688 -1.066406 1.203125 -1.765625 C 1.234375 -2.460938 1.253906 -3.210938 1.265625 -4.015625 C 1.273438 -4.816406 1.273438 -5.617188 1.265625 -6.421875 C 1.253906 -7.234375 1.238281 -7.988281 1.21875 -8.6875 C 1.195312 -9.382812 1.160156 -9.972656 1.109375 -10.453125 C 1.742188 -10.441406 2.3125 -10.4375 2.8125 -10.4375 C 3.320312 -10.4375 3.804688 -10.441406 4.265625 -10.453125 C 4.734375 -10.472656 5.207031 -10.488281 5.6875 -10.5 C 6.175781 -10.507812 6.710938 -10.515625 7.296875 -10.515625 C 9.347656 -10.515625 10.851562 -10.257812 11.8125 -9.75 C 12.78125 -9.238281 13.265625 -8.460938 13.265625 -7.421875 C 13.265625 -6.910156 13.15625 -6.472656 12.9375 -6.109375 C 12.726562 -5.753906 12.445312 -5.457031 12.09375 -5.21875 C 11.75 -4.976562 11.378906 -4.789062 10.984375 -4.65625 C 10.585938 -4.519531 10.207031 -4.425781 9.84375 -4.375 C 9.476562 -4.332031 9.164062 -4.3125 8.90625 -4.3125 L 8.90625 -4.078125 C 9.632812 -3.941406 10.269531 -3.707031 10.8125 -3.375 C 11.351562 -3.050781 11.816406 -2.675781 12.203125 -2.25 C 12.585938 -1.832031 12.898438 -1.421875 13.140625 -1.015625 C 13.390625 -0.617188 13.582031 -0.28125 13.71875 0 L 9.71875 0 C 9.632812 -0.84375 9.441406 -1.523438 9.140625 -2.046875 C 8.847656 -2.578125 8.421875 -2.976562 7.859375 -3.25 C 7.296875 -3.53125 6.566406 -3.710938 5.671875 -3.796875 C 5.441406 -3.816406 5.191406 -3.832031 4.921875 -3.84375 C 4.660156 -3.851562 4.382812 -3.859375 4.09375 -3.859375 C 4.113281 -3.191406 4.128906 -2.628906 4.140625 -2.171875 C 4.160156 -1.722656 4.179688 -1.332031 4.203125 -1 C 4.222656 -0.664062 4.25 -0.332031 4.28125 0 Z M 4.078125 -5.59375 C 4.492188 -5.570312 4.953125 -5.546875 5.453125 -5.515625 C 5.953125 -5.484375 6.488281 -5.46875 7.0625 -5.46875 C 8.082031 -5.46875 8.859375 -5.597656 9.390625 -5.859375 C 9.929688 -6.128906 10.203125 -6.550781 10.203125 -7.125 C 10.203125 -7.675781 9.925781 -8.066406 9.375 -8.296875 C 8.832031 -8.523438 8.101562 -8.640625 7.1875 -8.640625 C 6.582031 -8.640625 5.992188 -8.628906 5.421875 -8.609375 C 4.859375 -8.585938 4.429688 -8.578125 4.140625 -8.578125 C 4.117188 -8.128906 4.101562 -7.65625 4.09375 -7.15625 C 4.082031 -6.664062 4.078125 -6.144531 4.078125 -5.59375 Z M 4.078125 -5.59375 "/></g></g></g><g fill="#12123f" fill-opacity="1"><g transform="translate(275.820811, 108.268798)"><g><path d="M 1.109375 0 C 1.148438 -0.476562 1.179688 -1.066406 1.203125 -1.765625 C 1.234375 -2.460938 1.253906 -3.210938 1.265625 -4.015625 C 1.273438 -4.816406 1.273438 -5.617188 1.265625 -6.421875 C 1.253906 -7.234375 1.238281 -7.988281 1.21875 -8.6875 C 1.195312 -9.382812 1.160156 -9.972656 1.109375 -10.453125 C 1.296875 -10.421875 1.601562 -10.394531 2.03125 -10.375 C 2.46875 -10.351562 2.976562 -10.332031 3.5625 -10.3125 C 4.15625 -10.300781 4.789062 -10.289062 5.46875 -10.28125 C 6.15625 -10.269531 6.847656 -10.265625 7.546875 -10.265625 C 8.253906 -10.265625 8.9375 -10.265625 9.59375 -10.265625 C 10.25 -10.273438 10.84375 -10.289062 11.375 -10.3125 C 11.914062 -10.34375 12.359375 -10.375 12.703125 -10.40625 C 12.617188 -9.570312 12.617188 -8.734375 12.703125 -7.890625 C 12.359375 -7.984375 11.925781 -8.066406 11.40625 -8.140625 C 10.894531 -8.210938 10.328125 -8.28125 9.703125 -8.34375 C 9.078125 -8.40625 8.429688 -8.453125 7.765625 -8.484375 C 7.109375 -8.523438 6.472656 -8.550781 5.859375 -8.5625 C 5.242188 -8.582031 4.679688 -8.585938 4.171875 -8.578125 C 4.117188 -7.722656 4.101562 -6.867188 4.125 -6.015625 C 4.769531 -6.003906 5.445312 -6 6.15625 -6 C 6.863281 -6.007812 7.5625 -6.023438 8.25 -6.046875 C 8.945312 -6.078125 9.59375 -6.109375 10.1875 -6.140625 C 10.789062 -6.179688 11.300781 -6.222656 11.71875 -6.265625 C 11.644531 -5.566406 11.644531 -4.867188 11.71875 -4.171875 C 11.300781 -4.203125 10.789062 -4.234375 10.1875 -4.265625 C 9.59375 -4.296875 8.945312 -4.320312 8.25 -4.34375 C 7.5625 -4.363281 6.863281 -4.375 6.15625 -4.375 C 5.445312 -4.382812 4.769531 -4.378906 4.125 -4.359375 C 4.125 -3.941406 4.128906 -3.523438 4.140625 -3.109375 C 4.148438 -2.703125 4.164062 -2.289062 4.1875 -1.875 C 4.707031 -1.863281 5.273438 -1.863281 5.890625 -1.875 C 6.515625 -1.894531 7.15625 -1.921875 7.8125 -1.953125 C 8.46875 -1.992188 9.101562 -2.046875 9.71875 -2.109375 C 10.34375 -2.171875 10.910156 -2.238281 11.421875 -2.3125 C 11.929688 -2.382812 12.359375 -2.46875 12.703125 -2.5625 C 12.617188 -1.707031 12.617188 -0.851562 12.703125 0 Z M 1.109375 0 "/></g></g></g><g fill="#12123f" fill-opacity="1"><g transform="translate(296.107117, 108.268798)"><g><path d="M 7.5625 0.171875 C 6.300781 0.171875 5.09375 0.0507812 3.9375 -0.1875 C 2.78125 -0.425781 1.757812 -0.707031 0.875 -1.03125 C 1.019531 -1.945312 1.019531 -2.867188 0.875 -3.796875 C 1.207031 -3.453125 1.632812 -3.148438 2.15625 -2.890625 C 2.6875 -2.640625 3.265625 -2.4375 3.890625 -2.28125 C 4.523438 -2.125 5.179688 -2.003906 5.859375 -1.921875 C 6.546875 -1.847656 7.207031 -1.8125 7.84375 -1.8125 C 8.757812 -1.8125 9.410156 -1.910156 9.796875 -2.109375 C 10.191406 -2.304688 10.390625 -2.601562 10.390625 -3 C 10.390625 -3.34375 10.257812 -3.597656 10 -3.765625 C 9.738281 -3.941406 9.304688 -4.070312 8.703125 -4.15625 C 8.097656 -4.25 7.269531 -4.34375 6.21875 -4.4375 C 5.070312 -4.53125 4.09375 -4.679688 3.28125 -4.890625 C 2.46875 -5.097656 1.84375 -5.398438 1.40625 -5.796875 C 0.976562 -6.203125 0.765625 -6.753906 0.765625 -7.453125 C 0.765625 -9.578125 2.6875 -10.640625 6.53125 -10.640625 C 7.4375 -10.640625 8.238281 -10.601562 8.9375 -10.53125 C 9.644531 -10.46875 10.304688 -10.375 10.921875 -10.25 C 11.546875 -10.125 12.191406 -9.976562 12.859375 -9.8125 C 12.722656 -8.945312 12.722656 -8.078125 12.859375 -7.203125 C 12.046875 -7.578125 11.097656 -7.914062 10.015625 -8.21875 C 8.929688 -8.519531 7.738281 -8.671875 6.4375 -8.671875 C 5.5 -8.671875 4.828125 -8.578125 4.421875 -8.390625 C 4.015625 -8.203125 3.8125 -7.921875 3.8125 -7.546875 C 3.8125 -7.210938 3.925781 -6.953125 4.15625 -6.765625 C 4.394531 -6.578125 4.78125 -6.429688 5.3125 -6.328125 C 5.851562 -6.222656 6.566406 -6.132812 7.453125 -6.0625 C 8.722656 -5.96875 9.800781 -5.820312 10.6875 -5.625 C 11.582031 -5.425781 12.257812 -5.117188 12.71875 -4.703125 C 13.1875 -4.285156 13.421875 -3.710938 13.421875 -2.984375 C 13.421875 -0.878906 11.46875 0.171875 7.5625 0.171875 Z M 7.5625 0.171875 "/></g></g></g><g fill="#12123f" fill-opacity="1"><g transform="translate(317.117796, 108.268798)"><g><path d="M 7.5625 0.171875 C 6.300781 0.171875 5.09375 0.0507812 3.9375 -0.1875 C 2.78125 -0.425781 1.757812 -0.707031 0.875 -1.03125 C 1.019531 -1.945312 1.019531 -2.867188 0.875 -3.796875 C 1.207031 -3.453125 1.632812 -3.148438 2.15625 -2.890625 C 2.6875 -2.640625 3.265625 -2.4375 3.890625 -2.28125 C 4.523438 -2.125 5.179688 -2.003906 5.859375 -1.921875 C 6.546875 -1.847656 7.207031 -1.8125 7.84375 -1.8125 C 8.757812 -1.8125 9.410156 -1.910156 9.796875 -2.109375 C 10.191406 -2.304688 10.390625 -2.601562 10.390625 -3 C 10.390625 -3.34375 10.257812 -3.597656 10 -3.765625 C 9.738281 -3.941406 9.304688 -4.070312 8.703125 -4.15625 C 8.097656 -4.25 7.269531 -4.34375 6.21875 -4.4375 C 5.070312 -4.53125 4.09375 -4.679688 3.28125 -4.890625 C 2.46875 -5.097656 1.84375 -5.398438 1.40625 -5.796875 C 0.976562 -6.203125 0.765625 -6.753906 0.765625 -7.453125 C 0.765625 -9.578125 2.6875 -10.640625 6.53125 -10.640625 C 7.4375 -10.640625 8.238281 -10.601562 8.9375 -10.53125 C 9.644531 -10.46875 10.304688 -10.375 10.921875 -10.25 C 11.546875 -10.125 12.191406 -9.976562 12.859375 -9.8125 C 12.722656 -8.945312 12.722656 -8.078125 12.859375 -7.203125 C 12.046875 -7.578125 11.097656 -7.914062 10.015625 -8.21875 C 8.929688 -8.519531 7.738281 -8.671875 6.4375 -8.671875 C 5.5 -8.671875 4.828125 -8.578125 4.421875 -8.390625 C 4.015625 -8.203125 3.8125 -7.921875 3.8125 -7.546875 C 3.8125 -7.210938 3.925781 -6.953125 4.15625 -6.765625 C 4.394531 -6.578125 4.78125 -6.429688 5.3125 -6.328125 C 5.851562 -6.222656 6.566406 -6.132812 7.453125 -6.0625 C 8.722656 -5.96875 9.800781 -5.820312 10.6875 -5.625 C 11.582031 -5.425781 12.257812 -5.117188 12.71875 -4.703125 C 13.1875 -4.285156 13.421875 -3.710938 13.421875 -2.984375 C 13.421875 -0.878906 11.46875 0.171875 7.5625 0.171875 Z M 7.5625 0.171875 "/></g></g></g><g fill="#12123f" fill-opacity="1"><g transform="translate(338.128464, 108.268798)"><g><path d="M 2 0.171875 C 0.988281 0.171875 0.484375 -0.203125 0.484375 -0.953125 C 0.484375 -1.691406 0.988281 -2.0625 2 -2.0625 C 3.019531 -2.0625 3.53125 -1.691406 3.53125 -0.953125 C 3.53125 -0.203125 3.019531 0.171875 2 0.171875 Z M 2 0.171875 "/></g></g></g></svg>