<svg xmlns="http://www.w3.org/2000/svg" xmlns:xlink="http://www.w3.org/1999/xlink" width="500" zoomAndPan="magnify" viewBox="0 0 375 112.499997" height="150" preserveAspectRatio="xMidYMid meet" version="1.0"><defs><g/><clipPath id="e69a22d371"><path d="M 59 71 L 78 71 L 78 89.832031 L 59 89.832031 Z M 59 71 " clip-rule="nonzero"/></clipPath><clipPath id="d66739d646"><path d="M 22 71 L 41 71 L 41 89.832031 L 22 89.832031 Z M 22 71 " clip-rule="nonzero"/></clipPath><clipPath id="91ddbe4cac"><path d="M 1.03125 9 L 78 9 L 78 69 L 1.03125 69 Z M 1.03125 9 " clip-rule="nonzero"/></clipPath><clipPath id="2255c360f0"><path d="M 48 2.625 L 88.464844 2.625 L 88.464844 43 L 48 43 Z M 48 2.625 " clip-rule="nonzero"/></clipPath><clipPath id="a9261847b7"><path d="M 46.382812 1.03125 L 89.800781 1.03125 L 89.800781 44.449219 L 46.382812 44.449219 Z M 46.382812 1.03125 " clip-rule="nonzero"/></clipPath><clipPath id="134bc9b8bb"><path d="M 68.089844 1.03125 C 56.101562 1.03125 46.382812 10.75 46.382812 22.738281 C 46.382812 34.730469 56.101562 44.449219 68.089844 44.449219 C 80.082031 44.449219 89.800781 34.730469 89.800781 22.738281 C 89.800781 10.75 80.082031 1.03125 68.089844 1.03125 Z M 68.089844 1.03125 " clip-rule="nonzero"/></clipPath><clipPath id="08a468b467"><path d="M 0.382812 0.03125 L 43.800781 0.03125 L 43.800781 43.449219 L 0.382812 43.449219 Z M 0.382812 0.03125 " clip-rule="nonzero"/></clipPath><clipPath id="bb9a873040"><path d="M 22.089844 0.03125 C 10.101562 0.03125 0.382812 9.75 0.382812 21.738281 C 0.382812 33.730469 10.101562 43.449219 22.089844 43.449219 C 34.082031 43.449219 43.800781 33.730469 43.800781 21.738281 C 43.800781 9.75 34.082031 0.03125 22.089844 0.03125 Z M 22.089844 0.03125 " clip-rule="nonzero"/></clipPath><clipPath id="1af3dd38dc"><rect x="0" width="44" y="0" height="44"/></clipPath><clipPath id="113a2d1ff6"><path d="M 47.976562 2.625 L 88.207031 2.625 L 88.207031 42.855469 L 47.976562 42.855469 Z M 47.976562 2.625 " clip-rule="nonzero"/></clipPath><clipPath id="b271229711"><path d="M 68.089844 2.625 C 56.980469 2.625 47.976562 11.628906 47.976562 22.738281 C 47.976562 33.851562 56.980469 42.855469 68.089844 42.855469 C 79.199219 42.855469 88.207031 33.851562 88.207031 22.738281 C 88.207031 11.628906 79.199219 2.625 68.089844 2.625 Z M 68.089844 2.625 " clip-rule="nonzero"/></clipPath><clipPath id="34dceba0d3"><path d="M 0.976562 0.625 L 41.207031 0.625 L 41.207031 40.855469 L 0.976562 40.855469 Z M 0.976562 0.625 " clip-rule="nonzero"/></clipPath><clipPath id="97df7e6bc4"><path d="M 21.089844 0.625 C 9.980469 0.625 0.976562 9.628906 0.976562 20.738281 C 0.976562 31.851562 9.980469 40.855469 21.089844 40.855469 C 32.199219 40.855469 41.207031 31.851562 41.207031 20.738281 C 41.207031 9.628906 32.199219 0.625 21.089844 0.625 Z M 21.089844 0.625 " clip-rule="nonzero"/></clipPath><clipPath id="4c5b8441cc"><rect x="0" width="42" y="0" height="41"/></clipPath><clipPath id="25aa10b81f"><path d="M 56.242188 13.691406 L 80 13.691406 L 80 31.78125 L 56.242188 31.78125 Z M 56.242188 13.691406 " clip-rule="nonzero"/></clipPath><clipPath id="11ce407838"><rect x="0" width="90" y="0" height="90"/></clipPath></defs><g transform="matrix(1, 0, 0, 1, 11, 11)"><g clip-path="url(#11ce407838)"><g clip-path="url(#e69a22d371)"><path fill="#12123f" d="M 77.308594 80.71875 C 77.308594 81.316406 77.25 81.90625 77.132812 82.492188 C 77.015625 83.074219 76.84375 83.644531 76.617188 84.195312 C 76.390625 84.746094 76.109375 85.269531 75.777344 85.765625 C 75.445312 86.261719 75.070312 86.71875 74.648438 87.140625 C 74.226562 87.5625 73.769531 87.9375 73.273438 88.269531 C 72.777344 88.601562 72.253906 88.878906 71.703125 89.109375 C 71.152344 89.335938 70.582031 89.507812 70 89.625 C 69.414062 89.742188 68.824219 89.800781 68.226562 89.800781 C 67.632812 89.800781 67.039062 89.742188 66.457031 89.625 C 65.871094 89.507812 65.304688 89.335938 64.753906 89.109375 C 64.203125 88.878906 63.679688 88.601562 63.183594 88.269531 C 62.6875 87.9375 62.226562 87.5625 61.804688 87.140625 C 61.382812 86.71875 61.007812 86.261719 60.675781 85.765625 C 60.347656 85.269531 60.066406 84.746094 59.835938 84.195312 C 59.609375 83.644531 59.4375 83.074219 59.320312 82.492188 C 59.203125 81.90625 59.148438 81.316406 59.148438 80.71875 C 59.148438 80.121094 59.203125 79.53125 59.320312 78.949219 C 59.4375 78.363281 59.609375 77.792969 59.835938 77.242188 C 60.066406 76.691406 60.347656 76.167969 60.675781 75.675781 C 61.007812 75.179688 61.382812 74.71875 61.804688 74.296875 C 62.226562 73.875 62.6875 73.5 63.183594 73.167969 C 63.679688 72.835938 64.203125 72.558594 64.753906 72.328125 C 65.304688 72.101562 65.871094 71.929688 66.457031 71.8125 C 67.039062 71.695312 67.632812 71.636719 68.226562 71.636719 C 68.824219 71.636719 69.414062 71.695312 70 71.8125 C 70.582031 71.929688 71.152344 72.101562 71.703125 72.328125 C 72.253906 72.558594 72.777344 72.835938 73.273438 73.167969 C 73.769531 73.5 74.226562 73.875 74.648438 74.296875 C 75.070312 74.71875 75.445312 75.179688 75.777344 75.675781 C 76.109375 76.167969 76.390625 76.691406 76.617188 77.242188 C 76.84375 77.792969 77.015625 78.363281 77.132812 78.949219 C 77.25 79.53125 77.308594 80.121094 77.308594 80.71875 Z M 77.308594 80.71875 " fill-opacity="1" fill-rule="nonzero"/></g><g clip-path="url(#d66739d646)"><path fill="#12123f" d="M 40.984375 80.71875 C 40.984375 81.316406 40.925781 81.90625 40.8125 82.492188 C 40.695312 83.074219 40.523438 83.644531 40.292969 84.195312 C 40.066406 84.746094 39.785156 85.269531 39.453125 85.765625 C 39.125 86.261719 38.746094 86.71875 38.324219 87.140625 C 37.902344 87.5625 37.445312 87.9375 36.949219 88.269531 C 36.453125 88.601562 35.929688 88.878906 35.378906 89.109375 C 34.828125 89.335938 34.261719 89.507812 33.675781 89.625 C 33.089844 89.742188 32.5 89.800781 31.90625 89.800781 C 31.308594 89.800781 30.71875 89.742188 30.132812 89.625 C 29.546875 89.507812 28.980469 89.335938 28.429688 89.109375 C 27.878906 88.878906 27.355469 88.601562 26.859375 88.269531 C 26.363281 87.9375 25.90625 87.5625 25.484375 87.140625 C 25.0625 86.71875 24.683594 86.261719 24.355469 85.765625 C 24.023438 85.269531 23.742188 84.746094 23.515625 84.195312 C 23.285156 83.644531 23.113281 83.074219 23 82.492188 C 22.882812 81.90625 22.824219 81.316406 22.824219 80.71875 C 22.824219 80.121094 22.882812 79.53125 23 78.949219 C 23.113281 78.363281 23.285156 77.792969 23.515625 77.242188 C 23.742188 76.691406 24.023438 76.167969 24.355469 75.675781 C 24.683594 75.179688 25.0625 74.71875 25.484375 74.296875 C 25.90625 73.875 26.363281 73.5 26.859375 73.167969 C 27.355469 72.835938 27.878906 72.558594 28.429688 72.328125 C 28.980469 72.101562 29.546875 71.929688 30.132812 71.8125 C 30.71875 71.695312 31.308594 71.636719 31.90625 71.636719 C 32.5 71.636719 33.089844 71.695312 33.675781 71.8125 C 34.261719 71.929688 34.828125 72.101562 35.378906 72.328125 C 35.929688 72.558594 36.453125 72.835938 36.949219 73.167969 C 37.445312 73.5 37.902344 73.875 38.324219 74.296875 C 38.746094 74.71875 39.125 75.179688 39.453125 75.675781 C 39.785156 76.167969 40.066406 76.691406 40.292969 77.242188 C 40.523438 77.792969 40.695312 78.363281 40.8125 78.949219 C 40.925781 79.53125 40.984375 80.121094 40.984375 80.71875 Z M 40.984375 80.71875 " fill-opacity="1" fill-rule="nonzero"/></g><g clip-path="url(#91ddbe4cac)"><path fill="#12123f" d="M 75.492188 68.007812 L 33.570312 68.007812 C 27.53125 68.007812 22.289062 63.710938 21.105469 57.789062 L 12.253906 13.523438 L 2.847656 13.523438 C 1.84375 13.523438 1.03125 12.707031 1.03125 11.707031 C 1.03125 10.703125 1.84375 9.890625 2.847656 9.890625 L 13.742188 9.890625 C 14.605469 9.890625 15.351562 10.5 15.523438 11.347656 L 24.667969 57.074219 C 25.515625 61.304688 29.257812 64.375 33.570312 64.375 L 75.492188 64.375 C 76.496094 64.375 77.308594 65.1875 77.308594 66.191406 C 77.308594 67.191406 76.496094 68.007812 75.492188 68.007812 Z M 75.492188 68.007812 " fill-opacity="1" fill-rule="nonzero"/></g><path fill="#12123f" d="M 80.839844 43.59375 C 80.296875 43.273438 79.632812 43.253906 79.078125 43.546875 C 75.679688 45.316406 72.03125 46.210938 68.226562 46.210938 C 55.210938 46.210938 44.632812 36.367188 44.648438 23.054688 C 44.648438 23.027344 44.667969 22.679688 44.671875 22.65625 C 44.6875 22.15625 44.492188 21.671875 44.140625 21.320312 C 43.785156 20.964844 43.296875 20.773438 42.800781 20.785156 L 17.320312 20.785156 C 16.789062 20.800781 16.292969 21.050781 15.960938 21.464844 C 15.628906 21.875 15.488281 22.414062 15.589844 22.9375 L 21.039062 51.996094 C 21.199219 52.855469 21.949219 53.476562 22.824219 53.476562 L 72.710938 53.476562 C 77.277344 53.476562 81.15625 50.058594 81.71875 45.523438 C 81.730469 45.429688 81.730469 45.203125 81.730469 45.113281 C 81.714844 44.488281 81.375 43.914062 80.839844 43.59375 Z M 80.839844 43.59375 " fill-opacity="1" fill-rule="nonzero"/><g clip-path="url(#2255c360f0)"><path fill="#12123f" d="M 68.226562 2.625 C 57.210938 2.625 48.25 11.585938 48.25 22.601562 C 48.25 33.617188 57.210938 42.578125 68.226562 42.578125 C 79.246094 42.578125 88.203125 33.617188 88.203125 22.601562 C 88.203125 11.585938 79.246094 2.625 68.226562 2.625 Z M 80.410156 16.625 L 65.882812 31.152344 C 65.523438 31.503906 65.058594 31.683594 64.59375 31.683594 C 64.128906 31.683594 63.664062 31.503906 63.308594 31.152344 L 56.042969 23.886719 C 55.335938 23.179688 55.335938 22.027344 56.042969 21.320312 C 56.753906 20.613281 57.90625 20.613281 58.613281 21.320312 L 64.59375 27.300781 L 77.839844 14.054688 C 78.546875 13.347656 79.699219 13.347656 80.40625 14.054688 C 81.113281 14.765625 81.117188 15.910156 80.410156 16.625 Z M 80.410156 16.625 " fill-opacity="1" fill-rule="nonzero"/></g><g clip-path="url(#a9261847b7)"><g clip-path="url(#134bc9b8bb)"><g transform="matrix(1, 0, 0, 1, 46, 1)"><g clip-path="url(#1af3dd38dc)"><g clip-path="url(#08a468b467)"><g clip-path="url(#bb9a873040)"><path fill="#ffffff" d="M 0.382812 0.03125 L 43.800781 0.03125 L 43.800781 43.449219 L 0.382812 43.449219 Z M 0.382812 0.03125 " fill-opacity="1" fill-rule="nonzero"/></g></g></g></g></g></g><g clip-path="url(#113a2d1ff6)"><g clip-path="url(#b271229711)"><g transform="matrix(1, 0, 0, 1, 47, 2)"><g clip-path="url(#4c5b8441cc)"><g clip-path="url(#34dceba0d3)"><g clip-path="url(#97df7e6bc4)"><path fill="#ffde59" d="M 0.976562 0.625 L 41.207031 0.625 L 41.207031 40.855469 L 0.976562 40.855469 Z M 0.976562 0.625 " fill-opacity="1" fill-rule="nonzero"/></g></g></g></g></g></g><g clip-path="url(#25aa10b81f)"><path fill="#12123f" d="M 78.398438 13.699219 C 78.023438 13.710938 77.707031 13.847656 77.449219 14.117188 L 63.269531 28.296875 L 58.734375 23.757812 C 58.605469 23.625 58.457031 23.523438 58.285156 23.449219 C 58.117188 23.375 57.9375 23.335938 57.753906 23.335938 C 57.566406 23.335938 57.390625 23.367188 57.21875 23.4375 C 57.046875 23.507812 56.894531 23.609375 56.765625 23.738281 C 56.632812 23.871094 56.53125 24.019531 56.464844 24.191406 C 56.394531 24.363281 56.359375 24.542969 56.359375 24.726562 C 56.363281 24.914062 56.402344 25.089844 56.472656 25.261719 C 56.546875 25.429688 56.652344 25.578125 56.785156 25.707031 L 62.296875 31.21875 C 62.425781 31.347656 62.574219 31.445312 62.742188 31.515625 C 62.910156 31.585938 63.085938 31.621094 63.269531 31.621094 C 63.453125 31.621094 63.628906 31.585938 63.796875 31.515625 C 63.964844 31.445312 64.113281 31.347656 64.242188 31.21875 L 79.398438 16.0625 C 79.601562 15.867188 79.730469 15.628906 79.789062 15.347656 C 79.84375 15.070312 79.816406 14.800781 79.707031 14.539062 C 79.59375 14.277344 79.421875 14.070312 79.179688 13.917969 C 78.941406 13.761719 78.679688 13.691406 78.398438 13.699219 Z M 78.398438 13.699219 " fill-opacity="1" fill-rule="nonzero"/></g></g></g><g fill="#12123f" fill-opacity="1"><g transform="translate(103.871374, 37.59433)"><g><path d="M 8.3125 0.1875 L 7.859375 0.171875 L 7.4375 0.078125 L 6.953125 -0.09375 L 6.515625 -0.1875 L 5.453125 -0.640625 L 4.421875 -1.1875 L 3.34375 -2.125 L 2.359375 -3.171875 L 1.34375 -5.25 L 1 -6.625 L 0.859375 -8.359375 L 1.09375 -10.421875 L 1.34375 -11.390625 L 1.9375 -12.734375 L 2.390625 -13.421875 L 3.03125 -14.234375 L 4.0625 -15.171875 L 4.75 -15.703125 L 6.515625 -16.53125 L 8.84375 -16.984375 L 10.328125 -16.96875 L 10.796875 -16.890625 L 11.25 -16.859375 L 13.546875 -16.109375 L 15.171875 -15.078125 L 15.84375 -14.375 L 16.109375 -13.921875 L 16.4375 -13.515625 L 16.65625 -13.140625 L 16.921875 -12.75 L 17.0625 -12.25 L 17.21875 -11.828125 L 17.375 -11.296875 L 17.203125 -10.828125 L 16.796875 -10.625 L 16.078125 -10.5625 L 15.40625 -10.625 L 14.9375 -10.609375 L 14.4375 -10.625 L 14 -10.578125 L 13.453125 -10.84375 L 13 -11.296875 L 12.734375 -11.65625 L 12.046875 -12.34375 L 11.703125 -12.609375 L 11.28125 -12.78125 L 10.53125 -13 L 9.515625 -13.046875 L 7.90625 -12.828125 L 7.265625 -12.46875 L 6.6875 -12.015625 L 6.109375 -11.34375 L 5.875 -10.890625 L 5.515625 -10.03125 L 5.34375 -9.078125 L 5.34375 -7.625 L 5.421875 -7.09375 L 5.546875 -6.671875 L 5.703125 -6.328125 L 5.875 -5.859375 L 6.40625 -5.015625 L 7.09375 -4.390625 L 7.9375 -3.96875 L 8.796875 -3.65625 L 9.484375 -3.578125 L 10.75 -3.65625 L 11.59375 -4.109375 L 11.953125 -4.25 L 12.328125 -4.59375 L 12.875 -5.203125 L 13.109375 -5.65625 L 13.5 -6.046875 L 14.046875 -6.328125 L 14.53125 -6.3125 L 15 -6.328125 L 15.484375 -6.265625 L 16.8125 -6.359375 L 17.296875 -6.046875 L 17.4375 -5.609375 L 16.8125 -3.796875 L 16.3125 -2.9375 L 15.765625 -2.21875 L 15.09375 -1.546875 L 13.921875 -0.71875 L 13.515625 -0.53125 L 13.015625 -0.359375 L 12.59375 -0.125 L 11.1875 0.171875 L 9.515625 0.28125 Z M 8.3125 0.1875 "/></g></g></g><g fill="#12123f" fill-opacity="1"><g transform="translate(123.225388, 37.59433)"><g><path d="M 8 0.09375 L 7.53125 -0.03125 L 6.359375 -0.03125 L 5.640625 0.078125 L 4.6875 -0.03125 L 4.203125 0.03125 L 3.46875 0.046875 L 2.765625 -0.046875 L 2.3125 0 L 1.859375 0 L 1.390625 -0.21875 L 1.140625 -0.859375 L 1.21875 -3.0625 L 1.484375 -3.484375 L 3.0625 -3.96875 L 3.328125 -4.6875 L 3.25 -12.015625 L 3.03125 -12.65625 L 2.578125 -12.953125 L 2.109375 -12.953125 L 1.578125 -13.21875 L 1.3125 -13.6875 L 1.359375 -14.140625 L 1.296875 -15.90625 L 1.53125 -16.484375 L 2 -16.71875 L 2.5625 -16.71875 L 3.015625 -16.65625 L 4.96875 -16.65625 L 5.453125 -16.75 L 5.875 -16.703125 L 8.765625 -16.703125 L 9.203125 -16.4375 L 9.484375 -15.984375 L 9.453125 -13.625 L 9.21875 -13.234375 L 8.71875 -13.046875 L 8.25 -12.96875 L 7.71875 -12.75 L 7.546875 -12.203125 L 7.453125 -9.796875 L 7.546875 -8.078125 L 7.5 -7.546875 L 7.53125 -4.921875 L 7.453125 -4.46875 L 7.734375 -3.921875 L 8.3125 -3.734375 L 8.8125 -3.734375 L 9.34375 -3.46875 L 9.625 -3.015625 L 9.625 -0.640625 L 9.390625 -0.1875 L 8.953125 0.046875 Z M 8 0.09375 "/></g></g></g><g fill="#12123f" fill-opacity="1"><g transform="translate(135.196204, 37.59433)"><g><path d="M 1.796875 -0.984375 L 1.796875 -4.515625 L 1.75 -5 L 1.765625 -6.921875 L 1.8125 -7.375 L 1.765625 -7.84375 L 1.765625 -8.3125 L 1.75 -8.84375 L 1.8125 -9.796875 L 1.765625 -10.265625 L 1.75 -15.75 L 2.03125 -16.40625 L 2.453125 -16.65625 L 3.875 -16.765625 L 4.390625 -16.75 L 4.875 -16.65625 L 5.34375 -16.65625 L 5.78125 -16.765625 L 6.265625 -16.765625 L 6.734375 -16.671875 L 8.171875 -16.671875 L 8.859375 -16.71875 L 9.625 -16.703125 L 10.984375 -16.390625 L 11.890625 -16.078125 L 12.734375 -15.625 L 14.09375 -14.1875 L 14.359375 -13.8125 L 14.546875 -13.40625 L 14.984375 -12.046875 L 15.046875 -11.5625 L 15.09375 -10.0625 L 14.78125 -8.671875 L 13.859375 -7 L 13.515625 -6.71875 L 13.1875 -6.359375 L 12.96875 -5.828125 L 13 -5.25 L 13.28125 -4.890625 L 14.046875 -3.65625 L 14.265625 -3.21875 L 15.078125 -2 L 15.265625 -1.546875 L 15.546875 -1.21875 L 15.8125 -0.6875 L 15.671875 -0.171875 L 15.21875 0.046875 L 14.4375 0.078125 L 13.96875 0.03125 L 12.09375 0.046875 L 11.28125 -0.171875 L 10.75 -0.59375 L 10.484375 -1 L 10.296875 -1.484375 L 10.03125 -1.84375 L 9.578125 -2.703125 L 9.078125 -3.421875 L 8.890625 -3.84375 L 8.59375 -4.328125 L 8.125 -4.734375 L 6.734375 -4.921875 L 6.28125 -4.65625 L 6.0625 -4.1875 L 6.015625 -2.65625 L 6.09375 -2.15625 L 6.046875 -1.71875 L 6.046875 -0.90625 L 5.828125 -0.21875 L 5.0625 0.03125 L 4.34375 0.03125 L 3.96875 0.078125 L 3.203125 0 L 2.71875 0.078125 L 2.03125 -0.234375 Z M 6.734375 -8.75 L 7.265625 -8.796875 L 8.40625 -8.75 L 8.859375 -8.765625 L 9.5625 -8.9375 L 9.984375 -9.125 L 10.25 -9.34375 L 10.515625 -9.703125 L 10.734375 -10.171875 L 10.796875 -10.890625 L 10.703125 -11.515625 L 10.5625 -11.890625 L 9.96875 -12.640625 L 9.515625 -12.75 L 8.890625 -12.8125 L 8.21875 -12.953125 L 7.265625 -12.859375 L 6.78125 -12.875 L 6.28125 -12.6875 L 6.0625 -12.234375 L 6.015625 -11.234375 L 6.0625 -10.828125 L 6.0625 -9.390625 L 6.265625 -9 Z M 6.734375 -8.75 "/></g></g></g><g fill="#12123f" fill-opacity="1"><g transform="translate(152.90154, 37.59433)"><g><path d="M 1.796875 -0.984375 L 1.796875 -4.515625 L 1.75 -5 L 1.765625 -6.921875 L 1.8125 -7.375 L 1.765625 -7.84375 L 1.765625 -8.3125 L 1.75 -8.84375 L 1.8125 -9.796875 L 1.765625 -10.265625 L 1.75 -15.75 L 2.03125 -16.40625 L 2.453125 -16.65625 L 3.875 -16.765625 L 4.390625 -16.75 L 4.875 -16.65625 L 5.34375 -16.65625 L 5.78125 -16.765625 L 6.265625 -16.765625 L 6.734375 -16.671875 L 8.171875 -16.671875 L 8.859375 -16.71875 L 9.625 -16.703125 L 10.984375 -16.390625 L 11.890625 -16.078125 L 12.734375 -15.625 L 14.09375 -14.1875 L 14.359375 -13.8125 L 14.546875 -13.40625 L 14.984375 -12.046875 L 15.046875 -11.5625 L 15.09375 -10.0625 L 14.78125 -8.671875 L 13.859375 -7 L 13.515625 -6.71875 L 13.1875 -6.359375 L 12.96875 -5.828125 L 13 -5.25 L 13.28125 -4.890625 L 14.046875 -3.65625 L 14.265625 -3.21875 L 15.078125 -2 L 15.265625 -1.546875 L 15.546875 -1.21875 L 15.8125 -0.6875 L 15.671875 -0.171875 L 15.21875 0.046875 L 14.4375 0.078125 L 13.96875 0.03125 L 12.09375 0.046875 L 11.28125 -0.171875 L 10.75 -0.59375 L 10.484375 -1 L 10.296875 -1.484375 L 10.03125 -1.84375 L 9.578125 -2.703125 L 9.078125 -3.421875 L 8.890625 -3.84375 L 8.59375 -4.328125 L 8.125 -4.734375 L 6.734375 -4.921875 L 6.28125 -4.65625 L 6.0625 -4.1875 L 6.015625 -2.65625 L 6.09375 -2.15625 L 6.046875 -1.71875 L 6.046875 -0.90625 L 5.828125 -0.21875 L 5.0625 0.03125 L 4.34375 0.03125 L 3.96875 0.078125 L 3.203125 0 L 2.71875 0.078125 L 2.03125 -0.234375 Z M 6.734375 -8.75 L 7.265625 -8.796875 L 8.40625 -8.75 L 8.859375 -8.765625 L 9.5625 -8.9375 L 9.984375 -9.125 L 10.25 -9.34375 L 10.515625 -9.703125 L 10.734375 -10.171875 L 10.796875 -10.890625 L 10.703125 -11.515625 L 10.5625 -11.890625 L 9.96875 -12.640625 L 9.515625 -12.75 L 8.890625 -12.8125 L 8.21875 -12.953125 L 7.265625 -12.859375 L 6.78125 -12.875 L 6.28125 -12.6875 L 6.0625 -12.234375 L 6.015625 -11.234375 L 6.0625 -10.828125 L 6.0625 -9.390625 L 6.265625 -9 Z M 6.734375 -8.75 "/></g></g></g><g fill="#12123f" fill-opacity="1"><g transform="translate(170.606875, 37.59433)"><g><path d="M 8.21875 0.3125 L 7.453125 0.265625 L 6.96875 0.265625 L 6.046875 0.078125 L 5.140625 -0.328125 L 4.78125 -0.546875 L 4.296875 -0.765625 L 3.53125 -1.265625 L 3.171875 -1.578125 L 2.890625 -1.90625 L 2.34375 -2.765625 L 1.953125 -3.578125 L 1.71875 -4.5625 L 1.578125 -6.46875 L 1.65625 -10.328125 L 1.59375 -10.78125 L 1.671875 -11.25 L 1.59375 -14.59375 L 1.65625 -14.984375 L 1.65625 -15.546875 L 1.59375 -16.03125 L 1.90625 -16.484375 L 2.40625 -16.671875 L 2.921875 -16.75 L 3.9375 -16.65625 L 4.421875 -16.71875 L 4.875 -16.71875 L 5.375 -16.515625 L 5.65625 -15.984375 L 5.703125 -15.296875 L 5.65625 -14.53125 L 5.703125 -14.171875 L 5.640625 -6.46875 L 5.78125 -5.09375 L 5.921875 -4.640625 L 6.21875 -4.25 L 6.59375 -3.96875 L 7 -3.734375 L 7.546875 -3.609375 L 8.984375 -3.609375 L 9.8125 -3.921875 L 10.21875 -4.203125 L 10.484375 -4.6875 L 10.625 -5.046875 L 10.796875 -6.515625 L 10.75 -15.9375 L 11.015625 -16.453125 L 11.515625 -16.703125 L 12.515625 -16.625 L 14.03125 -16.671875 L 14.546875 -16.515625 L 14.859375 -16 L 14.78125 -15.53125 L 14.78125 -13.546875 L 14.84375 -13.15625 L 14.78125 -12.640625 L 14.84375 -12.1875 L 14.84375 -5.734375 L 14.71875 -4.59375 L 14.5 -3.578125 L 14.265625 -3.171875 L 14.125 -2.703125 L 13.5625 -1.859375 L 12.90625 -1.1875 L 12.109375 -0.671875 L 11.25 -0.21875 L 9.390625 0.265625 L 8.9375 0.234375 Z M 8.21875 0.3125 "/></g></g></g><g fill="#12123f" fill-opacity="1"><g transform="translate(188.216642, 37.59433)"><g><path d="M 6.421875 0.21875 L 5.453125 0.046875 L 4.515625 -0.28125 L 4.03125 -0.4375 L 3.578125 -0.640625 L 3.25 -1 L 2.40625 -1.53125 L 2.109375 -1.890625 L 1.765625 -2.203125 L 1.3125 -3.078125 L 1.171875 -3.515625 L 1.078125 -3.984375 L 1 -4.46875 L 1.1875 -4.96875 L 1.625 -5.15625 L 3.46875 -5.25 L 3.921875 -5.1875 L 4.34375 -5.234375 L 4.828125 -5.046875 L 5.609375 -4.1875 L 6.015625 -3.921875 L 6.421875 -3.703125 L 7.640625 -3.578125 L 8.078125 -3.65625 L 8.8125 -3.703125 L 9.625 -4.0625 L 9.9375 -4.421875 L 10.125 -5.015625 L 9.984375 -5.609375 L 9.671875 -5.90625 L 8.8125 -6.3125 L 5.0625 -6.734375 L 4.203125 -7.03125 L 2.578125 -7.90625 L 1.703125 -9 L 1.3125 -9.84375 L 1.140625 -10.796875 L 1.125 -11.546875 L 1.1875 -12.703125 L 1.625 -14.03125 L 2.453125 -15.140625 L 3.609375 -15.9375 L 4.421875 -16.40625 L 5.328125 -16.703125 L 5.75 -16.765625 L 6.234375 -16.796875 L 6.765625 -16.9375 L 8.59375 -16.890625 L 9.53125 -16.703125 L 10.875 -16.25 L 12.453125 -15.140625 L 12.96875 -14.4375 L 13.640625 -13.1875 L 13.6875 -12.734375 L 13.78125 -12.28125 L 13.59375 -11.875 L 13.140625 -11.546875 L 12.703125 -11.59375 L 12.234375 -11.59375 L 11.59375 -11.640625 L 10.46875 -11.546875 L 9.9375 -11.84375 L 9.578125 -12.328125 L 9.171875 -12.65625 L 8.75 -12.953125 L 8.3125 -13.0625 L 7.546875 -13.15625 L 6.78125 -13.140625 L 6.359375 -13.046875 L 5.96875 -12.828125 L 5.609375 -12.5625 L 5.328125 -12.25 L 5.203125 -11.609375 L 5.296875 -10.890625 L 5.65625 -10.5625 L 6.546875 -10.125 L 7.8125 -9.859375 L 8.5 -9.859375 L 9 -9.765625 L 9.484375 -9.75 L 9.96875 -9.671875 L 11.828125 -9.109375 L 12.25 -8.84375 L 12.640625 -8.65625 L 13.0625 -8.265625 L 13.6875 -7.546875 L 13.953125 -7.171875 L 14.3125 -5.78125 L 14.359375 -5.015625 L 14.21875 -3.828125 L 14.078125 -3.421875 L 13.921875 -2.984375 L 13.671875 -2.453125 L 13.421875 -2.125 L 12.734375 -1.40625 L 11.109375 -0.4375 L 10.65625 -0.21875 L 10.21875 -0.171875 L 9.75 0.03125 L 9.265625 0.09375 L 8.796875 0.21875 L 8.3125 0.265625 Z M 6.421875 0.21875 "/></g></g></g><g fill="#12123f" fill-opacity="1"><g transform="translate(204.58393, 37.59433)"><g><path d="M 1.8125 -0.859375 L 1.796875 -9.8125 L 1.75 -10.265625 L 1.71875 -10.796875 L 1.796875 -11.6875 L 1.75 -12.15625 L 1.796875 -12.609375 L 1.796875 -15.953125 L 2 -16.484375 L 2.515625 -16.671875 L 2.96875 -16.75 L 3.921875 -16.65625 L 4.390625 -16.75 L 5.328125 -16.75 L 5.8125 -16.453125 L 6.046875 -15.9375 L 6.015625 -15.484375 L 6.09375 -14.125 L 6.046875 -13.15625 L 6.09375 -12.59375 L 6.0625 -4.484375 L 6.265625 -4.015625 L 6.734375 -3.828125 L 7.234375 -3.875 L 8.171875 -3.828125 L 8.59375 -3.890625 L 9.078125 -3.796875 L 10.0625 -3.828125 L 10.5625 -3.75 L 11.015625 -3.84375 L 11.515625 -3.890625 L 11.953125 -3.609375 L 12.15625 -2.890625 L 12.1875 -0.953125 L 11.921875 -0.21875 L 11.46875 0.03125 L 6.734375 0 L 6.21875 0.046875 L 5.75 -0.03125 L 4.84375 0.03125 L 3.921875 -0.03125 L 2.921875 0.046875 L 2.4375 0 L 1.984375 -0.234375 Z M 1.8125 -0.859375 "/></g></g></g><g fill="#12123f" fill-opacity="1"><g transform="translate(218.561829, 37.59433)"><g><path d="M 5.46875 -0.71875 L 5.5 -1.625 L 5.453125 -2.078125 L 5.5 -3.921875 L 5.453125 -4.390625 L 5.46875 -6.28125 L 5.34375 -6.921875 L 5.109375 -7.59375 L 3.265625 -10.515625 L 3.078125 -10.9375 L 2.515625 -11.703125 L 1.53125 -13.40625 L 1.265625 -13.734375 L 0.234375 -15.4375 L 0 -15.984375 L 0.078125 -16.515625 L 0.546875 -16.75 L 1.65625 -16.671875 L 2.859375 -16.765625 L 3.265625 -16.671875 L 3.78125 -16.703125 L 4.328125 -16.484375 L 4.828125 -16.03125 L 5.953125 -13.921875 L 6.21875 -13.515625 L 6.921875 -12.1875 L 7.1875 -11.796875 L 7.453125 -11.34375 L 7.71875 -11.34375 L 8.03125 -11.75 L 8.4375 -12.65625 L 8.671875 -13.0625 L 8.90625 -13.5625 L 9.4375 -14.328125 L 9.71875 -15.046875 L 10.34375 -16.078125 L 10.78125 -16.484375 L 11.421875 -16.71875 L 11.828125 -16.703125 L 12.75 -16.71875 L 13.234375 -16.65625 L 13.734375 -16.703125 L 14.671875 -16.671875 L 15.09375 -16.578125 L 15.1875 -16.046875 L 14.9375 -15.453125 L 13.40625 -12.921875 L 13.109375 -12.59375 L 10.078125 -7.59375 L 9.84375 -6.96875 L 9.703125 -6.28125 L 9.71875 -4.890625 L 9.65625 -4.46875 L 9.65625 -3.984375 L 9.703125 -3.515625 L 9.625 -0.734375 L 9.4375 -0.234375 L 8.953125 0.03125 L 8.484375 -0.03125 L 7.8125 0.03125 L 7.078125 -0.03125 L 6.640625 0.03125 L 6.15625 0 L 5.65625 -0.1875 Z M 5.46875 -0.71875 "/></g></g></g><g fill="#12123f" fill-opacity="1"><g transform="translate(103.871374, 66.714903)"><g><path d="M 8.3125 0.1875 L 7.859375 0.171875 L 7.4375 0.078125 L 6.953125 -0.09375 L 6.515625 -0.1875 L 5.453125 -0.640625 L 4.421875 -1.1875 L 3.34375 -2.125 L 2.359375 -3.171875 L 1.34375 -5.25 L 1 -6.625 L 0.859375 -8.359375 L 1.09375 -10.421875 L 1.34375 -11.390625 L 1.9375 -12.734375 L 2.390625 -13.421875 L 3.03125 -14.234375 L 4.0625 -15.171875 L 4.75 -15.703125 L 6.515625 -16.53125 L 8.84375 -16.984375 L 10.328125 -16.96875 L 10.796875 -16.890625 L 11.25 -16.859375 L 13.546875 -16.109375 L 15.171875 -15.078125 L 15.84375 -14.375 L 16.109375 -13.921875 L 16.4375 -13.515625 L 16.65625 -13.140625 L 16.921875 -12.75 L 17.0625 -12.25 L 17.21875 -11.828125 L 17.375 -11.296875 L 17.203125 -10.828125 L 16.796875 -10.625 L 16.078125 -10.5625 L 15.40625 -10.625 L 14.9375 -10.609375 L 14.4375 -10.625 L 14 -10.578125 L 13.453125 -10.84375 L 13 -11.296875 L 12.734375 -11.65625 L 12.046875 -12.34375 L 11.703125 -12.609375 L 11.28125 -12.78125 L 10.53125 -13 L 9.515625 -13.046875 L 7.90625 -12.828125 L 7.265625 -12.46875 L 6.6875 -12.015625 L 6.109375 -11.34375 L 5.875 -10.890625 L 5.515625 -10.03125 L 5.34375 -9.078125 L 5.34375 -7.625 L 5.421875 -7.09375 L 5.546875 -6.671875 L 5.703125 -6.328125 L 5.875 -5.859375 L 6.40625 -5.015625 L 7.09375 -4.390625 L 7.9375 -3.96875 L 8.796875 -3.65625 L 9.484375 -3.578125 L 10.75 -3.65625 L 11.59375 -4.109375 L 11.953125 -4.25 L 12.328125 -4.59375 L 12.875 -5.203125 L 13.109375 -5.65625 L 13.5 -6.046875 L 14.046875 -6.328125 L 14.53125 -6.3125 L 15 -6.328125 L 15.484375 -6.265625 L 16.8125 -6.359375 L 17.296875 -6.046875 L 17.4375 -5.609375 L 16.8125 -3.796875 L 16.3125 -2.9375 L 15.765625 -2.21875 L 15.09375 -1.546875 L 13.921875 -0.71875 L 13.515625 -0.53125 L 13.015625 -0.359375 L 12.59375 -0.125 L 11.1875 0.171875 L 9.515625 0.28125 Z M 8.3125 0.1875 "/></g></g></g><g fill="#12123f" fill-opacity="1"><g transform="translate(123.225388, 66.714903)"><g><path d="M 9.578125 0.3125 L 8.140625 0.234375 L 6.109375 -0.359375 L 5.65625 -0.546875 L 4.03125 -1.40625 L 3.734375 -1.765625 L 3.0625 -2.40625 L 1.9375 -3.9375 L 1.703125 -4.375 L 1.546875 -4.875 L 1.1875 -5.6875 L 0.9375 -7.1875 L 1.03125 -9.96875 L 1.21875 -10.984375 L 1.671875 -12.296875 L 1.890625 -12.703125 L 2.703125 -13.90625 L 3.34375 -14.625 L 4.109375 -15.140625 L 4.4375 -15.4375 L 5.65625 -16.203125 L 6.5625 -16.4375 L 7 -16.625 L 7.484375 -16.765625 L 7.953125 -16.859375 L 9.625 -16.96875 L 10.75 -16.9375 L 13.875 -15.953125 L 15.09375 -15.1875 L 16.125 -14.265625 L 16.4375 -13.828125 L 16.71875 -13.546875 L 17.03125 -13.140625 L 17.203125 -12.703125 L 17.625 -11.921875 L 17.75 -11.375 L 17.9375 -10.875 L 18.140625 -9.984375 L 18.25 -8.34375 L 18.140625 -6.671875 L 18.03125 -6.140625 L 17.890625 -5.75 L 17.828125 -5.28125 L 17.65625 -4.828125 L 16.71875 -3.171875 L 16.40625 -2.75 L 14.734375 -1.140625 L 12.609375 -0.1875 L 11.703125 0.09375 Z M 8.90625 -3.890625 L 10.296875 -3.9375 L 10.75 -4.0625 L 11.1875 -4.109375 L 11.5625 -4.328125 L 12 -4.515625 L 12.734375 -5.09375 L 13.015625 -5.515625 L 13.234375 -5.875 L 13.5 -6.234375 L 13.71875 -7.21875 L 13.859375 -8.40625 L 13.765625 -9.4375 L 13.59375 -9.859375 L 13.453125 -10.34375 L 13.265625 -10.78125 L 12.703125 -11.59375 L 11.96875 -12.140625 L 10.703125 -12.6875 L 9.5625 -12.75 L 8.453125 -12.65625 L 7.953125 -12.546875 L 7.53125 -12.328125 L 6.828125 -11.84375 L 6.46875 -11.546875 L 6.15625 -11.15625 L 5.953125 -10.75 L 5.65625 -10.421875 L 5.515625 -9.984375 L 5.34375 -9.109375 L 5.328125 -8.390625 L 5.453125 -7.1875 L 5.90625 -5.859375 L 6.21875 -5.515625 L 6.453125 -5.1875 L 7.1875 -4.546875 L 8 -4.109375 L 8.4375 -4.0625 Z M 8.90625 -3.890625 "/></g></g></g><g fill="#12123f" fill-opacity="1"><g transform="translate(143.51126, 66.714903)"><g><path d="M 2.484375 0.078125 L 2 -0.234375 L 1.75 -0.734375 L 1.765625 -6.015625 L 1.71875 -6.46875 L 1.796875 -8.890625 L 1.75 -9.359375 L 1.765625 -13.1875 L 1.71875 -13.625 L 1.796875 -14.546875 L 1.71875 -16 L 1.984375 -16.515625 L 2.515625 -16.75 L 3.171875 -16.5625 L 3.734375 -16.15625 L 4.34375 -15.5 L 4.734375 -15.171875 L 5.34375 -14.4375 L 5.6875 -14.140625 L 7.859375 -11.734375 L 8.390625 -11.25 L 8.8125 -10.703125 L 9.15625 -10.375 L 9.4375 -9.96875 L 9.9375 -9.765625 L 10.375 -10.0625 L 11.828125 -11.546875 L 12.140625 -11.953125 L 14.234375 -14.09375 L 14.578125 -14.53125 L 14.859375 -14.78125 L 15.171875 -15.171875 L 16.171875 -16.21875 L 16.671875 -16.53125 L 17.375 -16.75 L 17.875 -16.484375 L 18.15625 -15.984375 L 18.109375 -15.53125 L 18.140625 -14.546875 L 18.109375 -14.140625 L 18.15625 -13.109375 L 18.140625 -12.65625 L 18.15625 -10.296875 L 18.109375 -9.765625 L 18.15625 -2.609375 L 18.109375 -2.125 L 18.1875 -0.890625 L 17.890625 -0.1875 L 17.390625 0.078125 L 14.5 -0.03125 L 14 -0.171875 L 13.8125 -0.71875 L 13.8125 -1.078125 L 13.765625 -2.15625 L 13.8125 -2.578125 L 13.765625 -3.46875 L 13.8125 -4.390625 L 13.734375 -5.34375 L 13.78125 -6.671875 L 13.59375 -7.03125 L 13.28125 -6.875 L 12.296875 -5.875 L 11.96875 -5.640625 L 11.296875 -4.84375 L 11.015625 -4.5625 L 10.671875 -4.203125 L 10.203125 -3.84375 L 9.671875 -3.875 L 9.171875 -4.234375 L 8.53125 -4.84375 L 8.21875 -5.234375 L 7.234375 -6.21875 L 6.953125 -6.5625 L 6.5625 -6.875 L 6.328125 -6.96875 L 6.109375 -6.765625 L 6.109375 -5.828125 L 6.15625 -5.296875 L 6.109375 -4.4375 L 6.140625 -3.9375 L 6.0625 -3.203125 L 6.140625 -0.6875 L 5.859375 -0.265625 L 5.1875 0.03125 L 4.421875 -0.03125 L 3.890625 0.046875 L 2.96875 0 Z M 2.484375 0.078125 "/></g></g></g><g fill="#12123f" fill-opacity="1"><g transform="translate(164.609532, 66.714903)"><g><path d="M 2.484375 0.078125 L 2 -0.234375 L 1.75 -0.734375 L 1.765625 -6.015625 L 1.71875 -6.46875 L 1.796875 -8.890625 L 1.75 -9.359375 L 1.765625 -13.1875 L 1.71875 -13.625 L 1.796875 -14.546875 L 1.71875 -16 L 1.984375 -16.515625 L 2.515625 -16.75 L 3.171875 -16.5625 L 3.734375 -16.15625 L 4.34375 -15.5 L 4.734375 -15.171875 L 5.34375 -14.4375 L 5.6875 -14.140625 L 7.859375 -11.734375 L 8.390625 -11.25 L 8.8125 -10.703125 L 9.15625 -10.375 L 9.4375 -9.96875 L 9.9375 -9.765625 L 10.375 -10.0625 L 11.828125 -11.546875 L 12.140625 -11.953125 L 14.234375 -14.09375 L 14.578125 -14.53125 L 14.859375 -14.78125 L 15.171875 -15.171875 L 16.171875 -16.21875 L 16.671875 -16.53125 L 17.375 -16.75 L 17.875 -16.484375 L 18.15625 -15.984375 L 18.109375 -15.53125 L 18.140625 -14.546875 L 18.109375 -14.140625 L 18.15625 -13.109375 L 18.140625 -12.65625 L 18.15625 -10.296875 L 18.109375 -9.765625 L 18.15625 -2.609375 L 18.109375 -2.125 L 18.1875 -0.890625 L 17.890625 -0.1875 L 17.390625 0.078125 L 14.5 -0.03125 L 14 -0.171875 L 13.8125 -0.71875 L 13.8125 -1.078125 L 13.765625 -2.15625 L 13.8125 -2.578125 L 13.765625 -3.46875 L 13.8125 -4.390625 L 13.734375 -5.34375 L 13.78125 -6.671875 L 13.59375 -7.03125 L 13.28125 -6.875 L 12.296875 -5.875 L 11.96875 -5.640625 L 11.296875 -4.84375 L 11.015625 -4.5625 L 10.671875 -4.203125 L 10.203125 -3.84375 L 9.671875 -3.875 L 9.171875 -4.234375 L 8.53125 -4.84375 L 8.21875 -5.234375 L 7.234375 -6.21875 L 6.953125 -6.5625 L 6.5625 -6.875 L 6.328125 -6.96875 L 6.109375 -6.765625 L 6.109375 -5.828125 L 6.15625 -5.296875 L 6.109375 -4.4375 L 6.140625 -3.9375 L 6.0625 -3.203125 L 6.140625 -0.6875 L 5.859375 -0.265625 L 5.1875 0.03125 L 4.421875 -0.03125 L 3.890625 0.046875 L 2.96875 0 Z M 2.484375 0.078125 "/></g></g></g><g fill="#12123f" fill-opacity="1"><g transform="translate(185.707804, 66.714903)"><g><path d="M 8.3125 0.078125 L 7.84375 0.03125 L 7.359375 0.078125 L 6.8125 0.046875 L 6.359375 -0.046875 L 5.375 0.03125 L 4.953125 0 L 4.421875 0.046875 L 2.703125 0.03125 L 1.984375 -0.28125 L 1.796875 -0.9375 L 1.75 -1.453125 L 1.8125 -3.109375 L 1.75 -3.578125 L 1.796875 -4.03125 L 1.8125 -7.90625 L 1.75 -8.34375 L 1.765625 -10.296875 L 1.8125 -10.75 L 1.75 -11.25 L 1.796875 -13.59375 L 1.71875 -14.125 L 1.796875 -15.09375 L 1.75 -16 L 2 -16.515625 L 2.515625 -16.703125 L 2.984375 -16.671875 L 3.46875 -16.71875 L 3.890625 -16.671875 L 4.34375 -16.765625 L 4.828125 -16.703125 L 6.78125 -16.75 L 7.265625 -16.703125 L 7.671875 -16.71875 L 8.140625 -16.671875 L 8.671875 -16.71875 L 10.609375 -16.75 L 11.03125 -16.65625 L 11.546875 -16.65625 L 12.015625 -16.453125 L 12.234375 -16 L 12.28125 -14.578125 L 12.25 -14.09375 L 12.28125 -13.625 L 12.046875 -13.1875 L 11.546875 -12.90625 L 11.078125 -12.875 L 7.671875 -12.921875 L 7.21875 -12.828125 L 6.765625 -12.859375 L 6.234375 -12.65625 L 6.015625 -12.203125 L 6.015625 -11.46875 L 6.21875 -10.734375 L 6.71875 -10.515625 L 8.09375 -10.5625 L 9.109375 -10.484375 L 9.609375 -10.53125 L 11.015625 -10.53125 L 11.5625 -10.21875 L 11.796875 -9.5625 L 11.734375 -7.40625 L 11.5625 -6.921875 L 11.078125 -6.734375 L 10.53125 -6.765625 L 10.0625 -6.71875 L 9.078125 -6.734375 L 8.171875 -6.6875 L 7.40625 -6.765625 L 6.6875 -6.734375 L 6.265625 -6.46875 L 6.046875 -5.96875 L 6.046875 -4.46875 L 6.234375 -4.03125 L 6.734375 -3.796875 L 7.265625 -3.84375 L 7.71875 -3.78125 L 8.25 -3.796875 L 8.71875 -3.75 L 9.515625 -3.84375 L 10.734375 -3.828125 L 11.1875 -3.75 L 11.734375 -3.796875 L 12.234375 -3.578125 L 12.5 -3.109375 L 12.5 -0.6875 L 12.234375 -0.1875 L 11.734375 0.03125 Z M 8.3125 0.078125 "/></g></g></g><g fill="#12123f" fill-opacity="1"><g transform="translate(200.521994, 66.714903)"><g><path d="M 1.796875 -0.984375 L 1.796875 -4.515625 L 1.75 -5 L 1.765625 -6.921875 L 1.8125 -7.375 L 1.765625 -7.84375 L 1.765625 -8.3125 L 1.75 -8.84375 L 1.8125 -9.796875 L 1.765625 -10.265625 L 1.75 -15.75 L 2.03125 -16.40625 L 2.453125 -16.65625 L 3.875 -16.765625 L 4.390625 -16.75 L 4.875 -16.65625 L 5.34375 -16.65625 L 5.78125 -16.765625 L 6.265625 -16.765625 L 6.734375 -16.671875 L 8.171875 -16.671875 L 8.859375 -16.71875 L 9.625 -16.703125 L 10.984375 -16.390625 L 11.890625 -16.078125 L 12.734375 -15.625 L 14.09375 -14.1875 L 14.359375 -13.8125 L 14.546875 -13.40625 L 14.984375 -12.046875 L 15.046875 -11.5625 L 15.09375 -10.0625 L 14.78125 -8.671875 L 13.859375 -7 L 13.515625 -6.71875 L 13.1875 -6.359375 L 12.96875 -5.828125 L 13 -5.25 L 13.28125 -4.890625 L 14.046875 -3.65625 L 14.265625 -3.21875 L 15.078125 -2 L 15.265625 -1.546875 L 15.546875 -1.21875 L 15.8125 -0.6875 L 15.671875 -0.171875 L 15.21875 0.046875 L 14.4375 0.078125 L 13.96875 0.03125 L 12.09375 0.046875 L 11.28125 -0.171875 L 10.75 -0.59375 L 10.484375 -1 L 10.296875 -1.484375 L 10.03125 -1.84375 L 9.578125 -2.703125 L 9.078125 -3.421875 L 8.890625 -3.84375 L 8.59375 -4.328125 L 8.125 -4.734375 L 6.734375 -4.921875 L 6.28125 -4.65625 L 6.0625 -4.1875 L 6.015625 -2.65625 L 6.09375 -2.15625 L 6.046875 -1.71875 L 6.046875 -0.90625 L 5.828125 -0.21875 L 5.0625 0.03125 L 4.34375 0.03125 L 3.96875 0.078125 L 3.203125 0 L 2.71875 0.078125 L 2.03125 -0.234375 Z M 6.734375 -8.75 L 7.265625 -8.796875 L 8.40625 -8.75 L 8.859375 -8.765625 L 9.5625 -8.9375 L 9.984375 -9.125 L 10.25 -9.34375 L 10.515625 -9.703125 L 10.734375 -10.171875 L 10.796875 -10.890625 L 10.703125 -11.515625 L 10.5625 -11.890625 L 9.96875 -12.640625 L 9.515625 -12.75 L 8.890625 -12.8125 L 8.21875 -12.953125 L 7.265625 -12.859375 L 6.78125 -12.875 L 6.28125 -12.6875 L 6.0625 -12.234375 L 6.015625 -11.234375 L 6.0625 -10.828125 L 6.0625 -9.390625 L 6.265625 -9 Z M 6.734375 -8.75 "/></g></g></g><g fill="#12123f" fill-opacity="1"><g transform="translate(218.227329, 66.714903)"><g><path d="M 8.3125 0.1875 L 7.859375 0.171875 L 7.4375 0.078125 L 6.953125 -0.09375 L 6.515625 -0.1875 L 5.453125 -0.640625 L 4.421875 -1.1875 L 3.34375 -2.125 L 2.359375 -3.171875 L 1.34375 -5.25 L 1 -6.625 L 0.859375 -8.359375 L 1.09375 -10.421875 L 1.34375 -11.390625 L 1.9375 -12.734375 L 2.390625 -13.421875 L 3.03125 -14.234375 L 4.0625 -15.171875 L 4.75 -15.703125 L 6.515625 -16.53125 L 8.84375 -16.984375 L 10.328125 -16.96875 L 10.796875 -16.890625 L 11.25 -16.859375 L 13.546875 -16.109375 L 15.171875 -15.078125 L 15.84375 -14.375 L 16.109375 -13.921875 L 16.4375 -13.515625 L 16.65625 -13.140625 L 16.921875 -12.75 L 17.0625 -12.25 L 17.21875 -11.828125 L 17.375 -11.296875 L 17.203125 -10.828125 L 16.796875 -10.625 L 16.078125 -10.5625 L 15.40625 -10.625 L 14.9375 -10.609375 L 14.4375 -10.625 L 14 -10.578125 L 13.453125 -10.84375 L 13 -11.296875 L 12.734375 -11.65625 L 12.046875 -12.34375 L 11.703125 -12.609375 L 11.28125 -12.78125 L 10.53125 -13 L 9.515625 -13.046875 L 7.90625 -12.828125 L 7.265625 -12.46875 L 6.6875 -12.015625 L 6.109375 -11.34375 L 5.875 -10.890625 L 5.515625 -10.03125 L 5.34375 -9.078125 L 5.34375 -7.625 L 5.421875 -7.09375 L 5.546875 -6.671875 L 5.703125 -6.328125 L 5.875 -5.859375 L 6.40625 -5.015625 L 7.09375 -4.390625 L 7.9375 -3.96875 L 8.796875 -3.65625 L 9.484375 -3.578125 L 10.75 -3.65625 L 11.59375 -4.109375 L 11.953125 -4.25 L 12.328125 -4.59375 L 12.875 -5.203125 L 13.109375 -5.65625 L 13.5 -6.046875 L 14.046875 -6.328125 L 14.53125 -6.3125 L 15 -6.328125 L 15.484375 -6.265625 L 16.8125 -6.359375 L 17.296875 -6.046875 L 17.4375 -5.609375 L 16.8125 -3.796875 L 16.3125 -2.9375 L 15.765625 -2.21875 L 15.09375 -1.546875 L 13.921875 -0.71875 L 13.515625 -0.53125 L 13.015625 -0.359375 L 12.59375 -0.125 L 11.1875 0.171875 L 9.515625 0.28125 Z M 8.3125 0.1875 "/></g></g></g><g fill="#12123f" fill-opacity="1"><g transform="translate(237.581343, 66.714903)"><g><path d="M 8.3125 0.078125 L 7.84375 0.03125 L 7.359375 0.078125 L 6.8125 0.046875 L 6.359375 -0.046875 L 5.375 0.03125 L 4.953125 0 L 4.421875 0.046875 L 2.703125 0.03125 L 1.984375 -0.28125 L 1.796875 -0.9375 L 1.75 -1.453125 L 1.8125 -3.109375 L 1.75 -3.578125 L 1.796875 -4.03125 L 1.8125 -7.90625 L 1.75 -8.34375 L 1.765625 -10.296875 L 1.8125 -10.75 L 1.75 -11.25 L 1.796875 -13.59375 L 1.71875 -14.125 L 1.796875 -15.09375 L 1.75 -16 L 2 -16.515625 L 2.515625 -16.703125 L 2.984375 -16.671875 L 3.46875 -16.71875 L 3.890625 -16.671875 L 4.34375 -16.765625 L 4.828125 -16.703125 L 6.78125 -16.75 L 7.265625 -16.703125 L 7.671875 -16.71875 L 8.140625 -16.671875 L 8.671875 -16.71875 L 10.609375 -16.75 L 11.03125 -16.65625 L 11.546875 -16.65625 L 12.015625 -16.453125 L 12.234375 -16 L 12.28125 -14.578125 L 12.25 -14.09375 L 12.28125 -13.625 L 12.046875 -13.1875 L 11.546875 -12.90625 L 11.078125 -12.875 L 7.671875 -12.921875 L 7.21875 -12.828125 L 6.765625 -12.859375 L 6.234375 -12.65625 L 6.015625 -12.203125 L 6.015625 -11.46875 L 6.21875 -10.734375 L 6.71875 -10.515625 L 8.09375 -10.5625 L 9.109375 -10.484375 L 9.609375 -10.53125 L 11.015625 -10.53125 L 11.5625 -10.21875 L 11.796875 -9.5625 L 11.734375 -7.40625 L 11.5625 -6.921875 L 11.078125 -6.734375 L 10.53125 -6.765625 L 10.0625 -6.71875 L 9.078125 -6.734375 L 8.171875 -6.6875 L 7.40625 -6.765625 L 6.6875 -6.734375 L 6.265625 -6.46875 L 6.046875 -5.96875 L 6.046875 -4.46875 L 6.234375 -4.03125 L 6.734375 -3.796875 L 7.265625 -3.84375 L 7.71875 -3.78125 L 8.25 -3.796875 L 8.71875 -3.75 L 9.515625 -3.84375 L 10.734375 -3.828125 L 11.1875 -3.75 L 11.734375 -3.796875 L 12.234375 -3.578125 L 12.5 -3.109375 L 12.5 -0.6875 L 12.234375 -0.1875 L 11.734375 0.03125 Z M 8.3125 0.078125 "/></g></g></g><path stroke-linecap="round" transform="matrix(0.746681, 0, 0, 0.746681, 103.871374, 71.211513)" fill="none" stroke-linejoin="miter" d="M 0.998838 0.998442 L 189.84487 0.998442 " stroke="#12123f" stroke-width="2" stroke-opacity="1" stroke-miterlimit="4"/><g fill="#12123f" fill-opacity="1"><g transform="translate(103.871374, 84.623886)"><g><path d="M 9.1875 0 C 9.207031 -0.425781 9.226562 -0.953125 9.25 -1.578125 C 9.269531 -2.203125 9.28125 -2.878906 9.28125 -3.609375 C 9.28125 -4.347656 9.273438 -5.09375 9.265625 -5.84375 C 8.796875 -4.882812 8.347656 -3.914062 7.921875 -2.9375 C 7.492188 -1.957031 7.082031 -0.972656 6.6875 0.015625 L 5.109375 0.015625 C 4.722656 -0.972656 4.316406 -1.953125 3.890625 -2.921875 C 3.460938 -3.890625 3.019531 -4.847656 2.5625 -5.796875 C 2.5625 -5.316406 2.5625 -4.804688 2.5625 -4.265625 C 2.5625 -3.734375 2.566406 -3.203125 2.578125 -2.671875 C 2.585938 -2.140625 2.597656 -1.644531 2.609375 -1.1875 C 2.617188 -0.726562 2.632812 -0.332031 2.65625 0 L 0.859375 0 C 0.878906 -0.375 0.894531 -0.804688 0.90625 -1.296875 C 0.925781 -1.796875 0.9375 -2.320312 0.9375 -2.875 C 0.945312 -3.4375 0.945312 -3.992188 0.9375 -4.546875 C 0.9375 -5.097656 0.925781 -5.617188 0.90625 -6.109375 C 0.894531 -6.609375 0.878906 -7.046875 0.859375 -7.421875 C 1.023438 -7.398438 1.222656 -7.378906 1.453125 -7.359375 C 1.679688 -7.347656 1.921875 -7.34375 2.171875 -7.34375 C 2.421875 -7.34375 2.65625 -7.347656 2.875 -7.359375 C 3.101562 -7.378906 3.300781 -7.398438 3.46875 -7.421875 C 3.832031 -6.421875 4.21875 -5.429688 4.625 -4.453125 C 5.039062 -3.484375 5.46875 -2.519531 5.90625 -1.5625 C 6.375 -2.519531 6.816406 -3.484375 7.234375 -4.453125 C 7.648438 -5.421875 8.054688 -6.410156 8.453125 -7.421875 C 8.671875 -7.390625 8.9375 -7.367188 9.25 -7.359375 C 9.5625 -7.347656 9.878906 -7.347656 10.203125 -7.359375 C 10.523438 -7.367188 10.796875 -7.390625 11.015625 -7.421875 C 10.992188 -7.035156 10.972656 -6.59375 10.953125 -6.09375 C 10.941406 -5.59375 10.929688 -5.066406 10.921875 -4.515625 C 10.921875 -3.960938 10.925781 -3.410156 10.9375 -2.859375 C 10.945312 -2.304688 10.957031 -1.785156 10.96875 -1.296875 C 10.988281 -0.804688 11.007812 -0.375 11.03125 0 Z M 9.1875 0 "/></g></g></g><g fill="#12123f" fill-opacity="1"><g transform="translate(120.642104, 84.623886)"><g><path d="M 5.46875 0.15625 C 4.414062 0.15625 3.515625 0.00390625 2.765625 -0.296875 C 2.023438 -0.609375 1.453125 -1.050781 1.046875 -1.625 C 0.648438 -2.207031 0.453125 -2.90625 0.453125 -3.71875 C 0.453125 -4.539062 0.648438 -5.238281 1.046875 -5.8125 C 1.453125 -6.394531 2.023438 -6.835938 2.765625 -7.140625 C 3.515625 -7.453125 4.414062 -7.609375 5.46875 -7.609375 C 6.507812 -7.609375 7.40625 -7.453125 8.15625 -7.140625 C 8.90625 -6.835938 9.472656 -6.394531 9.859375 -5.8125 C 10.253906 -5.238281 10.453125 -4.539062 10.453125 -3.71875 C 10.453125 -2.90625 10.253906 -2.207031 9.859375 -1.625 C 9.472656 -1.050781 8.90625 -0.609375 8.15625 -0.296875 C 7.40625 0.00390625 6.507812 0.15625 5.46875 0.15625 Z M 5.46875 -0.96875 C 6.488281 -0.96875 7.289062 -1.203125 7.875 -1.671875 C 8.457031 -2.148438 8.75 -2.820312 8.75 -3.6875 C 8.75 -4.269531 8.617188 -4.769531 8.359375 -5.1875 C 8.097656 -5.601562 7.71875 -5.921875 7.21875 -6.140625 C 6.726562 -6.367188 6.144531 -6.484375 5.46875 -6.484375 C 4.425781 -6.484375 3.617188 -6.234375 3.046875 -5.734375 C 2.472656 -5.242188 2.1875 -4.5625 2.1875 -3.6875 C 2.1875 -2.820312 2.472656 -2.148438 3.046875 -1.671875 C 3.617188 -1.203125 4.425781 -0.96875 5.46875 -0.96875 Z M 5.46875 -0.96875 "/></g></g></g><g fill="#12123f" fill-opacity="1"><g transform="translate(136.437555, 84.623886)"><g><path d="M 0.859375 0 C 0.878906 -0.375 0.894531 -0.804688 0.90625 -1.296875 C 0.925781 -1.796875 0.9375 -2.320312 0.9375 -2.875 C 0.945312 -3.4375 0.945312 -3.992188 0.9375 -4.546875 C 0.9375 -5.097656 0.925781 -5.617188 0.90625 -6.109375 C 0.894531 -6.609375 0.878906 -7.046875 0.859375 -7.421875 C 1.429688 -7.410156 1.941406 -7.40625 2.390625 -7.40625 C 2.847656 -7.414062 3.296875 -7.421875 3.734375 -7.421875 C 4.179688 -7.429688 4.671875 -7.4375 5.203125 -7.4375 C 6.585938 -7.4375 7.613281 -7.257812 8.28125 -6.90625 C 8.945312 -6.5625 9.28125 -6.019531 9.28125 -5.28125 C 9.28125 -4.894531 9.203125 -4.570312 9.046875 -4.3125 C 8.890625 -4.0625 8.679688 -3.851562 8.421875 -3.6875 C 8.171875 -3.519531 7.898438 -3.390625 7.609375 -3.296875 C 7.316406 -3.210938 7.023438 -3.148438 6.734375 -3.109375 C 6.453125 -3.078125 6.210938 -3.0625 6.015625 -3.0625 L 6.015625 -2.9375 C 6.503906 -2.851562 6.941406 -2.707031 7.328125 -2.5 C 7.710938 -2.289062 8.050781 -2.039062 8.34375 -1.75 C 8.632812 -1.46875 8.882812 -1.171875 9.09375 -0.859375 C 9.300781 -0.554688 9.46875 -0.269531 9.59375 0 L 7.234375 0 C 7.117188 -0.625 6.929688 -1.128906 6.671875 -1.515625 C 6.421875 -1.898438 6.066406 -2.191406 5.609375 -2.390625 C 5.160156 -2.585938 4.59375 -2.707031 3.90625 -2.75 C 3.664062 -2.769531 3.441406 -2.78125 3.234375 -2.78125 C 3.035156 -2.789062 2.832031 -2.796875 2.625 -2.796875 C 2.625 -2.347656 2.628906 -1.960938 2.640625 -1.640625 C 2.648438 -1.316406 2.660156 -1.023438 2.671875 -0.765625 C 2.691406 -0.515625 2.710938 -0.257812 2.734375 0 Z M 2.609375 -3.828125 C 2.953125 -3.828125 3.316406 -3.816406 3.703125 -3.796875 C 4.085938 -3.773438 4.472656 -3.765625 4.859375 -3.765625 C 5.703125 -3.765625 6.347656 -3.863281 6.796875 -4.0625 C 7.242188 -4.269531 7.46875 -4.613281 7.46875 -5.09375 C 7.46875 -5.539062 7.257812 -5.851562 6.84375 -6.03125 C 6.425781 -6.21875 5.863281 -6.3125 5.15625 -6.3125 C 4.675781 -6.3125 4.207031 -6.304688 3.75 -6.296875 C 3.300781 -6.296875 2.929688 -6.296875 2.640625 -6.296875 C 2.617188 -5.523438 2.609375 -4.703125 2.609375 -3.828125 Z M 2.609375 -3.828125 "/></g></g></g><g fill="#12123f" fill-opacity="1"><g transform="translate(151.287588, 84.623886)"><g><path d="M 0.859375 0 C 0.878906 -0.375 0.894531 -0.8125 0.90625 -1.3125 C 0.925781 -1.8125 0.9375 -2.335938 0.9375 -2.890625 C 0.945312 -3.453125 0.945312 -4.007812 0.9375 -4.5625 C 0.9375 -5.113281 0.925781 -5.632812 0.90625 -6.125 C 0.894531 -6.625 0.878906 -7.054688 0.859375 -7.421875 C 1.066406 -7.398438 1.359375 -7.378906 1.734375 -7.359375 C 2.117188 -7.347656 2.554688 -7.335938 3.046875 -7.328125 C 3.546875 -7.316406 4.066406 -7.3125 4.609375 -7.3125 C 5.160156 -7.3125 5.703125 -7.3125 6.234375 -7.3125 C 6.765625 -7.3125 7.253906 -7.316406 7.703125 -7.328125 C 8.148438 -7.347656 8.53125 -7.367188 8.84375 -7.390625 C 8.800781 -6.898438 8.800781 -6.398438 8.84375 -5.890625 C 8.5 -5.953125 8.070312 -6.007812 7.5625 -6.0625 C 7.050781 -6.125 6.503906 -6.171875 5.921875 -6.203125 C 5.347656 -6.242188 4.773438 -6.269531 4.203125 -6.28125 C 3.640625 -6.300781 3.125 -6.304688 2.65625 -6.296875 C 2.644531 -5.941406 2.632812 -5.585938 2.625 -5.234375 C 2.625 -4.878906 2.628906 -4.53125 2.640625 -4.1875 C 3.097656 -4.175781 3.578125 -4.171875 4.078125 -4.171875 C 4.585938 -4.179688 5.085938 -4.191406 5.578125 -4.203125 C 6.066406 -4.222656 6.53125 -4.242188 6.96875 -4.265625 C 7.40625 -4.285156 7.789062 -4.300781 8.125 -4.3125 C 8.09375 -3.894531 8.09375 -3.476562 8.125 -3.0625 C 7.789062 -3.082031 7.40625 -3.097656 6.96875 -3.109375 C 6.53125 -3.128906 6.066406 -3.144531 5.578125 -3.15625 C 5.085938 -3.175781 4.585938 -3.1875 4.078125 -3.1875 C 3.578125 -3.1875 3.097656 -3.179688 2.640625 -3.171875 C 2.640625 -2.835938 2.640625 -2.5 2.640625 -2.15625 C 2.640625 -1.8125 2.648438 -1.46875 2.671875 -1.125 C 3.148438 -1.113281 3.671875 -1.117188 4.234375 -1.140625 C 4.804688 -1.160156 5.378906 -1.1875 5.953125 -1.21875 C 6.523438 -1.257812 7.0625 -1.300781 7.5625 -1.34375 C 8.070312 -1.394531 8.5 -1.453125 8.84375 -1.515625 C 8.800781 -1.015625 8.800781 -0.507812 8.84375 0 Z M 0.859375 0 "/></g></g></g><g fill="#12123f" fill-opacity="1"><g transform="translate(165.590269, 84.623886)"><g/></g></g><g fill="#12123f" fill-opacity="1"><g transform="translate(173.454122, 84.623886)"><g><path d="M 5.140625 -7.4375 C 6.054688 -7.4375 6.804688 -7.351562 7.390625 -7.1875 C 7.972656 -7.03125 8.40625 -6.769531 8.6875 -6.40625 C 8.96875 -6.039062 9.109375 -5.546875 9.109375 -4.921875 C 9.109375 -4.410156 8.988281 -3.957031 8.75 -3.5625 C 8.519531 -3.164062 8.125 -2.859375 7.5625 -2.640625 C 7.007812 -2.421875 6.257812 -2.3125 5.3125 -2.3125 L 2.609375 -2.3125 C 2.617188 -1.875 2.632812 -1.457031 2.65625 -1.0625 C 2.6875 -0.664062 2.71875 -0.3125 2.75 0 L 0.859375 0 C 0.878906 -0.351562 0.894531 -0.773438 0.90625 -1.265625 C 0.925781 -1.765625 0.9375 -2.289062 0.9375 -2.84375 C 0.945312 -3.40625 0.945312 -3.960938 0.9375 -4.515625 C 0.9375 -5.078125 0.925781 -5.609375 0.90625 -6.109375 C 0.894531 -6.609375 0.878906 -7.046875 0.859375 -7.421875 C 1.296875 -7.410156 1.691406 -7.40625 2.046875 -7.40625 C 2.410156 -7.40625 2.75 -7.40625 3.0625 -7.40625 C 3.382812 -7.414062 3.710938 -7.421875 4.046875 -7.421875 C 4.378906 -7.429688 4.742188 -7.4375 5.140625 -7.4375 Z M 4.859375 -3.328125 C 5.734375 -3.328125 6.375 -3.453125 6.78125 -3.703125 C 7.1875 -3.960938 7.390625 -4.335938 7.390625 -4.828125 C 7.390625 -5.367188 7.175781 -5.75 6.75 -5.96875 C 6.320312 -6.195312 5.675781 -6.3125 4.8125 -6.3125 C 4.476562 -6.3125 4.109375 -6.304688 3.703125 -6.296875 C 3.304688 -6.296875 2.9375 -6.296875 2.59375 -6.296875 C 2.59375 -5.847656 2.585938 -5.367188 2.578125 -4.859375 C 2.578125 -4.359375 2.582031 -3.859375 2.59375 -3.359375 C 2.976562 -3.359375 3.359375 -3.351562 3.734375 -3.34375 C 4.109375 -3.332031 4.484375 -3.328125 4.859375 -3.328125 Z M 4.859375 -3.328125 "/></g></g></g><g fill="#12123f" fill-opacity="1"><g transform="translate(187.826462, 84.623886)"><g><path d="M 0.859375 0 C 0.878906 -0.375 0.894531 -0.804688 0.90625 -1.296875 C 0.925781 -1.796875 0.9375 -2.320312 0.9375 -2.875 C 0.945312 -3.4375 0.945312 -3.992188 0.9375 -4.546875 C 0.9375 -5.097656 0.925781 -5.617188 0.90625 -6.109375 C 0.894531 -6.609375 0.878906 -7.046875 0.859375 -7.421875 C 1.429688 -7.410156 1.941406 -7.40625 2.390625 -7.40625 C 2.847656 -7.414062 3.296875 -7.421875 3.734375 -7.421875 C 4.179688 -7.429688 4.671875 -7.4375 5.203125 -7.4375 C 6.585938 -7.4375 7.613281 -7.257812 8.28125 -6.90625 C 8.945312 -6.5625 9.28125 -6.019531 9.28125 -5.28125 C 9.28125 -4.894531 9.203125 -4.570312 9.046875 -4.3125 C 8.890625 -4.0625 8.679688 -3.851562 8.421875 -3.6875 C 8.171875 -3.519531 7.898438 -3.390625 7.609375 -3.296875 C 7.316406 -3.210938 7.023438 -3.148438 6.734375 -3.109375 C 6.453125 -3.078125 6.210938 -3.0625 6.015625 -3.0625 L 6.015625 -2.9375 C 6.503906 -2.851562 6.941406 -2.707031 7.328125 -2.5 C 7.710938 -2.289062 8.050781 -2.039062 8.34375 -1.75 C 8.632812 -1.46875 8.882812 -1.171875 9.09375 -0.859375 C 9.300781 -0.554688 9.46875 -0.269531 9.59375 0 L 7.234375 0 C 7.117188 -0.625 6.929688 -1.128906 6.671875 -1.515625 C 6.421875 -1.898438 6.066406 -2.191406 5.609375 -2.390625 C 5.160156 -2.585938 4.59375 -2.707031 3.90625 -2.75 C 3.664062 -2.769531 3.441406 -2.78125 3.234375 -2.78125 C 3.035156 -2.789062 2.832031 -2.796875 2.625 -2.796875 C 2.625 -2.347656 2.628906 -1.960938 2.640625 -1.640625 C 2.648438 -1.316406 2.660156 -1.023438 2.671875 -0.765625 C 2.691406 -0.515625 2.710938 -0.257812 2.734375 0 Z M 2.609375 -3.828125 C 2.953125 -3.828125 3.316406 -3.816406 3.703125 -3.796875 C 4.085938 -3.773438 4.472656 -3.765625 4.859375 -3.765625 C 5.703125 -3.765625 6.347656 -3.863281 6.796875 -4.0625 C 7.242188 -4.269531 7.46875 -4.613281 7.46875 -5.09375 C 7.46875 -5.539062 7.257812 -5.851562 6.84375 -6.03125 C 6.425781 -6.21875 5.863281 -6.3125 5.15625 -6.3125 C 4.675781 -6.3125 4.207031 -6.304688 3.75 -6.296875 C 3.300781 -6.296875 2.929688 -6.296875 2.640625 -6.296875 C 2.617188 -5.523438 2.609375 -4.703125 2.609375 -3.828125 Z M 2.609375 -3.828125 "/></g></g></g><g fill="#12123f" fill-opacity="1"><g transform="translate(202.676495, 84.623886)"><g><path d="M 5.46875 0.15625 C 4.414062 0.15625 3.515625 0.00390625 2.765625 -0.296875 C 2.023438 -0.609375 1.453125 -1.050781 1.046875 -1.625 C 0.648438 -2.207031 0.453125 -2.90625 0.453125 -3.71875 C 0.453125 -4.539062 0.648438 -5.238281 1.046875 -5.8125 C 1.453125 -6.394531 2.023438 -6.835938 2.765625 -7.140625 C 3.515625 -7.453125 4.414062 -7.609375 5.46875 -7.609375 C 6.507812 -7.609375 7.40625 -7.453125 8.15625 -7.140625 C 8.90625 -6.835938 9.472656 -6.394531 9.859375 -5.8125 C 10.253906 -5.238281 10.453125 -4.539062 10.453125 -3.71875 C 10.453125 -2.90625 10.253906 -2.207031 9.859375 -1.625 C 9.472656 -1.050781 8.90625 -0.609375 8.15625 -0.296875 C 7.40625 0.00390625 6.507812 0.15625 5.46875 0.15625 Z M 5.46875 -0.96875 C 6.488281 -0.96875 7.289062 -1.203125 7.875 -1.671875 C 8.457031 -2.148438 8.75 -2.820312 8.75 -3.6875 C 8.75 -4.269531 8.617188 -4.769531 8.359375 -5.1875 C 8.097656 -5.601562 7.71875 -5.921875 7.21875 -6.140625 C 6.726562 -6.367188 6.144531 -6.484375 5.46875 -6.484375 C 4.425781 -6.484375 3.617188 -6.234375 3.046875 -5.734375 C 2.472656 -5.242188 2.1875 -4.5625 2.1875 -3.6875 C 2.1875 -2.820312 2.472656 -2.148438 3.046875 -1.671875 C 3.617188 -1.203125 4.425781 -0.96875 5.46875 -0.96875 Z M 5.46875 -0.96875 "/></g></g></g><g fill="#12123f" fill-opacity="1"><g transform="translate(218.471946, 84.623886)"><g><path d="M 0.890625 0 C 0.921875 -0.375 0.941406 -0.804688 0.953125 -1.296875 C 0.960938 -1.796875 0.96875 -2.320312 0.96875 -2.875 C 0.976562 -3.4375 0.976562 -3.992188 0.96875 -4.546875 C 0.96875 -5.097656 0.960938 -5.617188 0.953125 -6.109375 C 0.941406 -6.609375 0.921875 -7.046875 0.890625 -7.421875 C 1.085938 -7.398438 1.367188 -7.378906 1.734375 -7.359375 C 2.097656 -7.347656 2.515625 -7.335938 2.984375 -7.328125 C 3.453125 -7.316406 3.941406 -7.3125 4.453125 -7.3125 C 4.960938 -7.3125 5.46875 -7.3125 5.96875 -7.3125 C 6.476562 -7.3125 6.945312 -7.316406 7.375 -7.328125 C 7.8125 -7.347656 8.179688 -7.367188 8.484375 -7.390625 C 8.453125 -6.898438 8.453125 -6.398438 8.484375 -5.890625 C 8.140625 -5.953125 7.726562 -6.007812 7.25 -6.0625 C 6.78125 -6.113281 6.273438 -6.15625 5.734375 -6.1875 C 5.203125 -6.226562 4.671875 -6.253906 4.140625 -6.265625 C 3.617188 -6.285156 3.140625 -6.296875 2.703125 -6.296875 C 2.679688 -5.910156 2.671875 -5.519531 2.671875 -5.125 C 2.671875 -4.726562 2.671875 -4.332031 2.671875 -3.9375 C 3.253906 -3.9375 3.847656 -3.941406 4.453125 -3.953125 C 5.066406 -3.960938 5.660156 -3.976562 6.234375 -4 C 6.804688 -4.03125 7.316406 -4.054688 7.765625 -4.078125 C 7.722656 -3.671875 7.722656 -3.253906 7.765625 -2.828125 C 7.316406 -2.847656 6.804688 -2.867188 6.234375 -2.890625 C 5.660156 -2.921875 5.066406 -2.9375 4.453125 -2.9375 C 3.847656 -2.945312 3.253906 -2.945312 2.671875 -2.9375 C 2.671875 -2.457031 2.679688 -1.96875 2.703125 -1.46875 C 2.722656 -0.976562 2.769531 -0.488281 2.84375 0 Z M 0.890625 0 "/></g></g></g><g fill="#12123f" fill-opacity="1"><g transform="translate(232.097901, 84.623886)"><g><path d="M 0.890625 0 C 0.921875 -0.375 0.941406 -0.804688 0.953125 -1.296875 C 0.960938 -1.796875 0.96875 -2.320312 0.96875 -2.875 C 0.976562 -3.4375 0.976562 -3.992188 0.96875 -4.546875 C 0.96875 -5.097656 0.960938 -5.617188 0.953125 -6.109375 C 0.941406 -6.609375 0.921875 -7.046875 0.890625 -7.421875 C 1.210938 -7.367188 1.53125 -7.34375 1.84375 -7.34375 C 2.15625 -7.34375 2.460938 -7.367188 2.765625 -7.421875 C 2.742188 -7.046875 2.722656 -6.609375 2.703125 -6.109375 C 2.691406 -5.609375 2.679688 -5.082031 2.671875 -4.53125 C 2.671875 -3.976562 2.675781 -3.425781 2.6875 -2.875 C 2.695312 -2.320312 2.707031 -1.796875 2.71875 -1.296875 C 2.738281 -0.804688 2.757812 -0.375 2.78125 0 Z M 0.890625 0 "/></g></g></g><g fill="#12123f" fill-opacity="1"><g transform="translate(240.658372, 84.623886)"><g><path d="M 3.609375 0 C 3.640625 -0.394531 3.660156 -0.84375 3.671875 -1.34375 C 3.679688 -1.851562 3.6875 -2.390625 3.6875 -2.953125 C 3.695312 -3.523438 3.695312 -4.097656 3.6875 -4.671875 C 3.6875 -5.242188 3.679688 -5.785156 3.671875 -6.296875 C 2.941406 -6.285156 2.289062 -6.253906 1.71875 -6.203125 C 1.15625 -6.160156 0.613281 -6.097656 0.09375 -6.015625 C 0.175781 -6.484375 0.175781 -6.953125 0.09375 -7.421875 C 0.914062 -7.398438 1.691406 -7.382812 2.421875 -7.375 C 3.148438 -7.363281 3.863281 -7.359375 4.5625 -7.359375 C 5.257812 -7.359375 5.96875 -7.363281 6.6875 -7.375 C 7.414062 -7.382812 8.191406 -7.398438 9.015625 -7.421875 C 8.929688 -6.953125 8.929688 -6.484375 9.015625 -6.015625 C 8.492188 -6.097656 7.945312 -6.160156 7.375 -6.203125 C 6.8125 -6.253906 6.160156 -6.285156 5.421875 -6.296875 C 5.410156 -5.785156 5.398438 -5.242188 5.390625 -4.671875 C 5.390625 -4.097656 5.394531 -3.523438 5.40625 -2.953125 C 5.414062 -2.390625 5.425781 -1.851562 5.4375 -1.34375 C 5.457031 -0.84375 5.476562 -0.394531 5.5 0 Z M 3.609375 0 "/></g></g></g><g fill="#12123f" fill-opacity="1"><g transform="translate(254.652541, 84.623886)"><g><path d="M 1.40625 0.09375 C 0.769531 0.09375 0.453125 -0.132812 0.453125 -0.59375 C 0.453125 -1.0625 0.769531 -1.296875 1.40625 -1.296875 C 2.03125 -1.296875 2.34375 -1.0625 2.34375 -0.59375 C 2.34375 -0.132812 2.03125 0.09375 1.40625 0.09375 Z M 1.40625 0.09375 "/></g></g></g><g fill="#12123f" fill-opacity="1"><g transform="translate(262.34283, 84.623886)"><g/></g></g><g fill="#12123f" fill-opacity="1"><g transform="translate(103.871374, 98.064151)"><g><path d="M 0.859375 0 C 0.929688 -2.476562 0.929688 -4.953125 0.859375 -7.421875 C 1.171875 -7.367188 1.488281 -7.335938 1.8125 -7.328125 C 2.132812 -7.328125 2.441406 -7.359375 2.734375 -7.421875 C 2.710938 -7.140625 2.691406 -6.796875 2.671875 -6.390625 C 2.660156 -5.992188 2.648438 -5.566406 2.640625 -5.109375 C 2.640625 -4.648438 2.632812 -4.179688 2.625 -3.703125 C 2.625 -3.222656 2.625 -2.757812 2.625 -2.3125 C 2.632812 -1.875 2.644531 -1.472656 2.65625 -1.109375 C 2.945312 -1.109375 3.296875 -1.113281 3.703125 -1.125 C 4.117188 -1.132812 4.5625 -1.148438 5.03125 -1.171875 C 5.5 -1.203125 5.960938 -1.226562 6.421875 -1.25 C 6.878906 -1.28125 7.304688 -1.316406 7.703125 -1.359375 C 8.109375 -1.398438 8.441406 -1.445312 8.703125 -1.5 C 8.679688 -1.195312 8.671875 -0.929688 8.671875 -0.703125 C 8.671875 -0.484375 8.679688 -0.25 8.703125 0 Z M 0.859375 0 "/></g></g></g><g fill="#12123f" fill-opacity="1"><g transform="translate(117.915309, 98.064151)"><g><path d="M 0.859375 0 C 0.878906 -0.375 0.894531 -0.8125 0.90625 -1.3125 C 0.925781 -1.8125 0.9375 -2.335938 0.9375 -2.890625 C 0.945312 -3.453125 0.945312 -4.007812 0.9375 -4.5625 C 0.9375 -5.113281 0.925781 -5.632812 0.90625 -6.125 C 0.894531 -6.625 0.878906 -7.054688 0.859375 -7.421875 C 1.066406 -7.398438 1.359375 -7.378906 1.734375 -7.359375 C 2.117188 -7.347656 2.554688 -7.335938 3.046875 -7.328125 C 3.546875 -7.316406 4.066406 -7.3125 4.609375 -7.3125 C 5.160156 -7.3125 5.703125 -7.3125 6.234375 -7.3125 C 6.765625 -7.3125 7.253906 -7.316406 7.703125 -7.328125 C 8.148438 -7.347656 8.53125 -7.367188 8.84375 -7.390625 C 8.800781 -6.898438 8.800781 -6.398438 8.84375 -5.890625 C 8.5 -5.953125 8.070312 -6.007812 7.5625 -6.0625 C 7.050781 -6.125 6.503906 -6.171875 5.921875 -6.203125 C 5.347656 -6.242188 4.773438 -6.269531 4.203125 -6.28125 C 3.640625 -6.300781 3.125 -6.304688 2.65625 -6.296875 C 2.644531 -5.941406 2.632812 -5.585938 2.625 -5.234375 C 2.625 -4.878906 2.628906 -4.53125 2.640625 -4.1875 C 3.097656 -4.175781 3.578125 -4.171875 4.078125 -4.171875 C 4.585938 -4.179688 5.085938 -4.191406 5.578125 -4.203125 C 6.066406 -4.222656 6.53125 -4.242188 6.96875 -4.265625 C 7.40625 -4.285156 7.789062 -4.300781 8.125 -4.3125 C 8.09375 -3.894531 8.09375 -3.476562 8.125 -3.0625 C 7.789062 -3.082031 7.40625 -3.097656 6.96875 -3.109375 C 6.53125 -3.128906 6.066406 -3.144531 5.578125 -3.15625 C 5.085938 -3.175781 4.585938 -3.1875 4.078125 -3.1875 C 3.578125 -3.1875 3.097656 -3.179688 2.640625 -3.171875 C 2.640625 -2.835938 2.640625 -2.5 2.640625 -2.15625 C 2.640625 -1.8125 2.648438 -1.46875 2.671875 -1.125 C 3.148438 -1.113281 3.671875 -1.117188 4.234375 -1.140625 C 4.804688 -1.160156 5.378906 -1.1875 5.953125 -1.21875 C 6.523438 -1.257812 7.0625 -1.300781 7.5625 -1.34375 C 8.070312 -1.394531 8.5 -1.453125 8.84375 -1.515625 C 8.800781 -1.015625 8.800781 -0.507812 8.84375 0 Z M 0.859375 0 "/></g></g></g><g fill="#12123f" fill-opacity="1"><g transform="translate(132.21799, 98.064151)"><g><path d="M 5.421875 0.109375 C 4.515625 0.109375 3.65625 0.0234375 2.84375 -0.140625 C 2.039062 -0.304688 1.328125 -0.503906 0.703125 -0.734375 C 0.773438 -1.296875 0.773438 -1.851562 0.703125 -2.40625 C 0.929688 -2.175781 1.226562 -1.976562 1.59375 -1.8125 C 1.957031 -1.644531 2.359375 -1.503906 2.796875 -1.390625 C 3.242188 -1.285156 3.703125 -1.207031 4.171875 -1.15625 C 4.648438 -1.101562 5.117188 -1.078125 5.578125 -1.078125 C 6.328125 -1.078125 6.863281 -1.160156 7.1875 -1.328125 C 7.519531 -1.492188 7.6875 -1.738281 7.6875 -2.0625 C 7.6875 -2.351562 7.578125 -2.566406 7.359375 -2.703125 C 7.140625 -2.847656 6.796875 -2.957031 6.328125 -3.03125 C 5.867188 -3.101562 5.269531 -3.164062 4.53125 -3.21875 C 3.71875 -3.289062 3.015625 -3.394531 2.421875 -3.53125 C 1.835938 -3.675781 1.390625 -3.890625 1.078125 -4.171875 C 0.765625 -4.453125 0.609375 -4.835938 0.609375 -5.328125 C 0.609375 -6.804688 1.953125 -7.546875 4.640625 -7.546875 C 5.285156 -7.546875 5.851562 -7.519531 6.34375 -7.46875 C 6.832031 -7.414062 7.296875 -7.34375 7.734375 -7.25 C 8.171875 -7.15625 8.625 -7.054688 9.09375 -6.953125 C 9.007812 -6.421875 9.007812 -5.898438 9.09375 -5.390625 C 8.507812 -5.628906 7.835938 -5.847656 7.078125 -6.046875 C 6.328125 -6.253906 5.5 -6.359375 4.59375 -6.359375 C 3.820312 -6.359375 3.265625 -6.273438 2.921875 -6.109375 C 2.578125 -5.953125 2.40625 -5.710938 2.40625 -5.390625 C 2.40625 -5.117188 2.5 -4.90625 2.6875 -4.75 C 2.875 -4.601562 3.175781 -4.488281 3.59375 -4.40625 C 4.007812 -4.332031 4.554688 -4.269531 5.234375 -4.21875 C 5.867188 -4.175781 6.445312 -4.113281 6.96875 -4.03125 C 7.488281 -3.945312 7.9375 -3.828125 8.3125 -3.671875 C 8.6875 -3.515625 8.972656 -3.304688 9.171875 -3.046875 C 9.367188 -2.796875 9.46875 -2.46875 9.46875 -2.0625 C 9.46875 -0.613281 8.117188 0.109375 5.421875 0.109375 Z M 5.421875 0.109375 "/></g></g></g><g fill="#12123f" fill-opacity="1"><g transform="translate(147.187439, 98.064151)"><g><path d="M 5.421875 0.109375 C 4.515625 0.109375 3.65625 0.0234375 2.84375 -0.140625 C 2.039062 -0.304688 1.328125 -0.503906 0.703125 -0.734375 C 0.773438 -1.296875 0.773438 -1.851562 0.703125 -2.40625 C 0.929688 -2.175781 1.226562 -1.976562 1.59375 -1.8125 C 1.957031 -1.644531 2.359375 -1.503906 2.796875 -1.390625 C 3.242188 -1.285156 3.703125 -1.207031 4.171875 -1.15625 C 4.648438 -1.101562 5.117188 -1.078125 5.578125 -1.078125 C 6.328125 -1.078125 6.863281 -1.160156 7.1875 -1.328125 C 7.519531 -1.492188 7.6875 -1.738281 7.6875 -2.0625 C 7.6875 -2.351562 7.578125 -2.566406 7.359375 -2.703125 C 7.140625 -2.847656 6.796875 -2.957031 6.328125 -3.03125 C 5.867188 -3.101562 5.269531 -3.164062 4.53125 -3.21875 C 3.71875 -3.289062 3.015625 -3.394531 2.421875 -3.53125 C 1.835938 -3.675781 1.390625 -3.890625 1.078125 -4.171875 C 0.765625 -4.453125 0.609375 -4.835938 0.609375 -5.328125 C 0.609375 -6.804688 1.953125 -7.546875 4.640625 -7.546875 C 5.285156 -7.546875 5.851562 -7.519531 6.34375 -7.46875 C 6.832031 -7.414062 7.296875 -7.34375 7.734375 -7.25 C 8.171875 -7.15625 8.625 -7.054688 9.09375 -6.953125 C 9.007812 -6.421875 9.007812 -5.898438 9.09375 -5.390625 C 8.507812 -5.628906 7.835938 -5.847656 7.078125 -6.046875 C 6.328125 -6.253906 5.5 -6.359375 4.59375 -6.359375 C 3.820312 -6.359375 3.265625 -6.273438 2.921875 -6.109375 C 2.578125 -5.953125 2.40625 -5.710938 2.40625 -5.390625 C 2.40625 -5.117188 2.5 -4.90625 2.6875 -4.75 C 2.875 -4.601562 3.175781 -4.488281 3.59375 -4.40625 C 4.007812 -4.332031 4.554688 -4.269531 5.234375 -4.21875 C 5.867188 -4.175781 6.445312 -4.113281 6.96875 -4.03125 C 7.488281 -3.945312 7.9375 -3.828125 8.3125 -3.671875 C 8.6875 -3.515625 8.972656 -3.304688 9.171875 -3.046875 C 9.367188 -2.796875 9.46875 -2.46875 9.46875 -2.0625 C 9.46875 -0.613281 8.117188 0.109375 5.421875 0.109375 Z M 5.421875 0.109375 "/></g></g></g><g fill="#12123f" fill-opacity="1"><g transform="translate(162.156887, 98.064151)"><g/></g></g><g fill="#12123f" fill-opacity="1"><g transform="translate(170.02074, 98.064151)"><g><path d="M 5.421875 0.109375 C 4.515625 0.109375 3.65625 0.0234375 2.84375 -0.140625 C 2.039062 -0.304688 1.328125 -0.503906 0.703125 -0.734375 C 0.773438 -1.296875 0.773438 -1.851562 0.703125 -2.40625 C 0.929688 -2.175781 1.226562 -1.976562 1.59375 -1.8125 C 1.957031 -1.644531 2.359375 -1.503906 2.796875 -1.390625 C 3.242188 -1.285156 3.703125 -1.207031 4.171875 -1.15625 C 4.648438 -1.101562 5.117188 -1.078125 5.578125 -1.078125 C 6.328125 -1.078125 6.863281 -1.160156 7.1875 -1.328125 C 7.519531 -1.492188 7.6875 -1.738281 7.6875 -2.0625 C 7.6875 -2.351562 7.578125 -2.566406 7.359375 -2.703125 C 7.140625 -2.847656 6.796875 -2.957031 6.328125 -3.03125 C 5.867188 -3.101562 5.269531 -3.164062 4.53125 -3.21875 C 3.71875 -3.289062 3.015625 -3.394531 2.421875 -3.53125 C 1.835938 -3.675781 1.390625 -3.890625 1.078125 -4.171875 C 0.765625 -4.453125 0.609375 -4.835938 0.609375 -5.328125 C 0.609375 -6.804688 1.953125 -7.546875 4.640625 -7.546875 C 5.285156 -7.546875 5.851562 -7.519531 6.34375 -7.46875 C 6.832031 -7.414062 7.296875 -7.34375 7.734375 -7.25 C 8.171875 -7.15625 8.625 -7.054688 9.09375 -6.953125 C 9.007812 -6.421875 9.007812 -5.898438 9.09375 -5.390625 C 8.507812 -5.628906 7.835938 -5.847656 7.078125 -6.046875 C 6.328125 -6.253906 5.5 -6.359375 4.59375 -6.359375 C 3.820312 -6.359375 3.265625 -6.273438 2.921875 -6.109375 C 2.578125 -5.953125 2.40625 -5.710938 2.40625 -5.390625 C 2.40625 -5.117188 2.5 -4.90625 2.6875 -4.75 C 2.875 -4.601562 3.175781 -4.488281 3.59375 -4.40625 C 4.007812 -4.332031 4.554688 -4.269531 5.234375 -4.21875 C 5.867188 -4.175781 6.445312 -4.113281 6.96875 -4.03125 C 7.488281 -3.945312 7.9375 -3.828125 8.3125 -3.671875 C 8.6875 -3.515625 8.972656 -3.304688 9.171875 -3.046875 C 9.367188 -2.796875 9.46875 -2.46875 9.46875 -2.0625 C 9.46875 -0.613281 8.117188 0.109375 5.421875 0.109375 Z M 5.421875 0.109375 "/></g></g></g><g fill="#12123f" fill-opacity="1"><g transform="translate(184.990188, 98.064151)"><g><path d="M 3.609375 0 C 3.640625 -0.394531 3.660156 -0.84375 3.671875 -1.34375 C 3.679688 -1.851562 3.6875 -2.390625 3.6875 -2.953125 C 3.695312 -3.523438 3.695312 -4.097656 3.6875 -4.671875 C 3.6875 -5.242188 3.679688 -5.785156 3.671875 -6.296875 C 2.941406 -6.285156 2.289062 -6.253906 1.71875 -6.203125 C 1.15625 -6.160156 0.613281 -6.097656 0.09375 -6.015625 C 0.175781 -6.484375 0.175781 -6.953125 0.09375 -7.421875 C 0.914062 -7.398438 1.691406 -7.382812 2.421875 -7.375 C 3.148438 -7.363281 3.863281 -7.359375 4.5625 -7.359375 C 5.257812 -7.359375 5.96875 -7.363281 6.6875 -7.375 C 7.414062 -7.382812 8.191406 -7.398438 9.015625 -7.421875 C 8.929688 -6.953125 8.929688 -6.484375 9.015625 -6.015625 C 8.492188 -6.097656 7.945312 -6.160156 7.375 -6.203125 C 6.8125 -6.253906 6.160156 -6.285156 5.421875 -6.296875 C 5.410156 -5.785156 5.398438 -5.242188 5.390625 -4.671875 C 5.390625 -4.097656 5.394531 -3.523438 5.40625 -2.953125 C 5.414062 -2.390625 5.425781 -1.851562 5.4375 -1.34375 C 5.457031 -0.84375 5.476562 -0.394531 5.5 0 Z M 3.609375 0 "/></g></g></g><g fill="#12123f" fill-opacity="1"><g transform="translate(198.984357, 98.064151)"><g><path d="M 0.859375 0 C 0.878906 -0.375 0.894531 -0.804688 0.90625 -1.296875 C 0.925781 -1.796875 0.9375 -2.320312 0.9375 -2.875 C 0.945312 -3.4375 0.945312 -3.992188 0.9375 -4.546875 C 0.9375 -5.097656 0.925781 -5.617188 0.90625 -6.109375 C 0.894531 -6.609375 0.878906 -7.046875 0.859375 -7.421875 C 1.429688 -7.410156 1.941406 -7.40625 2.390625 -7.40625 C 2.847656 -7.414062 3.296875 -7.421875 3.734375 -7.421875 C 4.179688 -7.429688 4.671875 -7.4375 5.203125 -7.4375 C 6.585938 -7.4375 7.613281 -7.257812 8.28125 -6.90625 C 8.945312 -6.5625 9.28125 -6.019531 9.28125 -5.28125 C 9.28125 -4.894531 9.203125 -4.570312 9.046875 -4.3125 C 8.890625 -4.0625 8.679688 -3.851562 8.421875 -3.6875 C 8.171875 -3.519531 7.898438 -3.390625 7.609375 -3.296875 C 7.316406 -3.210938 7.023438 -3.148438 6.734375 -3.109375 C 6.453125 -3.078125 6.210938 -3.0625 6.015625 -3.0625 L 6.015625 -2.9375 C 6.503906 -2.851562 6.941406 -2.707031 7.328125 -2.5 C 7.710938 -2.289062 8.050781 -2.039062 8.34375 -1.75 C 8.632812 -1.46875 8.882812 -1.171875 9.09375 -0.859375 C 9.300781 -0.554688 9.46875 -0.269531 9.59375 0 L 7.234375 0 C 7.117188 -0.625 6.929688 -1.128906 6.671875 -1.515625 C 6.421875 -1.898438 6.066406 -2.191406 5.609375 -2.390625 C 5.160156 -2.585938 4.59375 -2.707031 3.90625 -2.75 C 3.664062 -2.769531 3.441406 -2.78125 3.234375 -2.78125 C 3.035156 -2.789062 2.832031 -2.796875 2.625 -2.796875 C 2.625 -2.347656 2.628906 -1.960938 2.640625 -1.640625 C 2.648438 -1.316406 2.660156 -1.023438 2.671875 -0.765625 C 2.691406 -0.515625 2.710938 -0.257812 2.734375 0 Z M 2.609375 -3.828125 C 2.953125 -3.828125 3.316406 -3.816406 3.703125 -3.796875 C 4.085938 -3.773438 4.472656 -3.765625 4.859375 -3.765625 C 5.703125 -3.765625 6.347656 -3.863281 6.796875 -4.0625 C 7.242188 -4.269531 7.46875 -4.613281 7.46875 -5.09375 C 7.46875 -5.539062 7.257812 -5.851562 6.84375 -6.03125 C 6.425781 -6.21875 5.863281 -6.3125 5.15625 -6.3125 C 4.675781 -6.3125 4.207031 -6.304688 3.75 -6.296875 C 3.300781 -6.296875 2.929688 -6.296875 2.640625 -6.296875 C 2.617188 -5.523438 2.609375 -4.703125 2.609375 -3.828125 Z M 2.609375 -3.828125 "/></g></g></g><g fill="#12123f" fill-opacity="1"><g transform="translate(213.83439, 98.064151)"><g><path d="M 0.859375 0 C 0.878906 -0.375 0.894531 -0.8125 0.90625 -1.3125 C 0.925781 -1.8125 0.9375 -2.335938 0.9375 -2.890625 C 0.945312 -3.453125 0.945312 -4.007812 0.9375 -4.5625 C 0.9375 -5.113281 0.925781 -5.632812 0.90625 -6.125 C 0.894531 -6.625 0.878906 -7.054688 0.859375 -7.421875 C 1.066406 -7.398438 1.359375 -7.378906 1.734375 -7.359375 C 2.117188 -7.347656 2.554688 -7.335938 3.046875 -7.328125 C 3.546875 -7.316406 4.066406 -7.3125 4.609375 -7.3125 C 5.160156 -7.3125 5.703125 -7.3125 6.234375 -7.3125 C 6.765625 -7.3125 7.253906 -7.316406 7.703125 -7.328125 C 8.148438 -7.347656 8.53125 -7.367188 8.84375 -7.390625 C 8.800781 -6.898438 8.800781 -6.398438 8.84375 -5.890625 C 8.5 -5.953125 8.070312 -6.007812 7.5625 -6.0625 C 7.050781 -6.125 6.503906 -6.171875 5.921875 -6.203125 C 5.347656 -6.242188 4.773438 -6.269531 4.203125 -6.28125 C 3.640625 -6.300781 3.125 -6.304688 2.65625 -6.296875 C 2.644531 -5.941406 2.632812 -5.585938 2.625 -5.234375 C 2.625 -4.878906 2.628906 -4.53125 2.640625 -4.1875 C 3.097656 -4.175781 3.578125 -4.171875 4.078125 -4.171875 C 4.585938 -4.179688 5.085938 -4.191406 5.578125 -4.203125 C 6.066406 -4.222656 6.53125 -4.242188 6.96875 -4.265625 C 7.40625 -4.285156 7.789062 -4.300781 8.125 -4.3125 C 8.09375 -3.894531 8.09375 -3.476562 8.125 -3.0625 C 7.789062 -3.082031 7.40625 -3.097656 6.96875 -3.109375 C 6.53125 -3.128906 6.066406 -3.144531 5.578125 -3.15625 C 5.085938 -3.175781 4.585938 -3.1875 4.078125 -3.1875 C 3.578125 -3.1875 3.097656 -3.179688 2.640625 -3.171875 C 2.640625 -2.835938 2.640625 -2.5 2.640625 -2.15625 C 2.640625 -1.8125 2.648438 -1.46875 2.671875 -1.125 C 3.148438 -1.113281 3.671875 -1.117188 4.234375 -1.140625 C 4.804688 -1.160156 5.378906 -1.1875 5.953125 -1.21875 C 6.523438 -1.257812 7.0625 -1.300781 7.5625 -1.34375 C 8.070312 -1.394531 8.5 -1.453125 8.84375 -1.515625 C 8.800781 -1.015625 8.800781 -0.507812 8.84375 0 Z M 0.859375 0 "/></g></g></g><g fill="#12123f" fill-opacity="1"><g transform="translate(228.137071, 98.064151)"><g><path d="M 5.421875 0.109375 C 4.515625 0.109375 3.65625 0.0234375 2.84375 -0.140625 C 2.039062 -0.304688 1.328125 -0.503906 0.703125 -0.734375 C 0.773438 -1.296875 0.773438 -1.851562 0.703125 -2.40625 C 0.929688 -2.175781 1.226562 -1.976562 1.59375 -1.8125 C 1.957031 -1.644531 2.359375 -1.503906 2.796875 -1.390625 C 3.242188 -1.285156 3.703125 -1.207031 4.171875 -1.15625 C 4.648438 -1.101562 5.117188 -1.078125 5.578125 -1.078125 C 6.328125 -1.078125 6.863281 -1.160156 7.1875 -1.328125 C 7.519531 -1.492188 7.6875 -1.738281 7.6875 -2.0625 C 7.6875 -2.351562 7.578125 -2.566406 7.359375 -2.703125 C 7.140625 -2.847656 6.796875 -2.957031 6.328125 -3.03125 C 5.867188 -3.101562 5.269531 -3.164062 4.53125 -3.21875 C 3.71875 -3.289062 3.015625 -3.394531 2.421875 -3.53125 C 1.835938 -3.675781 1.390625 -3.890625 1.078125 -4.171875 C 0.765625 -4.453125 0.609375 -4.835938 0.609375 -5.328125 C 0.609375 -6.804688 1.953125 -7.546875 4.640625 -7.546875 C 5.285156 -7.546875 5.851562 -7.519531 6.34375 -7.46875 C 6.832031 -7.414062 7.296875 -7.34375 7.734375 -7.25 C 8.171875 -7.15625 8.625 -7.054688 9.09375 -6.953125 C 9.007812 -6.421875 9.007812 -5.898438 9.09375 -5.390625 C 8.507812 -5.628906 7.835938 -5.847656 7.078125 -6.046875 C 6.328125 -6.253906 5.5 -6.359375 4.59375 -6.359375 C 3.820312 -6.359375 3.265625 -6.273438 2.921875 -6.109375 C 2.578125 -5.953125 2.40625 -5.710938 2.40625 -5.390625 C 2.40625 -5.117188 2.5 -4.90625 2.6875 -4.75 C 2.875 -4.601562 3.175781 -4.488281 3.59375 -4.40625 C 4.007812 -4.332031 4.554688 -4.269531 5.234375 -4.21875 C 5.867188 -4.175781 6.445312 -4.113281 6.96875 -4.03125 C 7.488281 -3.945312 7.9375 -3.828125 8.3125 -3.671875 C 8.6875 -3.515625 8.972656 -3.304688 9.171875 -3.046875 C 9.367188 -2.796875 9.46875 -2.46875 9.46875 -2.0625 C 9.46875 -0.613281 8.117188 0.109375 5.421875 0.109375 Z M 5.421875 0.109375 "/></g></g></g><g fill="#12123f" fill-opacity="1"><g transform="translate(243.106519, 98.064151)"><g><path d="M 5.421875 0.109375 C 4.515625 0.109375 3.65625 0.0234375 2.84375 -0.140625 C 2.039062 -0.304688 1.328125 -0.503906 0.703125 -0.734375 C 0.773438 -1.296875 0.773438 -1.851562 0.703125 -2.40625 C 0.929688 -2.175781 1.226562 -1.976562 1.59375 -1.8125 C 1.957031 -1.644531 2.359375 -1.503906 2.796875 -1.390625 C 3.242188 -1.285156 3.703125 -1.207031 4.171875 -1.15625 C 4.648438 -1.101562 5.117188 -1.078125 5.578125 -1.078125 C 6.328125 -1.078125 6.863281 -1.160156 7.1875 -1.328125 C 7.519531 -1.492188 7.6875 -1.738281 7.6875 -2.0625 C 7.6875 -2.351562 7.578125 -2.566406 7.359375 -2.703125 C 7.140625 -2.847656 6.796875 -2.957031 6.328125 -3.03125 C 5.867188 -3.101562 5.269531 -3.164062 4.53125 -3.21875 C 3.71875 -3.289062 3.015625 -3.394531 2.421875 -3.53125 C 1.835938 -3.675781 1.390625 -3.890625 1.078125 -4.171875 C 0.765625 -4.453125 0.609375 -4.835938 0.609375 -5.328125 C 0.609375 -6.804688 1.953125 -7.546875 4.640625 -7.546875 C 5.285156 -7.546875 5.851562 -7.519531 6.34375 -7.46875 C 6.832031 -7.414062 7.296875 -7.34375 7.734375 -7.25 C 8.171875 -7.15625 8.625 -7.054688 9.09375 -6.953125 C 9.007812 -6.421875 9.007812 -5.898438 9.09375 -5.390625 C 8.507812 -5.628906 7.835938 -5.847656 7.078125 -6.046875 C 6.328125 -6.253906 5.5 -6.359375 4.59375 -6.359375 C 3.820312 -6.359375 3.265625 -6.273438 2.921875 -6.109375 C 2.578125 -5.953125 2.40625 -5.710938 2.40625 -5.390625 C 2.40625 -5.117188 2.5 -4.90625 2.6875 -4.75 C 2.875 -4.601562 3.175781 -4.488281 3.59375 -4.40625 C 4.007812 -4.332031 4.554688 -4.269531 5.234375 -4.21875 C 5.867188 -4.175781 6.445312 -4.113281 6.96875 -4.03125 C 7.488281 -3.945312 7.9375 -3.828125 8.3125 -3.671875 C 8.6875 -3.515625 8.972656 -3.304688 9.171875 -3.046875 C 9.367188 -2.796875 9.46875 -2.46875 9.46875 -2.0625 C 9.46875 -0.613281 8.117188 0.109375 5.421875 0.109375 Z M 5.421875 0.109375 "/></g></g></g><g fill="#12123f" fill-opacity="1"><g transform="translate(258.075968, 98.064151)"><g><path d="M 1.40625 0.09375 C 0.769531 0.09375 0.453125 -0.132812 0.453125 -0.59375 C 0.453125 -1.0625 0.769531 -1.296875 1.40625 -1.296875 C 2.03125 -1.296875 2.34375 -1.0625 2.34375 -0.59375 C 2.34375 -0.132812 2.03125 0.09375 1.40625 0.09375 Z M 1.40625 0.09375 "/></g></g></g></svg>